<?xml version="1.0" encoding="UTF-8" standalone="no"?>
<!-- Created with Inkscape (http://www.inkscape.org/) -->

<svg
   xmlns:dc="http://purl.org/dc/elements/1.1/"
   xmlns:cc="http://creativecommons.org/ns#"
   xmlns:rdf="http://www.w3.org/1999/02/22-rdf-syntax-ns#"
   xmlns:svg="http://www.w3.org/2000/svg"
   xmlns="http://www.w3.org/2000/svg"
   xmlns:xlink="http://www.w3.org/1999/xlink"
   xmlns:sodipodi="http://sodipodi.sourceforge.net/DTD/sodipodi-0.dtd"
   xmlns:inkscape="http://www.inkscape.org/namespaces/inkscape"
   width="100"
   height="100"
   id="svg2"
   version="1.1"
   inkscape:version="0.48.2 r9819"
   sodipodi:docname="Candy.svg">
  <defs
     id="defs4">
    <linearGradient
       inkscape:collect="always"
       id="linearGradient3891">
      <stop
         style="stop-color:#ffffff;stop-opacity:1;"
         offset="0"
         id="stop3893" />
      <stop
         style="stop-color:#ffffff;stop-opacity:0;"
         offset="1"
         id="stop3895" />
    </linearGradient>
    <linearGradient
       inkscape:collect="always"
       id="linearGradient3883">
      <stop
         style="stop-color:#e6e6e6;stop-opacity:1;"
         offset="0"
         id="stop3885" />
      <stop
         style="stop-color:#e6e6e6;stop-opacity:0;"
         offset="1"
         id="stop3887" />
    </linearGradient>
    <linearGradient
       inkscape:collect="always"
       xlink:href="#linearGradient3883"
       id="linearGradient3889"
       x1="35"
       y1="47.5"
       x2="40"
       y2="47.5"
       gradientUnits="userSpaceOnUse" />
    <linearGradient
       inkscape:collect="always"
       xlink:href="#linearGradient3891"
       id="linearGradient3929"
       gradientUnits="userSpaceOnUse"
       x1="30"
       y1="25"
       x2="35"
       y2="25" />
    <linearGradient
       inkscape:collect="always"
       xlink:href="#linearGradient3891"
       id="linearGradient3931"
       gradientUnits="userSpaceOnUse"
       x1="30"
       y1="25"
       x2="35"
       y2="25" />
    <linearGradient
       inkscape:collect="always"
       xlink:href="#linearGradient3891"
       id="linearGradient3945"
       gradientUnits="userSpaceOnUse"
       x1="30"
       y1="25"
       x2="35"
       y2="25" />
    <linearGradient
       inkscape:collect="always"
       xlink:href="#linearGradient3891"
       id="linearGradient4192"
       gradientUnits="userSpaceOnUse"
       gradientTransform="matrix(0.63083554,0.77591657,-0.77591657,0.63083554,31.508395,937.27509)"
       x1="30"
       y1="25"
       x2="35"
       y2="25" />
    <linearGradient
       inkscape:collect="always"
       xlink:href="#linearGradient3891"
       id="linearGradient4194"
       gradientUnits="userSpaceOnUse"
       x1="30"
       y1="25"
       x2="35"
       y2="25" />
    <linearGradient
       inkscape:collect="always"
       xlink:href="#linearGradient3891"
       id="linearGradient4196"
       gradientUnits="userSpaceOnUse"
       gradientTransform="matrix(0.63083554,0.77591657,-0.77591657,0.63083554,31.508395,937.27509)"
       x1="30"
       y1="25"
       x2="35"
       y2="25" />
    <linearGradient
       inkscape:collect="always"
       xlink:href="#linearGradient3891"
       id="linearGradient4198"
       gradientUnits="userSpaceOnUse"
       x1="30"
       y1="25"
       x2="35"
       y2="25" />
    <linearGradient
       inkscape:collect="always"
       xlink:href="#linearGradient3891"
       id="linearGradient4200"
       gradientUnits="userSpaceOnUse"
       gradientTransform="matrix(0.63083554,0.77591657,-0.77591657,0.63083554,31.508395,937.27509)"
       x1="30"
       y1="25"
       x2="35"
       y2="25" />
    <linearGradient
       inkscape:collect="always"
       xlink:href="#linearGradient3891"
       id="linearGradient4202"
       gradientUnits="userSpaceOnUse"
       x1="30"
       y1="25"
       x2="35"
       y2="25" />
    <linearGradient
       inkscape:collect="always"
       xlink:href="#linearGradient3891"
       id="linearGradient4204"
       gradientUnits="userSpaceOnUse"
       gradientTransform="matrix(0.63083554,0.77591657,-0.77591657,0.63083554,31.508395,937.27509)"
       x1="30"
       y1="25"
       x2="35"
       y2="25" />
    <linearGradient
       inkscape:collect="always"
       xlink:href="#linearGradient3891"
       id="linearGradient4206"
       gradientUnits="userSpaceOnUse"
       x1="30"
       y1="25"
       x2="35"
       y2="25" />
    <linearGradient
       inkscape:collect="always"
       xlink:href="#linearGradient3891"
       id="linearGradient4208"
       gradientUnits="userSpaceOnUse"
       gradientTransform="matrix(0.63083554,0.77591657,-0.77591657,0.63083554,31.508395,937.27509)"
       x1="30"
       y1="25"
       x2="35"
       y2="25" />
    <linearGradient
       inkscape:collect="always"
       xlink:href="#linearGradient3891"
       id="linearGradient4210"
       gradientUnits="userSpaceOnUse"
       x1="30"
       y1="25"
       x2="35"
       y2="25" />
    <linearGradient
       inkscape:collect="always"
       xlink:href="#linearGradient3891"
       id="linearGradient4212"
       gradientUnits="userSpaceOnUse"
       gradientTransform="matrix(0.63083554,0.77591657,-0.77591657,0.63083554,31.508395,937.27509)"
       x1="30"
       y1="25"
       x2="35"
       y2="25" />
    <linearGradient
       inkscape:collect="always"
       xlink:href="#linearGradient3891"
       id="linearGradient4214"
       gradientUnits="userSpaceOnUse"
       x1="30"
       y1="25"
       x2="35"
       y2="25" />
    <linearGradient
       inkscape:collect="always"
       xlink:href="#linearGradient3891"
       id="linearGradient4216"
       gradientUnits="userSpaceOnUse"
       gradientTransform="matrix(0.63083554,0.77591657,-0.77591657,0.63083554,31.508395,937.27509)"
       x1="30"
       y1="25"
       x2="35"
       y2="25" />
    <linearGradient
       inkscape:collect="always"
       xlink:href="#linearGradient3891"
       id="linearGradient4218"
       gradientUnits="userSpaceOnUse"
       x1="30"
       y1="25"
       x2="35"
       y2="25" />
    <linearGradient
       inkscape:collect="always"
       xlink:href="#linearGradient3891"
       id="linearGradient4220"
       gradientUnits="userSpaceOnUse"
       gradientTransform="matrix(0.63083554,0.77591657,-0.77591657,0.63083554,31.508395,937.27509)"
       x1="30"
       y1="25"
       x2="35"
       y2="25" />
    <linearGradient
       inkscape:collect="always"
       xlink:href="#linearGradient3891"
       id="linearGradient4222"
       gradientUnits="userSpaceOnUse"
       x1="30"
       y1="25"
       x2="35"
       y2="25" />
    <linearGradient
       inkscape:collect="always"
       xlink:href="#linearGradient3891"
       id="linearGradient4354"
       gradientUnits="userSpaceOnUse"
       gradientTransform="matrix(0.63083554,0.77591657,-0.77591657,0.63083554,31.508395,937.27509)"
       x1="30"
       y1="25"
       x2="35"
       y2="25" />
    <linearGradient
       inkscape:collect="always"
       xlink:href="#linearGradient3891"
       id="linearGradient4356"
       gradientUnits="userSpaceOnUse"
       x1="30"
       y1="25"
       x2="35"
       y2="25" />
    <linearGradient
       inkscape:collect="always"
       xlink:href="#linearGradient3891"
       id="linearGradient4358"
       gradientUnits="userSpaceOnUse"
       gradientTransform="matrix(0.63083554,0.77591657,-0.77591657,0.63083554,31.508395,937.27509)"
       x1="30"
       y1="25"
       x2="35"
       y2="25" />
    <linearGradient
       inkscape:collect="always"
       xlink:href="#linearGradient3891"
       id="linearGradient4360"
       gradientUnits="userSpaceOnUse"
       x1="30"
       y1="25"
       x2="35"
       y2="25" />
    <linearGradient
       inkscape:collect="always"
       xlink:href="#linearGradient3891"
       id="linearGradient4362"
       gradientUnits="userSpaceOnUse"
       gradientTransform="matrix(0.63083554,0.77591657,-0.77591657,0.63083554,31.508395,937.27509)"
       x1="30"
       y1="25"
       x2="35"
       y2="25" />
    <linearGradient
       inkscape:collect="always"
       xlink:href="#linearGradient3891"
       id="linearGradient4364"
       gradientUnits="userSpaceOnUse"
       x1="30"
       y1="25"
       x2="35"
       y2="25" />
    <linearGradient
       inkscape:collect="always"
       xlink:href="#linearGradient3891"
       id="linearGradient4366"
       gradientUnits="userSpaceOnUse"
       gradientTransform="matrix(0.63083554,0.77591657,-0.77591657,0.63083554,31.508395,937.27509)"
       x1="30"
       y1="25"
       x2="35"
       y2="25" />
    <linearGradient
       inkscape:collect="always"
       xlink:href="#linearGradient3891"
       id="linearGradient4368"
       gradientUnits="userSpaceOnUse"
       x1="30"
       y1="25"
       x2="35"
       y2="25" />
    <linearGradient
       inkscape:collect="always"
       xlink:href="#linearGradient3891"
       id="linearGradient4370"
       gradientUnits="userSpaceOnUse"
       gradientTransform="matrix(0.63083554,0.77591657,-0.77591657,0.63083554,31.508395,937.27509)"
       x1="30"
       y1="25"
       x2="35"
       y2="25" />
    <linearGradient
       inkscape:collect="always"
       xlink:href="#linearGradient3891"
       id="linearGradient4372"
       gradientUnits="userSpaceOnUse"
       x1="30"
       y1="25"
       x2="35"
       y2="25" />
    <linearGradient
       inkscape:collect="always"
       xlink:href="#linearGradient3891"
       id="linearGradient4374"
       gradientUnits="userSpaceOnUse"
       gradientTransform="matrix(0.63083554,0.77591657,-0.77591657,0.63083554,31.508395,937.27509)"
       x1="30"
       y1="25"
       x2="35"
       y2="25" />
    <linearGradient
       inkscape:collect="always"
       xlink:href="#linearGradient3891"
       id="linearGradient4376"
       gradientUnits="userSpaceOnUse"
       x1="30"
       y1="25"
       x2="35"
       y2="25" />
    <linearGradient
       inkscape:collect="always"
       xlink:href="#linearGradient3891"
       id="linearGradient4378"
       gradientUnits="userSpaceOnUse"
       gradientTransform="matrix(0.63083554,0.77591657,-0.77591657,0.63083554,31.508395,937.27509)"
       x1="30"
       y1="25"
       x2="35"
       y2="25" />
    <linearGradient
       inkscape:collect="always"
       xlink:href="#linearGradient3891"
       id="linearGradient4380"
       gradientUnits="userSpaceOnUse"
       x1="30"
       y1="25"
       x2="35"
       y2="25" />
    <linearGradient
       inkscape:collect="always"
       xlink:href="#linearGradient3891"
       id="linearGradient4382"
       gradientUnits="userSpaceOnUse"
       gradientTransform="matrix(0.63083554,0.77591657,-0.77591657,0.63083554,31.508395,937.27509)"
       x1="30"
       y1="25"
       x2="35"
       y2="25" />
    <linearGradient
       inkscape:collect="always"
       xlink:href="#linearGradient3891"
       id="linearGradient4384"
       gradientUnits="userSpaceOnUse"
       x1="30"
       y1="25"
       x2="35"
       y2="25" />
    <linearGradient
       inkscape:collect="always"
       xlink:href="#linearGradient3891"
       id="linearGradient4450"
       gradientUnits="userSpaceOnUse"
       gradientTransform="matrix(0.63083554,0.77591657,-0.77591657,0.63083554,31.508395,937.27509)"
       x1="30"
       y1="25"
       x2="35"
       y2="25" />
    <linearGradient
       inkscape:collect="always"
       xlink:href="#linearGradient3891"
       id="linearGradient4452"
       gradientUnits="userSpaceOnUse"
       x1="30"
       y1="25"
       x2="35"
       y2="25" />
    <linearGradient
       inkscape:collect="always"
       xlink:href="#linearGradient3891"
       id="linearGradient4454"
       gradientUnits="userSpaceOnUse"
       gradientTransform="matrix(0.63083554,0.77591657,-0.77591657,0.63083554,31.508395,937.27509)"
       x1="30"
       y1="25"
       x2="35"
       y2="25" />
    <linearGradient
       inkscape:collect="always"
       xlink:href="#linearGradient3891"
       id="linearGradient4456"
       gradientUnits="userSpaceOnUse"
       x1="30"
       y1="25"
       x2="35"
       y2="25" />
    <linearGradient
       inkscape:collect="always"
       xlink:href="#linearGradient3891"
       id="linearGradient4458"
       gradientUnits="userSpaceOnUse"
       gradientTransform="matrix(0.63083554,0.77591657,-0.77591657,0.63083554,31.508395,937.27509)"
       x1="30"
       y1="25"
       x2="35"
       y2="25" />
    <linearGradient
       inkscape:collect="always"
       xlink:href="#linearGradient3891"
       id="linearGradient4460"
       gradientUnits="userSpaceOnUse"
       x1="30"
       y1="25"
       x2="35"
       y2="25" />
    <linearGradient
       inkscape:collect="always"
       xlink:href="#linearGradient3891"
       id="linearGradient4462"
       gradientUnits="userSpaceOnUse"
       gradientTransform="matrix(0.63083554,0.77591657,-0.77591657,0.63083554,31.508395,937.27509)"
       x1="30"
       y1="25"
       x2="35"
       y2="25" />
    <linearGradient
       inkscape:collect="always"
       xlink:href="#linearGradient3891"
       id="linearGradient4464"
       gradientUnits="userSpaceOnUse"
       x1="30"
       y1="25"
       x2="35"
       y2="25" />
    <linearGradient
       inkscape:collect="always"
       xlink:href="#linearGradient3891"
       id="linearGradient4466"
       gradientUnits="userSpaceOnUse"
       gradientTransform="matrix(0.63083554,0.77591657,-0.77591657,0.63083554,31.508395,937.27509)"
       x1="30"
       y1="25"
       x2="35"
       y2="25" />
    <linearGradient
       inkscape:collect="always"
       xlink:href="#linearGradient3891"
       id="linearGradient4468"
       gradientUnits="userSpaceOnUse"
       x1="30"
       y1="25"
       x2="35"
       y2="25" />
    <linearGradient
       inkscape:collect="always"
       xlink:href="#linearGradient3891"
       id="linearGradient4470"
       gradientUnits="userSpaceOnUse"
       gradientTransform="matrix(0.63083554,0.77591657,-0.77591657,0.63083554,31.508395,937.27509)"
       x1="30"
       y1="25"
       x2="35"
       y2="25" />
    <linearGradient
       inkscape:collect="always"
       xlink:href="#linearGradient3891"
       id="linearGradient4472"
       gradientUnits="userSpaceOnUse"
       x1="30"
       y1="25"
       x2="35"
       y2="25" />
    <linearGradient
       inkscape:collect="always"
       xlink:href="#linearGradient3891"
       id="linearGradient4474"
       gradientUnits="userSpaceOnUse"
       gradientTransform="matrix(0.63083554,0.77591657,-0.77591657,0.63083554,31.508395,937.27509)"
       x1="30"
       y1="25"
       x2="35"
       y2="25" />
    <linearGradient
       inkscape:collect="always"
       xlink:href="#linearGradient3891"
       id="linearGradient4476"
       gradientUnits="userSpaceOnUse"
       x1="30"
       y1="25"
       x2="35"
       y2="25" />
    <linearGradient
       inkscape:collect="always"
       xlink:href="#linearGradient3891"
       id="linearGradient4478"
       gradientUnits="userSpaceOnUse"
       gradientTransform="matrix(0.63083554,0.77591657,-0.77591657,0.63083554,31.508395,937.27509)"
       x1="30"
       y1="25"
       x2="35"
       y2="25" />
    <linearGradient
       inkscape:collect="always"
       xlink:href="#linearGradient3891"
       id="linearGradient4480"
       gradientUnits="userSpaceOnUse"
       x1="30"
       y1="25"
       x2="35"
       y2="25" />
    <linearGradient
       inkscape:collect="always"
       xlink:href="#linearGradient3891"
       id="linearGradient4484"
       gradientUnits="userSpaceOnUse"
       gradientTransform="matrix(0.81522707,0.86212959,-1.0027149,0.70092843,-115.82331,1228.0432)"
       x1="30"
       y1="25"
       x2="35"
       y2="25" />
  </defs>
  <sodipodi:namedview
     id="base"
     pagecolor="#ffffff"
     bordercolor="#666666"
     borderopacity="1.0"
     inkscape:pageopacity="0.0"
     inkscape:pageshadow="2"
     inkscape:zoom="0.70710678"
     inkscape:cx="316.50091"
     inkscape:cy="-292.39776"
     inkscape:document-units="px"
     inkscape:current-layer="layer1"
     showgrid="false"
     inkscape:window-width="1440"
     inkscape:window-height="785"
     inkscape:window-x="0"
     inkscape:window-y="0"
     inkscape:window-maximized="0"
     showguides="true"
     inkscape:guide-bbox="true">
    <inkscape:grid
       type="xygrid"
       id="grid2985"
       empspacing="5"
       visible="true"
       enabled="true"
       snapvisiblegridlinesonly="true" />
    <sodipodi:guide
       orientation="0,1"
       position="166,-40"
       id="guide3078" />
  </sodipodi:namedview>
  <metadata
     id="metadata7">
    <rdf:RDF>
      <cc:Work
         rdf:about="">
        <dc:format>image/svg+xml</dc:format>
        <dc:type
           rdf:resource="http://purl.org/dc/dcmitype/StillImage" />
        <dc:title></dc:title>
      </cc:Work>
    </rdf:RDF>
  </metadata>
  <g
     inkscape:label="Layer 1"
     inkscape:groupmode="layer"
     id="layer1"
     transform="translate(0,-952.36218)">
    <g
       id="g4126"
       transform="matrix(1.00125,0,0,1,-0.8237615,140.17355)"
       inkscape:export-filename="/Users/anivamainali/Desktop/Projects/WS/runtime-lbd2.product/Assorted/textures/candy.png"
       inkscape:export-xdpi="89.870003"
       inkscape:export-ydpi="89.870003">
      <g
         transform="matrix(1.2906839,0,0,1.1111112,-155.52335,-111.54721)"
         inkscape:export-ydpi="89.75"
         inkscape:export-xdpi="89.75"
         inkscape:export-filename="/Users/anivamainali/Desktop/Projects/WS/runtime-lbd2.product/Assorted/textures/candy.png"
         id="g3045">
        <g
           id="g3872"
           transform="matrix(0.78446782,0,0,0.91124996,10.776609,89.522185)">
          <path
             transform="matrix(1.2345679,0,0,1.2345679,-11.728395,946.18934)"
             d="M 90,45 C 90,67.09139 72.09139,85 50,85 27.90861,85 10,67.09139 10,45 10,22.90861 27.90861,5 50,5 72.09139,5 90,22.90861 90,45 z"
             sodipodi:ry="40"
             sodipodi:rx="40"
             sodipodi:cy="45"
             sodipodi:cx="50"
             id="path3802"
             style="fill:#ffd42a;fill-opacity:1;fill-rule:evenodd;stroke:#beccef;stroke-width:0;stroke-linejoin:miter;stroke-miterlimit:4;stroke-opacity:1;stroke-dasharray:none"
             sodipodi:type="arc" />
          <path
             inkscape:connector-curvature="0"
             id="path3804"
             d="m 50,959.54968 c -23.301642,0 -42.1875,18.88586 -42.1875,42.18752 0,23.3016 18.885858,42.1875 42.1875,42.1875 23.301642,0 42.1875,-18.8859 42.1875,-42.1875 0,-23.30166 -18.885858,-42.18752 -42.1875,-42.18752 z m -9.4375,7.5625 c 1.53474,-0.37859 -15.03125,12.53125 -15.03125,12.53125 0,0 2.251552,-2.36745 5.21875,-5.09375 -0.177823,0.0524 -0.367697,0.0937 -0.5625,0.0937 -1.093633,0 -1.96875,-0.87512 -1.96875,-1.96875 0,-1.09363 0.875117,-2 1.96875,-2 1.092431,0 1.998302,0.87632 2,1.96875 l 0,0.0312 c 0,0.27341 -0.05605,0.51309 -0.15625,0.75 2.613341,-2.32905 5.557585,-4.72984 7.96875,-6.0625 0.273505,-0.15117 0.460184,-0.22476 0.5625,-0.25 z m -8.53125,6.3125 c -0.431071,0.38418 -0.873077,0.74996 -1.28125,1.125 0.570906,-0.16829 1.052035,-0.58307 1.28125,-1.125 z M 30.75,980.76843 c 1.53474,-0.37859 -15.03125,12.53125 -15.03125,12.53125 0,0 8.768644,-9.13077 14.46875,-12.28125 0.273505,-0.15117 0.460184,-0.22476 0.5625,-0.25 z m -1.21875,24.99997 c 0.06395,-0.016 0.09014,0 0.09375,0.031 0.0072,0.057 -0.108435,0.1945 -0.3125,0.4062 -0.0262,0.027 -0.03297,0.033 -0.0625,0.062 -0.264138,0.2665 -0.725337,0.7241 -1.21875,1.1563 -0.07653,0.067 -0.106524,0.086 -0.1875,0.1562 -0.470965,0.4094 -0.928096,0.7783 -1.53125,1.2813 -0.300074,0.2511 -0.550841,0.451 -0.875,0.7187 -0.668791,0.5514 -1.331626,1.0961 -2.0625,1.6875 -0.266353,0.2161 -0.511733,0.4075 -0.78125,0.625 -1.832542,1.4756 -3.741394,2.9912 -5.21875,4.1563 -0.08959,0.071 -0.225969,0.1817 -0.3125,0.25 -1.405513,1.1065 -2.5625,2.0312 -2.5625,2.0312 0,0 0.57441,-0.5807 1.46875,-1.4687 0.0045,0 -0.0045,-0.027 0,-0.031 0.911703,-0.9047 2.171892,-2.1312 3.625,-3.4687 1.453108,-1.3375 3.094534,-2.764 4.71875,-4.0625 1.624216,-1.2985 3.231223,-2.4624 4.65625,-3.25 0.273505,-0.1512 0.460184,-0.256 0.5625,-0.2813 z m 4.5625,9.4688 c 1.53474,-0.3786 -15.03125,12.5312 -15.03125,12.5312 0,0 8.768644,-9.1307 14.46875,-12.2812 0.273505,-0.1512 0.460184,-0.2248 0.5625,-0.25 z m 5.59375,5.25 c 1.53474,-0.3786 -15.03125,12.5312 -15.03125,12.5312 0,0 8.768644,-9.1307 14.46875,-12.2812 0.273505,-0.1512 0.460184,-0.2248 0.5625,-0.25 z"
             style="fill:#ffcc00;fill-opacity:1;fill-rule:evenodd;stroke:#beccef;stroke-width:0;stroke-linejoin:miter;stroke-miterlimit:4;stroke-opacity:1;stroke-dasharray:none" />
          <path
             inkscape:connector-curvature="0"
             id="path3806"
             d="m 50,970.64343 c -17.173669,0 -31.09375,13.92008 -31.09375,31.09377 0,0.1788 -0.003,0.3531 0,0.5312 3.029747,-2.8442 7.094533,-6.38093 10.25,-8.12497 3.031515,-1.67553 -4.945772,4.73117 -10.21875,8.90627 0.691302,16.5617 14.330837,29.7812 31.0625,29.7812 17.173669,0 31.09375,-13.9201 31.09375,-31.0937 0,-1.7411 -0.131226,-3.4619 -0.40625,-5.12502 -0.718346,6.92912 -1.829854,16.25112 -2.625,15.15622 -0.238985,-0.329 -0.458641,-0.6537 -0.65625,-1 -0.07408,0.1543 -0.138207,0.3183 -0.21875,0.4688 -0.233165,0.4357 -0.532642,-0.8349 -0.8125,-2.9375 -0.530693,-1.7693 -0.673616,-3.666 -0.5625,-5.5313 -0.584675,-6.30271 -1.0625,-13.78122 -1.0625,-13.78122 0.353926,-0.77864 1.815073,1.90176 2.90625,5.84375 0.541258,-1.35051 1.131915,-2.53007 1.6875,-3.4375 -4.262649,-12.08736 -15.797065,-20.75 -29.34375,-20.75 z m 4.6875,18.75 c 0.03747,-0.02 0.08075,-0.009 0.125,0 0.460508,0.0965 1.404821,1.83759 2.25,4.40625 1.14457,-2.56761 2.406772,-4.30982 3.03125,-4.40625 0.120101,-0.0185 0.214417,0.0167 0.28125,0.125 0,0 -0.795317,9.04587 -1.6875,15.62497 -0.07809,1.4776 -0.272982,2.9189 -0.6875,4.2813 -0.338452,1.7277 -0.653223,2.7352 -0.9375,2.3437 -0.120953,0.2261 -0.267968,-0.028 -0.40625,-0.5937 -2.261201,-3.5836 -2.23665,-8.1201 -1.34375,-12.125 -0.398548,-4.92057 -0.71875,-9.53127 -0.71875,-9.53127 0.02462,-0.0542 0.05628,-0.10497 0.09375,-0.125 z"
             style="fill:#ffd42a;fill-opacity:1;fill-rule:evenodd;stroke:#beccef;stroke-width:0;stroke-linejoin:miter;stroke-miterlimit:4;stroke-opacity:1;stroke-dasharray:none" />
          <path
             inkscape:connector-curvature="0"
             id="path3808"
             d="m 50,977.45593 c -13.419326,0 -24.3125,10.86192 -24.3125,24.28127 0,13.4193 10.893174,24.3125 24.3125,24.3125 13.419326,0 24.3125,-10.8932 24.3125,-24.3125 0,-13.41935 -10.893174,-24.28127 -24.3125,-24.28127 z m 14.6875,11.25 c 0.428752,-0.26667 1.588616,1.87764 2.5625,5.0625 1.140122,-2.54673 2.378607,-4.27905 3,-4.375 0.120101,-0.0185 0.214417,0.0167 0.28125,0.125 0,0 -2.079671,23.94747 -3.3125,22.24997 -2.571518,-3.5408 -2.688133,-8.1597 -1.84375,-12.2812 -0.449445,-5.37637 -0.78125,-10.65627 -0.78125,-10.65627 0.02462,-0.0542 0.05881,-0.10327 0.09375,-0.125 z m -4.59375,0.6875 c 0.120101,-0.0185 0.214417,0.0167 0.28125,0.125 0,0 -2.079671,23.94747 -3.3125,22.24997 -5.937007,-8.1748 1.229731,-22.0968 3.03125,-22.37497 z"
             style="fill:#ffcc00;fill-opacity:1;fill-rule:evenodd;stroke:#beccef;stroke-width:0;stroke-linejoin:miter;stroke-miterlimit:4;stroke-opacity:1;stroke-dasharray:none" />
        </g>
        <path
           style="fill:url(#linearGradient4192);fill-opacity:1;fill-rule:evenodd;stroke:#beccef;stroke-width:0;stroke-linejoin:miter;stroke-miterlimit:4;stroke-opacity:1"
           d="m 34.189725,980.20306 c -5.280362,4.29304 -8.852814,9.20286 -9.723816,8.13154 -0.871002,-1.07132 1.289277,-7.71809 6.569638,-12.01112 5.280361,-4.29304 11.681241,-5.66733 12.552243,-4.59601 0.871002,1.07132 -4.117704,4.18255 -9.398065,8.47559 z"
           id="path3878"
           inkscape:connector-curvature="0"
           sodipodi:nodetypes="sssss" />
        <path
           sodipodi:type="arc"
           style="fill:url(#linearGradient4194);fill-opacity:1;fill-rule:evenodd;stroke:#beccef;stroke-width:0;stroke-linejoin:miter;stroke-miterlimit:4;stroke-opacity:1;stroke-dasharray:none"
           id="path3901"
           sodipodi:cx="32.5"
           sodipodi:cy="25"
           sodipodi:rx="2.5"
           sodipodi:ry="4.8156753"
           d="m 35,25 c 0,2.659624 -1.119288,4.815675 -2.5,4.815675 -1.380712,0 -2.5,-2.156051 -2.5,-4.815675 0,-2.659624 1.119288,-4.815675 2.5,-4.815675 1.380712,0 2.5,2.156051 2.5,4.815675 z"
           transform="matrix(1.9778604,-0.02363271,0.04819114,0.96993337,-16.302684,978.00414)" />
      </g>
      <g
         id="g3986"
         inkscape:export-filename="/Users/anivamainali/Desktop/Projects/WS/runtime-lbd2.product/Assorted/textures/candy.png"
         inkscape:export-xdpi="89.75"
         inkscape:export-ydpi="89.75"
         transform="matrix(1.2906839,0,0,1.1111112,-55.523353,-111.54721)">
        <g
           transform="matrix(0.78446782,0,0,0.91124996,10.776609,89.522185)"
           id="g3988">
          <path
             sodipodi:type="arc"
             style="fill:#ffd42a;fill-opacity:1;fill-rule:evenodd;stroke:#beccef;stroke-width:0;stroke-linejoin:miter;stroke-miterlimit:4;stroke-opacity:1;stroke-dasharray:none"
             id="path3990"
             sodipodi:cx="50"
             sodipodi:cy="45"
             sodipodi:rx="40"
             sodipodi:ry="40"
             d="M 90,45 C 90,67.09139 72.09139,85 50,85 27.90861,85 10,67.09139 10,45 10,22.90861 27.90861,5 50,5 72.09139,5 90,22.90861 90,45 z"
             transform="matrix(1.2345679,0,0,1.2345679,-11.728395,946.18934)" />
          <path
             style="fill:#ffcc00;fill-opacity:1;fill-rule:evenodd;stroke:#beccef;stroke-width:0;stroke-linejoin:miter;stroke-miterlimit:4;stroke-opacity:1;stroke-dasharray:none"
             d="m 50,959.54968 c -23.301642,0 -42.1875,18.88586 -42.1875,42.18752 0,23.3016 18.885858,42.1875 42.1875,42.1875 23.301642,0 42.1875,-18.8859 42.1875,-42.1875 0,-23.30166 -18.885858,-42.18752 -42.1875,-42.18752 z m -9.4375,7.5625 c 1.53474,-0.37859 -15.03125,12.53125 -15.03125,12.53125 0,0 2.251552,-2.36745 5.21875,-5.09375 -0.177823,0.0524 -0.367697,0.0937 -0.5625,0.0937 -1.093633,0 -1.96875,-0.87512 -1.96875,-1.96875 0,-1.09363 0.875117,-2 1.96875,-2 1.092431,0 1.998302,0.87632 2,1.96875 l 0,0.0312 c 0,0.27341 -0.05605,0.51309 -0.15625,0.75 2.613341,-2.32905 5.557585,-4.72984 7.96875,-6.0625 0.273505,-0.15117 0.460184,-0.22476 0.5625,-0.25 z m -8.53125,6.3125 c -0.431071,0.38418 -0.873077,0.74996 -1.28125,1.125 0.570906,-0.16829 1.052035,-0.58307 1.28125,-1.125 z M 30.75,980.76843 c 1.53474,-0.37859 -15.03125,12.53125 -15.03125,12.53125 0,0 8.768644,-9.13077 14.46875,-12.28125 0.273505,-0.15117 0.460184,-0.22476 0.5625,-0.25 z m -1.21875,24.99997 c 0.06395,-0.016 0.09014,0 0.09375,0.031 0.0072,0.057 -0.108435,0.1945 -0.3125,0.4062 -0.0262,0.027 -0.03297,0.033 -0.0625,0.062 -0.264138,0.2665 -0.725337,0.7241 -1.21875,1.1563 -0.07653,0.067 -0.106524,0.086 -0.1875,0.1562 -0.470965,0.4094 -0.928096,0.7783 -1.53125,1.2813 -0.300074,0.2511 -0.550841,0.451 -0.875,0.7187 -0.668791,0.5514 -1.331626,1.0961 -2.0625,1.6875 -0.266353,0.2161 -0.511733,0.4075 -0.78125,0.625 -1.832542,1.4756 -3.741394,2.9912 -5.21875,4.1563 -0.08959,0.071 -0.225969,0.1817 -0.3125,0.25 -1.405513,1.1065 -2.5625,2.0312 -2.5625,2.0312 0,0 0.57441,-0.5807 1.46875,-1.4687 0.0045,0 -0.0045,-0.027 0,-0.031 0.911703,-0.9047 2.171892,-2.1312 3.625,-3.4687 1.453108,-1.3375 3.094534,-2.764 4.71875,-4.0625 1.624216,-1.2985 3.231223,-2.4624 4.65625,-3.25 0.273505,-0.1512 0.460184,-0.256 0.5625,-0.2813 z m 4.5625,9.4688 c 1.53474,-0.3786 -15.03125,12.5312 -15.03125,12.5312 0,0 8.768644,-9.1307 14.46875,-12.2812 0.273505,-0.1512 0.460184,-0.2248 0.5625,-0.25 z m 5.59375,5.25 c 1.53474,-0.3786 -15.03125,12.5312 -15.03125,12.5312 0,0 8.768644,-9.1307 14.46875,-12.2812 0.273505,-0.1512 0.460184,-0.2248 0.5625,-0.25 z"
             id="path3992"
             inkscape:connector-curvature="0" />
          <path
             style="fill:#ffd42a;fill-opacity:1;fill-rule:evenodd;stroke:#beccef;stroke-width:0;stroke-linejoin:miter;stroke-miterlimit:4;stroke-opacity:1;stroke-dasharray:none"
             d="m 50,970.64343 c -17.173669,0 -31.09375,13.92008 -31.09375,31.09377 0,0.1788 -0.003,0.3531 0,0.5312 3.029747,-2.8442 7.094533,-6.38093 10.25,-8.12497 3.031515,-1.67553 -4.945772,4.73117 -10.21875,8.90627 0.691302,16.5617 14.330837,29.7812 31.0625,29.7812 17.173669,0 31.09375,-13.9201 31.09375,-31.0937 0,-1.7411 -0.131226,-3.4619 -0.40625,-5.12502 -0.718346,6.92912 -1.829854,16.25112 -2.625,15.15622 -0.238985,-0.329 -0.458641,-0.6537 -0.65625,-1 -0.07408,0.1543 -0.138207,0.3183 -0.21875,0.4688 -0.233165,0.4357 -0.532642,-0.8349 -0.8125,-2.9375 -0.530693,-1.7693 -0.673616,-3.666 -0.5625,-5.5313 -0.584675,-6.30271 -1.0625,-13.78122 -1.0625,-13.78122 0.353926,-0.77864 1.815073,1.90176 2.90625,5.84375 0.541258,-1.35051 1.131915,-2.53007 1.6875,-3.4375 -4.262649,-12.08736 -15.797065,-20.75 -29.34375,-20.75 z m 4.6875,18.75 c 0.03747,-0.02 0.08075,-0.009 0.125,0 0.460508,0.0965 1.404821,1.83759 2.25,4.40625 1.14457,-2.56761 2.406772,-4.30982 3.03125,-4.40625 0.120101,-0.0185 0.214417,0.0167 0.28125,0.125 0,0 -0.795317,9.04587 -1.6875,15.62497 -0.07809,1.4776 -0.272982,2.9189 -0.6875,4.2813 -0.338452,1.7277 -0.653223,2.7352 -0.9375,2.3437 -0.120953,0.2261 -0.267968,-0.028 -0.40625,-0.5937 -2.261201,-3.5836 -2.23665,-8.1201 -1.34375,-12.125 -0.398548,-4.92057 -0.71875,-9.53127 -0.71875,-9.53127 0.02462,-0.0542 0.05628,-0.10497 0.09375,-0.125 z"
             id="path3994"
             inkscape:connector-curvature="0" />
          <path
             style="fill:#ffcc00;fill-opacity:1;fill-rule:evenodd;stroke:#beccef;stroke-width:0;stroke-linejoin:miter;stroke-miterlimit:4;stroke-opacity:1;stroke-dasharray:none"
             d="m 50,977.45593 c -13.419326,0 -24.3125,10.86192 -24.3125,24.28127 0,13.4193 10.893174,24.3125 24.3125,24.3125 13.419326,0 24.3125,-10.8932 24.3125,-24.3125 0,-13.41935 -10.893174,-24.28127 -24.3125,-24.28127 z m 14.6875,11.25 c 0.428752,-0.26667 1.588616,1.87764 2.5625,5.0625 1.140122,-2.54673 2.378607,-4.27905 3,-4.375 0.120101,-0.0185 0.214417,0.0167 0.28125,0.125 0,0 -2.079671,23.94747 -3.3125,22.24997 -2.571518,-3.5408 -2.688133,-8.1597 -1.84375,-12.2812 -0.449445,-5.37637 -0.78125,-10.65627 -0.78125,-10.65627 0.02462,-0.0542 0.05881,-0.10327 0.09375,-0.125 z m -4.59375,0.6875 c 0.120101,-0.0185 0.214417,0.0167 0.28125,0.125 0,0 -2.079671,23.94747 -3.3125,22.24997 -5.937007,-8.1748 1.229731,-22.0968 3.03125,-22.37497 z"
             id="path3996"
             inkscape:connector-curvature="0" />
        </g>
        <path
           sodipodi:nodetypes="sssss"
           inkscape:connector-curvature="0"
           id="path3998"
           d="m 34.189725,980.20306 c -5.280362,4.29304 -8.852814,9.20286 -9.723816,8.13154 -0.871002,-1.07132 1.289277,-7.71809 6.569638,-12.01112 5.280361,-4.29304 11.681241,-5.66733 12.552243,-4.59601 0.871002,1.07132 -4.117704,4.18255 -9.398065,8.47559 z"
           style="fill:url(#linearGradient4196);fill-opacity:1;fill-rule:evenodd;stroke:#beccef;stroke-width:0;stroke-linejoin:miter;stroke-miterlimit:4;stroke-opacity:1" />
        <path
           transform="matrix(1.9778604,-0.02363271,0.04819114,0.96993337,-16.302684,978.00414)"
           d="m 35,25 c 0,2.659624 -1.119288,4.815675 -2.5,4.815675 -1.380712,0 -2.5,-2.156051 -2.5,-4.815675 0,-2.659624 1.119288,-4.815675 2.5,-4.815675 1.380712,0 2.5,2.156051 2.5,4.815675 z"
           sodipodi:ry="4.8156753"
           sodipodi:rx="2.5"
           sodipodi:cy="25"
           sodipodi:cx="32.5"
           id="path4000"
           style="fill:url(#linearGradient4198);fill-opacity:1;fill-rule:evenodd;stroke:#beccef;stroke-width:0;stroke-linejoin:miter;stroke-miterlimit:4;stroke-opacity:1;stroke-dasharray:none"
           sodipodi:type="arc" />
      </g>
      <g
         transform="matrix(1.2906839,0,0,1.1111112,44.476646,-111.54721)"
         inkscape:export-ydpi="89.75"
         inkscape:export-xdpi="89.75"
         inkscape:export-filename="/Users/anivamainali/Desktop/Projects/WS/runtime-lbd2.product/Assorted/textures/candy.png"
         id="g4006">
        <g
           id="g4008"
           transform="matrix(0.78446782,0,0,0.91124996,10.776609,89.522185)">
          <path
             transform="matrix(1.2345679,0,0,1.2345679,-11.728395,946.18934)"
             d="M 90,45 C 90,67.09139 72.09139,85 50,85 27.90861,85 10,67.09139 10,45 10,22.90861 27.90861,5 50,5 72.09139,5 90,22.90861 90,45 z"
             sodipodi:ry="40"
             sodipodi:rx="40"
             sodipodi:cy="45"
             sodipodi:cx="50"
             id="path4010"
             style="fill:#ffd42a;fill-opacity:1;fill-rule:evenodd;stroke:#beccef;stroke-width:0;stroke-linejoin:miter;stroke-miterlimit:4;stroke-opacity:1;stroke-dasharray:none"
             sodipodi:type="arc" />
          <path
             inkscape:connector-curvature="0"
             id="path4012"
             d="m 50,959.54968 c -23.301642,0 -42.1875,18.88586 -42.1875,42.18752 0,23.3016 18.885858,42.1875 42.1875,42.1875 23.301642,0 42.1875,-18.8859 42.1875,-42.1875 0,-23.30166 -18.885858,-42.18752 -42.1875,-42.18752 z m -9.4375,7.5625 c 1.53474,-0.37859 -15.03125,12.53125 -15.03125,12.53125 0,0 2.251552,-2.36745 5.21875,-5.09375 -0.177823,0.0524 -0.367697,0.0937 -0.5625,0.0937 -1.093633,0 -1.96875,-0.87512 -1.96875,-1.96875 0,-1.09363 0.875117,-2 1.96875,-2 1.092431,0 1.998302,0.87632 2,1.96875 l 0,0.0312 c 0,0.27341 -0.05605,0.51309 -0.15625,0.75 2.613341,-2.32905 5.557585,-4.72984 7.96875,-6.0625 0.273505,-0.15117 0.460184,-0.22476 0.5625,-0.25 z m -8.53125,6.3125 c -0.431071,0.38418 -0.873077,0.74996 -1.28125,1.125 0.570906,-0.16829 1.052035,-0.58307 1.28125,-1.125 z M 30.75,980.76843 c 1.53474,-0.37859 -15.03125,12.53125 -15.03125,12.53125 0,0 8.768644,-9.13077 14.46875,-12.28125 0.273505,-0.15117 0.460184,-0.22476 0.5625,-0.25 z m -1.21875,24.99997 c 0.06395,-0.016 0.09014,0 0.09375,0.031 0.0072,0.057 -0.108435,0.1945 -0.3125,0.4062 -0.0262,0.027 -0.03297,0.033 -0.0625,0.062 -0.264138,0.2665 -0.725337,0.7241 -1.21875,1.1563 -0.07653,0.067 -0.106524,0.086 -0.1875,0.1562 -0.470965,0.4094 -0.928096,0.7783 -1.53125,1.2813 -0.300074,0.2511 -0.550841,0.451 -0.875,0.7187 -0.668791,0.5514 -1.331626,1.0961 -2.0625,1.6875 -0.266353,0.2161 -0.511733,0.4075 -0.78125,0.625 -1.832542,1.4756 -3.741394,2.9912 -5.21875,4.1563 -0.08959,0.071 -0.225969,0.1817 -0.3125,0.25 -1.405513,1.1065 -2.5625,2.0312 -2.5625,2.0312 0,0 0.57441,-0.5807 1.46875,-1.4687 0.0045,0 -0.0045,-0.027 0,-0.031 0.911703,-0.9047 2.171892,-2.1312 3.625,-3.4687 1.453108,-1.3375 3.094534,-2.764 4.71875,-4.0625 1.624216,-1.2985 3.231223,-2.4624 4.65625,-3.25 0.273505,-0.1512 0.460184,-0.256 0.5625,-0.2813 z m 4.5625,9.4688 c 1.53474,-0.3786 -15.03125,12.5312 -15.03125,12.5312 0,0 8.768644,-9.1307 14.46875,-12.2812 0.273505,-0.1512 0.460184,-0.2248 0.5625,-0.25 z m 5.59375,5.25 c 1.53474,-0.3786 -15.03125,12.5312 -15.03125,12.5312 0,0 8.768644,-9.1307 14.46875,-12.2812 0.273505,-0.1512 0.460184,-0.2248 0.5625,-0.25 z"
             style="fill:#ffcc00;fill-opacity:1;fill-rule:evenodd;stroke:#beccef;stroke-width:0;stroke-linejoin:miter;stroke-miterlimit:4;stroke-opacity:1;stroke-dasharray:none" />
          <path
             inkscape:connector-curvature="0"
             id="path4014"
             d="m 50,970.64343 c -17.173669,0 -31.09375,13.92008 -31.09375,31.09377 0,0.1788 -0.003,0.3531 0,0.5312 3.029747,-2.8442 7.094533,-6.38093 10.25,-8.12497 3.031515,-1.67553 -4.945772,4.73117 -10.21875,8.90627 0.691302,16.5617 14.330837,29.7812 31.0625,29.7812 17.173669,0 31.09375,-13.9201 31.09375,-31.0937 0,-1.7411 -0.131226,-3.4619 -0.40625,-5.12502 -0.718346,6.92912 -1.829854,16.25112 -2.625,15.15622 -0.238985,-0.329 -0.458641,-0.6537 -0.65625,-1 -0.07408,0.1543 -0.138207,0.3183 -0.21875,0.4688 -0.233165,0.4357 -0.532642,-0.8349 -0.8125,-2.9375 -0.530693,-1.7693 -0.673616,-3.666 -0.5625,-5.5313 -0.584675,-6.30271 -1.0625,-13.78122 -1.0625,-13.78122 0.353926,-0.77864 1.815073,1.90176 2.90625,5.84375 0.541258,-1.35051 1.131915,-2.53007 1.6875,-3.4375 -4.262649,-12.08736 -15.797065,-20.75 -29.34375,-20.75 z m 4.6875,18.75 c 0.03747,-0.02 0.08075,-0.009 0.125,0 0.460508,0.0965 1.404821,1.83759 2.25,4.40625 1.14457,-2.56761 2.406772,-4.30982 3.03125,-4.40625 0.120101,-0.0185 0.214417,0.0167 0.28125,0.125 0,0 -0.795317,9.04587 -1.6875,15.62497 -0.07809,1.4776 -0.272982,2.9189 -0.6875,4.2813 -0.338452,1.7277 -0.653223,2.7352 -0.9375,2.3437 -0.120953,0.2261 -0.267968,-0.028 -0.40625,-0.5937 -2.261201,-3.5836 -2.23665,-8.1201 -1.34375,-12.125 -0.398548,-4.92057 -0.71875,-9.53127 -0.71875,-9.53127 0.02462,-0.0542 0.05628,-0.10497 0.09375,-0.125 z"
             style="fill:#ffd42a;fill-opacity:1;fill-rule:evenodd;stroke:#beccef;stroke-width:0;stroke-linejoin:miter;stroke-miterlimit:4;stroke-opacity:1;stroke-dasharray:none" />
          <path
             inkscape:connector-curvature="0"
             id="path4016"
             d="m 50,977.45593 c -13.419326,0 -24.3125,10.86192 -24.3125,24.28127 0,13.4193 10.893174,24.3125 24.3125,24.3125 13.419326,0 24.3125,-10.8932 24.3125,-24.3125 0,-13.41935 -10.893174,-24.28127 -24.3125,-24.28127 z m 14.6875,11.25 c 0.428752,-0.26667 1.588616,1.87764 2.5625,5.0625 1.140122,-2.54673 2.378607,-4.27905 3,-4.375 0.120101,-0.0185 0.214417,0.0167 0.28125,0.125 0,0 -2.079671,23.94747 -3.3125,22.24997 -2.571518,-3.5408 -2.688133,-8.1597 -1.84375,-12.2812 -0.449445,-5.37637 -0.78125,-10.65627 -0.78125,-10.65627 0.02462,-0.0542 0.05881,-0.10327 0.09375,-0.125 z m -4.59375,0.6875 c 0.120101,-0.0185 0.214417,0.0167 0.28125,0.125 0,0 -2.079671,23.94747 -3.3125,22.24997 -5.937007,-8.1748 1.229731,-22.0968 3.03125,-22.37497 z"
             style="fill:#ffcc00;fill-opacity:1;fill-rule:evenodd;stroke:#beccef;stroke-width:0;stroke-linejoin:miter;stroke-miterlimit:4;stroke-opacity:1;stroke-dasharray:none" />
        </g>
        <path
           style="fill:url(#linearGradient4200);fill-opacity:1;fill-rule:evenodd;stroke:#beccef;stroke-width:0;stroke-linejoin:miter;stroke-miterlimit:4;stroke-opacity:1"
           d="m 34.189725,980.20306 c -5.280362,4.29304 -8.852814,9.20286 -9.723816,8.13154 -0.871002,-1.07132 1.289277,-7.71809 6.569638,-12.01112 5.280361,-4.29304 11.681241,-5.66733 12.552243,-4.59601 0.871002,1.07132 -4.117704,4.18255 -9.398065,8.47559 z"
           id="path4018"
           inkscape:connector-curvature="0"
           sodipodi:nodetypes="sssss" />
        <path
           sodipodi:type="arc"
           style="fill:url(#linearGradient4202);fill-opacity:1;fill-rule:evenodd;stroke:#beccef;stroke-width:0;stroke-linejoin:miter;stroke-miterlimit:4;stroke-opacity:1;stroke-dasharray:none"
           id="path4020"
           sodipodi:cx="32.5"
           sodipodi:cy="25"
           sodipodi:rx="2.5"
           sodipodi:ry="4.8156753"
           d="m 35,25 c 0,2.659624 -1.119288,4.815675 -2.5,4.815675 -1.380712,0 -2.5,-2.156051 -2.5,-4.815675 0,-2.659624 1.119288,-4.815675 2.5,-4.815675 1.380712,0 2.5,2.156051 2.5,4.815675 z"
           transform="matrix(1.9778604,-0.02363271,0.04819114,0.96993337,-16.302684,978.00414)" />
      </g>
      <g
         id="g4026"
         inkscape:export-filename="/Users/anivamainali/Desktop/Projects/WS/runtime-lbd2.product/Assorted/textures/candy.png"
         inkscape:export-xdpi="89.75"
         inkscape:export-ydpi="89.75"
         transform="matrix(1.2906839,0,0,1.1111112,144.47664,-111.54721)">
        <g
           transform="matrix(0.78446782,0,0,0.91124996,10.776609,89.522185)"
           id="g4028">
          <path
             sodipodi:type="arc"
             style="fill:#ffd42a;fill-opacity:1;fill-rule:evenodd;stroke:#beccef;stroke-width:0;stroke-linejoin:miter;stroke-miterlimit:4;stroke-opacity:1;stroke-dasharray:none"
             id="path4030"
             sodipodi:cx="50"
             sodipodi:cy="45"
             sodipodi:rx="40"
             sodipodi:ry="40"
             d="M 90,45 C 90,67.09139 72.09139,85 50,85 27.90861,85 10,67.09139 10,45 10,22.90861 27.90861,5 50,5 72.09139,5 90,22.90861 90,45 z"
             transform="matrix(1.2345679,0,0,1.2345679,-11.728395,946.18934)" />
          <path
             style="fill:#ffcc00;fill-opacity:1;fill-rule:evenodd;stroke:#beccef;stroke-width:0;stroke-linejoin:miter;stroke-miterlimit:4;stroke-opacity:1;stroke-dasharray:none"
             d="m 50,959.54968 c -23.301642,0 -42.1875,18.88586 -42.1875,42.18752 0,23.3016 18.885858,42.1875 42.1875,42.1875 23.301642,0 42.1875,-18.8859 42.1875,-42.1875 0,-23.30166 -18.885858,-42.18752 -42.1875,-42.18752 z m -9.4375,7.5625 c 1.53474,-0.37859 -15.03125,12.53125 -15.03125,12.53125 0,0 2.251552,-2.36745 5.21875,-5.09375 -0.177823,0.0524 -0.367697,0.0937 -0.5625,0.0937 -1.093633,0 -1.96875,-0.87512 -1.96875,-1.96875 0,-1.09363 0.875117,-2 1.96875,-2 1.092431,0 1.998302,0.87632 2,1.96875 l 0,0.0312 c 0,0.27341 -0.05605,0.51309 -0.15625,0.75 2.613341,-2.32905 5.557585,-4.72984 7.96875,-6.0625 0.273505,-0.15117 0.460184,-0.22476 0.5625,-0.25 z m -8.53125,6.3125 c -0.431071,0.38418 -0.873077,0.74996 -1.28125,1.125 0.570906,-0.16829 1.052035,-0.58307 1.28125,-1.125 z M 30.75,980.76843 c 1.53474,-0.37859 -15.03125,12.53125 -15.03125,12.53125 0,0 8.768644,-9.13077 14.46875,-12.28125 0.273505,-0.15117 0.460184,-0.22476 0.5625,-0.25 z m -1.21875,24.99997 c 0.06395,-0.016 0.09014,0 0.09375,0.031 0.0072,0.057 -0.108435,0.1945 -0.3125,0.4062 -0.0262,0.027 -0.03297,0.033 -0.0625,0.062 -0.264138,0.2665 -0.725337,0.7241 -1.21875,1.1563 -0.07653,0.067 -0.106524,0.086 -0.1875,0.1562 -0.470965,0.4094 -0.928096,0.7783 -1.53125,1.2813 -0.300074,0.2511 -0.550841,0.451 -0.875,0.7187 -0.668791,0.5514 -1.331626,1.0961 -2.0625,1.6875 -0.266353,0.2161 -0.511733,0.4075 -0.78125,0.625 -1.832542,1.4756 -3.741394,2.9912 -5.21875,4.1563 -0.08959,0.071 -0.225969,0.1817 -0.3125,0.25 -1.405513,1.1065 -2.5625,2.0312 -2.5625,2.0312 0,0 0.57441,-0.5807 1.46875,-1.4687 0.0045,0 -0.0045,-0.027 0,-0.031 0.911703,-0.9047 2.171892,-2.1312 3.625,-3.4687 1.453108,-1.3375 3.094534,-2.764 4.71875,-4.0625 1.624216,-1.2985 3.231223,-2.4624 4.65625,-3.25 0.273505,-0.1512 0.460184,-0.256 0.5625,-0.2813 z m 4.5625,9.4688 c 1.53474,-0.3786 -15.03125,12.5312 -15.03125,12.5312 0,0 8.768644,-9.1307 14.46875,-12.2812 0.273505,-0.1512 0.460184,-0.2248 0.5625,-0.25 z m 5.59375,5.25 c 1.53474,-0.3786 -15.03125,12.5312 -15.03125,12.5312 0,0 8.768644,-9.1307 14.46875,-12.2812 0.273505,-0.1512 0.460184,-0.2248 0.5625,-0.25 z"
             id="path4032"
             inkscape:connector-curvature="0" />
          <path
             style="fill:#ffd42a;fill-opacity:1;fill-rule:evenodd;stroke:#beccef;stroke-width:0;stroke-linejoin:miter;stroke-miterlimit:4;stroke-opacity:1;stroke-dasharray:none"
             d="m 50,970.64343 c -17.173669,0 -31.09375,13.92008 -31.09375,31.09377 0,0.1788 -0.003,0.3531 0,0.5312 3.029747,-2.8442 7.094533,-6.38093 10.25,-8.12497 3.031515,-1.67553 -4.945772,4.73117 -10.21875,8.90627 0.691302,16.5617 14.330837,29.7812 31.0625,29.7812 17.173669,0 31.09375,-13.9201 31.09375,-31.0937 0,-1.7411 -0.131226,-3.4619 -0.40625,-5.12502 -0.718346,6.92912 -1.829854,16.25112 -2.625,15.15622 -0.238985,-0.329 -0.458641,-0.6537 -0.65625,-1 -0.07408,0.1543 -0.138207,0.3183 -0.21875,0.4688 -0.233165,0.4357 -0.532642,-0.8349 -0.8125,-2.9375 -0.530693,-1.7693 -0.673616,-3.666 -0.5625,-5.5313 -0.584675,-6.30271 -1.0625,-13.78122 -1.0625,-13.78122 0.353926,-0.77864 1.815073,1.90176 2.90625,5.84375 0.541258,-1.35051 1.131915,-2.53007 1.6875,-3.4375 -4.262649,-12.08736 -15.797065,-20.75 -29.34375,-20.75 z m 4.6875,18.75 c 0.03747,-0.02 0.08075,-0.009 0.125,0 0.460508,0.0965 1.404821,1.83759 2.25,4.40625 1.14457,-2.56761 2.406772,-4.30982 3.03125,-4.40625 0.120101,-0.0185 0.214417,0.0167 0.28125,0.125 0,0 -0.795317,9.04587 -1.6875,15.62497 -0.07809,1.4776 -0.272982,2.9189 -0.6875,4.2813 -0.338452,1.7277 -0.653223,2.7352 -0.9375,2.3437 -0.120953,0.2261 -0.267968,-0.028 -0.40625,-0.5937 -2.261201,-3.5836 -2.23665,-8.1201 -1.34375,-12.125 -0.398548,-4.92057 -0.71875,-9.53127 -0.71875,-9.53127 0.02462,-0.0542 0.05628,-0.10497 0.09375,-0.125 z"
             id="path4034"
             inkscape:connector-curvature="0" />
          <path
             style="fill:#ffcc00;fill-opacity:1;fill-rule:evenodd;stroke:#beccef;stroke-width:0;stroke-linejoin:miter;stroke-miterlimit:4;stroke-opacity:1;stroke-dasharray:none"
             d="m 50,977.45593 c -13.419326,0 -24.3125,10.86192 -24.3125,24.28127 0,13.4193 10.893174,24.3125 24.3125,24.3125 13.419326,0 24.3125,-10.8932 24.3125,-24.3125 0,-13.41935 -10.893174,-24.28127 -24.3125,-24.28127 z m 14.6875,11.25 c 0.428752,-0.26667 1.588616,1.87764 2.5625,5.0625 1.140122,-2.54673 2.378607,-4.27905 3,-4.375 0.120101,-0.0185 0.214417,0.0167 0.28125,0.125 0,0 -2.079671,23.94747 -3.3125,22.24997 -2.571518,-3.5408 -2.688133,-8.1597 -1.84375,-12.2812 -0.449445,-5.37637 -0.78125,-10.65627 -0.78125,-10.65627 0.02462,-0.0542 0.05881,-0.10327 0.09375,-0.125 z m -4.59375,0.6875 c 0.120101,-0.0185 0.214417,0.0167 0.28125,0.125 0,0 -2.079671,23.94747 -3.3125,22.24997 -5.937007,-8.1748 1.229731,-22.0968 3.03125,-22.37497 z"
             id="path4036"
             inkscape:connector-curvature="0" />
        </g>
        <path
           sodipodi:nodetypes="sssss"
           inkscape:connector-curvature="0"
           id="path4038"
           d="m 34.189725,980.20306 c -5.280362,4.29304 -8.852814,9.20286 -9.723816,8.13154 -0.871002,-1.07132 1.289277,-7.71809 6.569638,-12.01112 5.280361,-4.29304 11.681241,-5.66733 12.552243,-4.59601 0.871002,1.07132 -4.117704,4.18255 -9.398065,8.47559 z"
           style="fill:url(#linearGradient4204);fill-opacity:1;fill-rule:evenodd;stroke:#beccef;stroke-width:0;stroke-linejoin:miter;stroke-miterlimit:4;stroke-opacity:1" />
        <path
           transform="matrix(1.9778604,-0.02363271,0.04819114,0.96993337,-16.302684,978.00414)"
           d="m 35,25 c 0,2.659624 -1.119288,4.815675 -2.5,4.815675 -1.380712,0 -2.5,-2.156051 -2.5,-4.815675 0,-2.659624 1.119288,-4.815675 2.5,-4.815675 1.380712,0 2.5,2.156051 2.5,4.815675 z"
           sodipodi:ry="4.8156753"
           sodipodi:rx="2.5"
           sodipodi:cy="25"
           sodipodi:cx="32.5"
           id="path4040"
           style="fill:url(#linearGradient4206);fill-opacity:1;fill-rule:evenodd;stroke:#beccef;stroke-width:0;stroke-linejoin:miter;stroke-miterlimit:4;stroke-opacity:1;stroke-dasharray:none"
           sodipodi:type="arc" />
      </g>
      <g
         transform="matrix(1.2906839,0,0,1.1111112,244.47664,-111.54721)"
         inkscape:export-ydpi="89.75"
         inkscape:export-xdpi="89.75"
         inkscape:export-filename="/Users/anivamainali/Desktop/Projects/WS/runtime-lbd2.product/Assorted/textures/candy.png"
         id="g4046">
        <g
           id="g4048"
           transform="matrix(0.78446782,0,0,0.91124996,10.776609,89.522185)">
          <path
             transform="matrix(1.2345679,0,0,1.2345679,-11.728395,946.18934)"
             d="M 90,45 C 90,67.09139 72.09139,85 50,85 27.90861,85 10,67.09139 10,45 10,22.90861 27.90861,5 50,5 72.09139,5 90,22.90861 90,45 z"
             sodipodi:ry="40"
             sodipodi:rx="40"
             sodipodi:cy="45"
             sodipodi:cx="50"
             id="path4050"
             style="fill:#ffd42a;fill-opacity:1;fill-rule:evenodd;stroke:#beccef;stroke-width:0;stroke-linejoin:miter;stroke-miterlimit:4;stroke-opacity:1;stroke-dasharray:none"
             sodipodi:type="arc" />
          <path
             inkscape:connector-curvature="0"
             id="path4052"
             d="m 50,959.54968 c -23.301642,0 -42.1875,18.88586 -42.1875,42.18752 0,23.3016 18.885858,42.1875 42.1875,42.1875 23.301642,0 42.1875,-18.8859 42.1875,-42.1875 0,-23.30166 -18.885858,-42.18752 -42.1875,-42.18752 z m -9.4375,7.5625 c 1.53474,-0.37859 -15.03125,12.53125 -15.03125,12.53125 0,0 2.251552,-2.36745 5.21875,-5.09375 -0.177823,0.0524 -0.367697,0.0937 -0.5625,0.0937 -1.093633,0 -1.96875,-0.87512 -1.96875,-1.96875 0,-1.09363 0.875117,-2 1.96875,-2 1.092431,0 1.998302,0.87632 2,1.96875 l 0,0.0312 c 0,0.27341 -0.05605,0.51309 -0.15625,0.75 2.613341,-2.32905 5.557585,-4.72984 7.96875,-6.0625 0.273505,-0.15117 0.460184,-0.22476 0.5625,-0.25 z m -8.53125,6.3125 c -0.431071,0.38418 -0.873077,0.74996 -1.28125,1.125 0.570906,-0.16829 1.052035,-0.58307 1.28125,-1.125 z M 30.75,980.76843 c 1.53474,-0.37859 -15.03125,12.53125 -15.03125,12.53125 0,0 8.768644,-9.13077 14.46875,-12.28125 0.273505,-0.15117 0.460184,-0.22476 0.5625,-0.25 z m -1.21875,24.99997 c 0.06395,-0.016 0.09014,0 0.09375,0.031 0.0072,0.057 -0.108435,0.1945 -0.3125,0.4062 -0.0262,0.027 -0.03297,0.033 -0.0625,0.062 -0.264138,0.2665 -0.725337,0.7241 -1.21875,1.1563 -0.07653,0.067 -0.106524,0.086 -0.1875,0.1562 -0.470965,0.4094 -0.928096,0.7783 -1.53125,1.2813 -0.300074,0.2511 -0.550841,0.451 -0.875,0.7187 -0.668791,0.5514 -1.331626,1.0961 -2.0625,1.6875 -0.266353,0.2161 -0.511733,0.4075 -0.78125,0.625 -1.832542,1.4756 -3.741394,2.9912 -5.21875,4.1563 -0.08959,0.071 -0.225969,0.1817 -0.3125,0.25 -1.405513,1.1065 -2.5625,2.0312 -2.5625,2.0312 0,0 0.57441,-0.5807 1.46875,-1.4687 0.0045,0 -0.0045,-0.027 0,-0.031 0.911703,-0.9047 2.171892,-2.1312 3.625,-3.4687 1.453108,-1.3375 3.094534,-2.764 4.71875,-4.0625 1.624216,-1.2985 3.231223,-2.4624 4.65625,-3.25 0.273505,-0.1512 0.460184,-0.256 0.5625,-0.2813 z m 4.5625,9.4688 c 1.53474,-0.3786 -15.03125,12.5312 -15.03125,12.5312 0,0 8.768644,-9.1307 14.46875,-12.2812 0.273505,-0.1512 0.460184,-0.2248 0.5625,-0.25 z m 5.59375,5.25 c 1.53474,-0.3786 -15.03125,12.5312 -15.03125,12.5312 0,0 8.768644,-9.1307 14.46875,-12.2812 0.273505,-0.1512 0.460184,-0.2248 0.5625,-0.25 z"
             style="fill:#ffcc00;fill-opacity:1;fill-rule:evenodd;stroke:#beccef;stroke-width:0;stroke-linejoin:miter;stroke-miterlimit:4;stroke-opacity:1;stroke-dasharray:none" />
          <path
             inkscape:connector-curvature="0"
             id="path4054"
             d="m 50,970.64343 c -17.173669,0 -31.09375,13.92008 -31.09375,31.09377 0,0.1788 -0.003,0.3531 0,0.5312 3.029747,-2.8442 7.094533,-6.38093 10.25,-8.12497 3.031515,-1.67553 -4.945772,4.73117 -10.21875,8.90627 0.691302,16.5617 14.330837,29.7812 31.0625,29.7812 17.173669,0 31.09375,-13.9201 31.09375,-31.0937 0,-1.7411 -0.131226,-3.4619 -0.40625,-5.12502 -0.718346,6.92912 -1.829854,16.25112 -2.625,15.15622 -0.238985,-0.329 -0.458641,-0.6537 -0.65625,-1 -0.07408,0.1543 -0.138207,0.3183 -0.21875,0.4688 -0.233165,0.4357 -0.532642,-0.8349 -0.8125,-2.9375 -0.530693,-1.7693 -0.673616,-3.666 -0.5625,-5.5313 -0.584675,-6.30271 -1.0625,-13.78122 -1.0625,-13.78122 0.353926,-0.77864 1.815073,1.90176 2.90625,5.84375 0.541258,-1.35051 1.131915,-2.53007 1.6875,-3.4375 -4.262649,-12.08736 -15.797065,-20.75 -29.34375,-20.75 z m 4.6875,18.75 c 0.03747,-0.02 0.08075,-0.009 0.125,0 0.460508,0.0965 1.404821,1.83759 2.25,4.40625 1.14457,-2.56761 2.406772,-4.30982 3.03125,-4.40625 0.120101,-0.0185 0.214417,0.0167 0.28125,0.125 0,0 -0.795317,9.04587 -1.6875,15.62497 -0.07809,1.4776 -0.272982,2.9189 -0.6875,4.2813 -0.338452,1.7277 -0.653223,2.7352 -0.9375,2.3437 -0.120953,0.2261 -0.267968,-0.028 -0.40625,-0.5937 -2.261201,-3.5836 -2.23665,-8.1201 -1.34375,-12.125 -0.398548,-4.92057 -0.71875,-9.53127 -0.71875,-9.53127 0.02462,-0.0542 0.05628,-0.10497 0.09375,-0.125 z"
             style="fill:#ffd42a;fill-opacity:1;fill-rule:evenodd;stroke:#beccef;stroke-width:0;stroke-linejoin:miter;stroke-miterlimit:4;stroke-opacity:1;stroke-dasharray:none" />
          <path
             inkscape:connector-curvature="0"
             id="path4056"
             d="m 50,977.45593 c -13.419326,0 -24.3125,10.86192 -24.3125,24.28127 0,13.4193 10.893174,24.3125 24.3125,24.3125 13.419326,0 24.3125,-10.8932 24.3125,-24.3125 0,-13.41935 -10.893174,-24.28127 -24.3125,-24.28127 z m 14.6875,11.25 c 0.428752,-0.26667 1.588616,1.87764 2.5625,5.0625 1.140122,-2.54673 2.378607,-4.27905 3,-4.375 0.120101,-0.0185 0.214417,0.0167 0.28125,0.125 0,0 -2.079671,23.94747 -3.3125,22.24997 -2.571518,-3.5408 -2.688133,-8.1597 -1.84375,-12.2812 -0.449445,-5.37637 -0.78125,-10.65627 -0.78125,-10.65627 0.02462,-0.0542 0.05881,-0.10327 0.09375,-0.125 z m -4.59375,0.6875 c 0.120101,-0.0185 0.214417,0.0167 0.28125,0.125 0,0 -2.079671,23.94747 -3.3125,22.24997 -5.937007,-8.1748 1.229731,-22.0968 3.03125,-22.37497 z"
             style="fill:#ffcc00;fill-opacity:1;fill-rule:evenodd;stroke:#beccef;stroke-width:0;stroke-linejoin:miter;stroke-miterlimit:4;stroke-opacity:1;stroke-dasharray:none" />
        </g>
        <path
           style="fill:url(#linearGradient4208);fill-opacity:1;fill-rule:evenodd;stroke:#beccef;stroke-width:0;stroke-linejoin:miter;stroke-miterlimit:4;stroke-opacity:1"
           d="m 34.189725,980.20306 c -5.280362,4.29304 -8.852814,9.20286 -9.723816,8.13154 -0.871002,-1.07132 1.289277,-7.71809 6.569638,-12.01112 5.280361,-4.29304 11.681241,-5.66733 12.552243,-4.59601 0.871002,1.07132 -4.117704,4.18255 -9.398065,8.47559 z"
           id="path4058"
           inkscape:connector-curvature="0"
           sodipodi:nodetypes="sssss" />
        <path
           sodipodi:type="arc"
           style="fill:url(#linearGradient4210);fill-opacity:1;fill-rule:evenodd;stroke:#beccef;stroke-width:0;stroke-linejoin:miter;stroke-miterlimit:4;stroke-opacity:1;stroke-dasharray:none"
           id="path4060"
           sodipodi:cx="32.5"
           sodipodi:cy="25"
           sodipodi:rx="2.5"
           sodipodi:ry="4.8156753"
           d="m 35,25 c 0,2.659624 -1.119288,4.815675 -2.5,4.815675 -1.380712,0 -2.5,-2.156051 -2.5,-4.815675 0,-2.659624 1.119288,-4.815675 2.5,-4.815675 1.380712,0 2.5,2.156051 2.5,4.815675 z"
           transform="matrix(1.9778604,-0.02363271,0.04819114,0.96993337,-16.302684,978.00414)" />
      </g>
      <g
         id="g4066"
         inkscape:export-filename="/Users/anivamainali/Desktop/Projects/WS/runtime-lbd2.product/Assorted/textures/candy.png"
         inkscape:export-xdpi="89.75"
         inkscape:export-ydpi="89.75"
         transform="matrix(1.2906839,0,0,1.1111112,344.47664,-111.54721)">
        <g
           transform="matrix(0.78446782,0,0,0.91124996,10.776609,89.522185)"
           id="g4068">
          <path
             sodipodi:type="arc"
             style="fill:#ffd42a;fill-opacity:1;fill-rule:evenodd;stroke:#beccef;stroke-width:0;stroke-linejoin:miter;stroke-miterlimit:4;stroke-opacity:1;stroke-dasharray:none"
             id="path4070"
             sodipodi:cx="50"
             sodipodi:cy="45"
             sodipodi:rx="40"
             sodipodi:ry="40"
             d="M 90,45 C 90,67.09139 72.09139,85 50,85 27.90861,85 10,67.09139 10,45 10,22.90861 27.90861,5 50,5 72.09139,5 90,22.90861 90,45 z"
             transform="matrix(1.2345679,0,0,1.2345679,-11.728395,946.18934)" />
          <path
             style="fill:#ffcc00;fill-opacity:1;fill-rule:evenodd;stroke:#beccef;stroke-width:0;stroke-linejoin:miter;stroke-miterlimit:4;stroke-opacity:1;stroke-dasharray:none"
             d="m 50,959.54968 c -23.301642,0 -42.1875,18.88586 -42.1875,42.18752 0,23.3016 18.885858,42.1875 42.1875,42.1875 23.301642,0 42.1875,-18.8859 42.1875,-42.1875 0,-23.30166 -18.885858,-42.18752 -42.1875,-42.18752 z m -9.4375,7.5625 c 1.53474,-0.37859 -15.03125,12.53125 -15.03125,12.53125 0,0 2.251552,-2.36745 5.21875,-5.09375 -0.177823,0.0524 -0.367697,0.0937 -0.5625,0.0937 -1.093633,0 -1.96875,-0.87512 -1.96875,-1.96875 0,-1.09363 0.875117,-2 1.96875,-2 1.092431,0 1.998302,0.87632 2,1.96875 l 0,0.0312 c 0,0.27341 -0.05605,0.51309 -0.15625,0.75 2.613341,-2.32905 5.557585,-4.72984 7.96875,-6.0625 0.273505,-0.15117 0.460184,-0.22476 0.5625,-0.25 z m -8.53125,6.3125 c -0.431071,0.38418 -0.873077,0.74996 -1.28125,1.125 0.570906,-0.16829 1.052035,-0.58307 1.28125,-1.125 z M 30.75,980.76843 c 1.53474,-0.37859 -15.03125,12.53125 -15.03125,12.53125 0,0 8.768644,-9.13077 14.46875,-12.28125 0.273505,-0.15117 0.460184,-0.22476 0.5625,-0.25 z m -1.21875,24.99997 c 0.06395,-0.016 0.09014,0 0.09375,0.031 0.0072,0.057 -0.108435,0.1945 -0.3125,0.4062 -0.0262,0.027 -0.03297,0.033 -0.0625,0.062 -0.264138,0.2665 -0.725337,0.7241 -1.21875,1.1563 -0.07653,0.067 -0.106524,0.086 -0.1875,0.1562 -0.470965,0.4094 -0.928096,0.7783 -1.53125,1.2813 -0.300074,0.2511 -0.550841,0.451 -0.875,0.7187 -0.668791,0.5514 -1.331626,1.0961 -2.0625,1.6875 -0.266353,0.2161 -0.511733,0.4075 -0.78125,0.625 -1.832542,1.4756 -3.741394,2.9912 -5.21875,4.1563 -0.08959,0.071 -0.225969,0.1817 -0.3125,0.25 -1.405513,1.1065 -2.5625,2.0312 -2.5625,2.0312 0,0 0.57441,-0.5807 1.46875,-1.4687 0.0045,0 -0.0045,-0.027 0,-0.031 0.911703,-0.9047 2.171892,-2.1312 3.625,-3.4687 1.453108,-1.3375 3.094534,-2.764 4.71875,-4.0625 1.624216,-1.2985 3.231223,-2.4624 4.65625,-3.25 0.273505,-0.1512 0.460184,-0.256 0.5625,-0.2813 z m 4.5625,9.4688 c 1.53474,-0.3786 -15.03125,12.5312 -15.03125,12.5312 0,0 8.768644,-9.1307 14.46875,-12.2812 0.273505,-0.1512 0.460184,-0.2248 0.5625,-0.25 z m 5.59375,5.25 c 1.53474,-0.3786 -15.03125,12.5312 -15.03125,12.5312 0,0 8.768644,-9.1307 14.46875,-12.2812 0.273505,-0.1512 0.460184,-0.2248 0.5625,-0.25 z"
             id="path4072"
             inkscape:connector-curvature="0" />
          <path
             style="fill:#ffd42a;fill-opacity:1;fill-rule:evenodd;stroke:#beccef;stroke-width:0;stroke-linejoin:miter;stroke-miterlimit:4;stroke-opacity:1;stroke-dasharray:none"
             d="m 50,970.64343 c -17.173669,0 -31.09375,13.92008 -31.09375,31.09377 0,0.1788 -0.003,0.3531 0,0.5312 3.029747,-2.8442 7.094533,-6.38093 10.25,-8.12497 3.031515,-1.67553 -4.945772,4.73117 -10.21875,8.90627 0.691302,16.5617 14.330837,29.7812 31.0625,29.7812 17.173669,0 31.09375,-13.9201 31.09375,-31.0937 0,-1.7411 -0.131226,-3.4619 -0.40625,-5.12502 -0.718346,6.92912 -1.829854,16.25112 -2.625,15.15622 -0.238985,-0.329 -0.458641,-0.6537 -0.65625,-1 -0.07408,0.1543 -0.138207,0.3183 -0.21875,0.4688 -0.233165,0.4357 -0.532642,-0.8349 -0.8125,-2.9375 -0.530693,-1.7693 -0.673616,-3.666 -0.5625,-5.5313 -0.584675,-6.30271 -1.0625,-13.78122 -1.0625,-13.78122 0.353926,-0.77864 1.815073,1.90176 2.90625,5.84375 0.541258,-1.35051 1.131915,-2.53007 1.6875,-3.4375 -4.262649,-12.08736 -15.797065,-20.75 -29.34375,-20.75 z m 4.6875,18.75 c 0.03747,-0.02 0.08075,-0.009 0.125,0 0.460508,0.0965 1.404821,1.83759 2.25,4.40625 1.14457,-2.56761 2.406772,-4.30982 3.03125,-4.40625 0.120101,-0.0185 0.214417,0.0167 0.28125,0.125 0,0 -0.795317,9.04587 -1.6875,15.62497 -0.07809,1.4776 -0.272982,2.9189 -0.6875,4.2813 -0.338452,1.7277 -0.653223,2.7352 -0.9375,2.3437 -0.120953,0.2261 -0.267968,-0.028 -0.40625,-0.5937 -2.261201,-3.5836 -2.23665,-8.1201 -1.34375,-12.125 -0.398548,-4.92057 -0.71875,-9.53127 -0.71875,-9.53127 0.02462,-0.0542 0.05628,-0.10497 0.09375,-0.125 z"
             id="path4074"
             inkscape:connector-curvature="0" />
          <path
             style="fill:#ffcc00;fill-opacity:1;fill-rule:evenodd;stroke:#beccef;stroke-width:0;stroke-linejoin:miter;stroke-miterlimit:4;stroke-opacity:1;stroke-dasharray:none"
             d="m 50,977.45593 c -13.419326,0 -24.3125,10.86192 -24.3125,24.28127 0,13.4193 10.893174,24.3125 24.3125,24.3125 13.419326,0 24.3125,-10.8932 24.3125,-24.3125 0,-13.41935 -10.893174,-24.28127 -24.3125,-24.28127 z m 14.6875,11.25 c 0.428752,-0.26667 1.588616,1.87764 2.5625,5.0625 1.140122,-2.54673 2.378607,-4.27905 3,-4.375 0.120101,-0.0185 0.214417,0.0167 0.28125,0.125 0,0 -2.079671,23.94747 -3.3125,22.24997 -2.571518,-3.5408 -2.688133,-8.1597 -1.84375,-12.2812 -0.449445,-5.37637 -0.78125,-10.65627 -0.78125,-10.65627 0.02462,-0.0542 0.05881,-0.10327 0.09375,-0.125 z m -4.59375,0.6875 c 0.120101,-0.0185 0.214417,0.0167 0.28125,0.125 0,0 -2.079671,23.94747 -3.3125,22.24997 -5.937007,-8.1748 1.229731,-22.0968 3.03125,-22.37497 z"
             id="path4076"
             inkscape:connector-curvature="0" />
        </g>
        <path
           sodipodi:nodetypes="sssss"
           inkscape:connector-curvature="0"
           id="path4078"
           d="m 34.189725,980.20306 c -5.280362,4.29304 -8.852814,9.20286 -9.723816,8.13154 -0.871002,-1.07132 1.289277,-7.71809 6.569638,-12.01112 5.280361,-4.29304 11.681241,-5.66733 12.552243,-4.59601 0.871002,1.07132 -4.117704,4.18255 -9.398065,8.47559 z"
           style="fill:url(#linearGradient4212);fill-opacity:1;fill-rule:evenodd;stroke:#beccef;stroke-width:0;stroke-linejoin:miter;stroke-miterlimit:4;stroke-opacity:1" />
        <path
           transform="matrix(1.9778604,-0.02363271,0.04819114,0.96993337,-16.302684,978.00414)"
           d="m 35,25 c 0,2.659624 -1.119288,4.815675 -2.5,4.815675 -1.380712,0 -2.5,-2.156051 -2.5,-4.815675 0,-2.659624 1.119288,-4.815675 2.5,-4.815675 1.380712,0 2.5,2.156051 2.5,4.815675 z"
           sodipodi:ry="4.8156753"
           sodipodi:rx="2.5"
           sodipodi:cy="25"
           sodipodi:cx="32.5"
           id="path4080"
           style="fill:url(#linearGradient4214);fill-opacity:1;fill-rule:evenodd;stroke:#beccef;stroke-width:0;stroke-linejoin:miter;stroke-miterlimit:4;stroke-opacity:1;stroke-dasharray:none"
           sodipodi:type="arc" />
      </g>
      <g
         transform="matrix(1.2906839,0,0,1.1111112,444.47664,-111.54721)"
         inkscape:export-ydpi="89.75"
         inkscape:export-xdpi="89.75"
         inkscape:export-filename="/Users/anivamainali/Desktop/Projects/WS/runtime-lbd2.product/Assorted/textures/candy.png"
         id="g4086">
        <g
           id="g4088"
           transform="matrix(0.78446782,0,0,0.91124996,10.776609,89.522185)">
          <path
             transform="matrix(1.2345679,0,0,1.2345679,-11.728395,946.18934)"
             d="M 90,45 C 90,67.09139 72.09139,85 50,85 27.90861,85 10,67.09139 10,45 10,22.90861 27.90861,5 50,5 72.09139,5 90,22.90861 90,45 z"
             sodipodi:ry="40"
             sodipodi:rx="40"
             sodipodi:cy="45"
             sodipodi:cx="50"
             id="path4090"
             style="fill:#ffd42a;fill-opacity:1;fill-rule:evenodd;stroke:#beccef;stroke-width:0;stroke-linejoin:miter;stroke-miterlimit:4;stroke-opacity:1;stroke-dasharray:none"
             sodipodi:type="arc" />
          <path
             inkscape:connector-curvature="0"
             id="path4092"
             d="m 50,959.54968 c -23.301642,0 -42.1875,18.88586 -42.1875,42.18752 0,23.3016 18.885858,42.1875 42.1875,42.1875 23.301642,0 42.1875,-18.8859 42.1875,-42.1875 0,-23.30166 -18.885858,-42.18752 -42.1875,-42.18752 z m -9.4375,7.5625 c 1.53474,-0.37859 -15.03125,12.53125 -15.03125,12.53125 0,0 2.251552,-2.36745 5.21875,-5.09375 -0.177823,0.0524 -0.367697,0.0937 -0.5625,0.0937 -1.093633,0 -1.96875,-0.87512 -1.96875,-1.96875 0,-1.09363 0.875117,-2 1.96875,-2 1.092431,0 1.998302,0.87632 2,1.96875 l 0,0.0312 c 0,0.27341 -0.05605,0.51309 -0.15625,0.75 2.613341,-2.32905 5.557585,-4.72984 7.96875,-6.0625 0.273505,-0.15117 0.460184,-0.22476 0.5625,-0.25 z m -8.53125,6.3125 c -0.431071,0.38418 -0.873077,0.74996 -1.28125,1.125 0.570906,-0.16829 1.052035,-0.58307 1.28125,-1.125 z M 30.75,980.76843 c 1.53474,-0.37859 -15.03125,12.53125 -15.03125,12.53125 0,0 8.768644,-9.13077 14.46875,-12.28125 0.273505,-0.15117 0.460184,-0.22476 0.5625,-0.25 z m -1.21875,24.99997 c 0.06395,-0.016 0.09014,0 0.09375,0.031 0.0072,0.057 -0.108435,0.1945 -0.3125,0.4062 -0.0262,0.027 -0.03297,0.033 -0.0625,0.062 -0.264138,0.2665 -0.725337,0.7241 -1.21875,1.1563 -0.07653,0.067 -0.106524,0.086 -0.1875,0.1562 -0.470965,0.4094 -0.928096,0.7783 -1.53125,1.2813 -0.300074,0.2511 -0.550841,0.451 -0.875,0.7187 -0.668791,0.5514 -1.331626,1.0961 -2.0625,1.6875 -0.266353,0.2161 -0.511733,0.4075 -0.78125,0.625 -1.832542,1.4756 -3.741394,2.9912 -5.21875,4.1563 -0.08959,0.071 -0.225969,0.1817 -0.3125,0.25 -1.405513,1.1065 -2.5625,2.0312 -2.5625,2.0312 0,0 0.57441,-0.5807 1.46875,-1.4687 0.0045,0 -0.0045,-0.027 0,-0.031 0.911703,-0.9047 2.171892,-2.1312 3.625,-3.4687 1.453108,-1.3375 3.094534,-2.764 4.71875,-4.0625 1.624216,-1.2985 3.231223,-2.4624 4.65625,-3.25 0.273505,-0.1512 0.460184,-0.256 0.5625,-0.2813 z m 4.5625,9.4688 c 1.53474,-0.3786 -15.03125,12.5312 -15.03125,12.5312 0,0 8.768644,-9.1307 14.46875,-12.2812 0.273505,-0.1512 0.460184,-0.2248 0.5625,-0.25 z m 5.59375,5.25 c 1.53474,-0.3786 -15.03125,12.5312 -15.03125,12.5312 0,0 8.768644,-9.1307 14.46875,-12.2812 0.273505,-0.1512 0.460184,-0.2248 0.5625,-0.25 z"
             style="fill:#ffcc00;fill-opacity:1;fill-rule:evenodd;stroke:#beccef;stroke-width:0;stroke-linejoin:miter;stroke-miterlimit:4;stroke-opacity:1;stroke-dasharray:none" />
          <path
             inkscape:connector-curvature="0"
             id="path4094"
             d="m 50,970.64343 c -17.173669,0 -31.09375,13.92008 -31.09375,31.09377 0,0.1788 -0.003,0.3531 0,0.5312 3.029747,-2.8442 7.094533,-6.38093 10.25,-8.12497 3.031515,-1.67553 -4.945772,4.73117 -10.21875,8.90627 0.691302,16.5617 14.330837,29.7812 31.0625,29.7812 17.173669,0 31.09375,-13.9201 31.09375,-31.0937 0,-1.7411 -0.131226,-3.4619 -0.40625,-5.12502 -0.718346,6.92912 -1.829854,16.25112 -2.625,15.15622 -0.238985,-0.329 -0.458641,-0.6537 -0.65625,-1 -0.07408,0.1543 -0.138207,0.3183 -0.21875,0.4688 -0.233165,0.4357 -0.532642,-0.8349 -0.8125,-2.9375 -0.530693,-1.7693 -0.673616,-3.666 -0.5625,-5.5313 -0.584675,-6.30271 -1.0625,-13.78122 -1.0625,-13.78122 0.353926,-0.77864 1.815073,1.90176 2.90625,5.84375 0.541258,-1.35051 1.131915,-2.53007 1.6875,-3.4375 -4.262649,-12.08736 -15.797065,-20.75 -29.34375,-20.75 z m 4.6875,18.75 c 0.03747,-0.02 0.08075,-0.009 0.125,0 0.460508,0.0965 1.404821,1.83759 2.25,4.40625 1.14457,-2.56761 2.406772,-4.30982 3.03125,-4.40625 0.120101,-0.0185 0.214417,0.0167 0.28125,0.125 0,0 -0.795317,9.04587 -1.6875,15.62497 -0.07809,1.4776 -0.272982,2.9189 -0.6875,4.2813 -0.338452,1.7277 -0.653223,2.7352 -0.9375,2.3437 -0.120953,0.2261 -0.267968,-0.028 -0.40625,-0.5937 -2.261201,-3.5836 -2.23665,-8.1201 -1.34375,-12.125 -0.398548,-4.92057 -0.71875,-9.53127 -0.71875,-9.53127 0.02462,-0.0542 0.05628,-0.10497 0.09375,-0.125 z"
             style="fill:#ffd42a;fill-opacity:1;fill-rule:evenodd;stroke:#beccef;stroke-width:0;stroke-linejoin:miter;stroke-miterlimit:4;stroke-opacity:1;stroke-dasharray:none" />
          <path
             inkscape:connector-curvature="0"
             id="path4096"
             d="m 50,977.45593 c -13.419326,0 -24.3125,10.86192 -24.3125,24.28127 0,13.4193 10.893174,24.3125 24.3125,24.3125 13.419326,0 24.3125,-10.8932 24.3125,-24.3125 0,-13.41935 -10.893174,-24.28127 -24.3125,-24.28127 z m 14.6875,11.25 c 0.428752,-0.26667 1.588616,1.87764 2.5625,5.0625 1.140122,-2.54673 2.378607,-4.27905 3,-4.375 0.120101,-0.0185 0.214417,0.0167 0.28125,0.125 0,0 -2.079671,23.94747 -3.3125,22.24997 -2.571518,-3.5408 -2.688133,-8.1597 -1.84375,-12.2812 -0.449445,-5.37637 -0.78125,-10.65627 -0.78125,-10.65627 0.02462,-0.0542 0.05881,-0.10327 0.09375,-0.125 z m -4.59375,0.6875 c 0.120101,-0.0185 0.214417,0.0167 0.28125,0.125 0,0 -2.079671,23.94747 -3.3125,22.24997 -5.937007,-8.1748 1.229731,-22.0968 3.03125,-22.37497 z"
             style="fill:#ffcc00;fill-opacity:1;fill-rule:evenodd;stroke:#beccef;stroke-width:0;stroke-linejoin:miter;stroke-miterlimit:4;stroke-opacity:1;stroke-dasharray:none" />
        </g>
        <path
           style="fill:url(#linearGradient4216);fill-opacity:1;fill-rule:evenodd;stroke:#beccef;stroke-width:0;stroke-linejoin:miter;stroke-miterlimit:4;stroke-opacity:1"
           d="m 34.189725,980.20306 c -5.280362,4.29304 -8.852814,9.20286 -9.723816,8.13154 -0.871002,-1.07132 1.289277,-7.71809 6.569638,-12.01112 5.280361,-4.29304 11.681241,-5.66733 12.552243,-4.59601 0.871002,1.07132 -4.117704,4.18255 -9.398065,8.47559 z"
           id="path4098"
           inkscape:connector-curvature="0"
           sodipodi:nodetypes="sssss" />
        <path
           sodipodi:type="arc"
           style="fill:url(#linearGradient4218);fill-opacity:1;fill-rule:evenodd;stroke:#beccef;stroke-width:0;stroke-linejoin:miter;stroke-miterlimit:4;stroke-opacity:1;stroke-dasharray:none"
           id="path4100"
           sodipodi:cx="32.5"
           sodipodi:cy="25"
           sodipodi:rx="2.5"
           sodipodi:ry="4.8156753"
           d="m 35,25 c 0,2.659624 -1.119288,4.815675 -2.5,4.815675 -1.380712,0 -2.5,-2.156051 -2.5,-4.815675 0,-2.659624 1.119288,-4.815675 2.5,-4.815675 1.380712,0 2.5,2.156051 2.5,4.815675 z"
           transform="matrix(1.9778604,-0.02363271,0.04819114,0.96993337,-16.302684,978.00414)" />
      </g>
      <g
         id="g4106"
         inkscape:export-filename="/Users/anivamainali/Desktop/Projects/WS/runtime-lbd2.product/Assorted/textures/candy.png"
         inkscape:export-xdpi="89.75"
         inkscape:export-ydpi="89.75"
         transform="matrix(1.2906839,0,0,1.1111112,544.47664,-111.54721)">
        <g
           transform="matrix(0.78446782,0,0,0.91124996,10.776609,89.522185)"
           id="g4108">
          <path
             sodipodi:type="arc"
             style="fill:#ffd42a;fill-opacity:1;fill-rule:evenodd;stroke:#beccef;stroke-width:0;stroke-linejoin:miter;stroke-miterlimit:4;stroke-opacity:1;stroke-dasharray:none"
             id="path4110"
             sodipodi:cx="50"
             sodipodi:cy="45"
             sodipodi:rx="40"
             sodipodi:ry="40"
             d="M 90,45 C 90,67.09139 72.09139,85 50,85 27.90861,85 10,67.09139 10,45 10,22.90861 27.90861,5 50,5 72.09139,5 90,22.90861 90,45 z"
             transform="matrix(1.2345679,0,0,1.2345679,-11.728395,946.18934)" />
          <path
             style="fill:#ffcc00;fill-opacity:1;fill-rule:evenodd;stroke:#beccef;stroke-width:0;stroke-linejoin:miter;stroke-miterlimit:4;stroke-opacity:1;stroke-dasharray:none"
             d="m 50,959.54968 c -23.301642,0 -42.1875,18.88586 -42.1875,42.18752 0,23.3016 18.885858,42.1875 42.1875,42.1875 23.301642,0 42.1875,-18.8859 42.1875,-42.1875 0,-23.30166 -18.885858,-42.18752 -42.1875,-42.18752 z m -9.4375,7.5625 c 1.53474,-0.37859 -15.03125,12.53125 -15.03125,12.53125 0,0 2.251552,-2.36745 5.21875,-5.09375 -0.177823,0.0524 -0.367697,0.0937 -0.5625,0.0937 -1.093633,0 -1.96875,-0.87512 -1.96875,-1.96875 0,-1.09363 0.875117,-2 1.96875,-2 1.092431,0 1.998302,0.87632 2,1.96875 l 0,0.0312 c 0,0.27341 -0.05605,0.51309 -0.15625,0.75 2.613341,-2.32905 5.557585,-4.72984 7.96875,-6.0625 0.273505,-0.15117 0.460184,-0.22476 0.5625,-0.25 z m -8.53125,6.3125 c -0.431071,0.38418 -0.873077,0.74996 -1.28125,1.125 0.570906,-0.16829 1.052035,-0.58307 1.28125,-1.125 z M 30.75,980.76843 c 1.53474,-0.37859 -15.03125,12.53125 -15.03125,12.53125 0,0 8.768644,-9.13077 14.46875,-12.28125 0.273505,-0.15117 0.460184,-0.22476 0.5625,-0.25 z m -1.21875,24.99997 c 0.06395,-0.016 0.09014,0 0.09375,0.031 0.0072,0.057 -0.108435,0.1945 -0.3125,0.4062 -0.0262,0.027 -0.03297,0.033 -0.0625,0.062 -0.264138,0.2665 -0.725337,0.7241 -1.21875,1.1563 -0.07653,0.067 -0.106524,0.086 -0.1875,0.1562 -0.470965,0.4094 -0.928096,0.7783 -1.53125,1.2813 -0.300074,0.2511 -0.550841,0.451 -0.875,0.7187 -0.668791,0.5514 -1.331626,1.0961 -2.0625,1.6875 -0.266353,0.2161 -0.511733,0.4075 -0.78125,0.625 -1.832542,1.4756 -3.741394,2.9912 -5.21875,4.1563 -0.08959,0.071 -0.225969,0.1817 -0.3125,0.25 -1.405513,1.1065 -2.5625,2.0312 -2.5625,2.0312 0,0 0.57441,-0.5807 1.46875,-1.4687 0.0045,0 -0.0045,-0.027 0,-0.031 0.911703,-0.9047 2.171892,-2.1312 3.625,-3.4687 1.453108,-1.3375 3.094534,-2.764 4.71875,-4.0625 1.624216,-1.2985 3.231223,-2.4624 4.65625,-3.25 0.273505,-0.1512 0.460184,-0.256 0.5625,-0.2813 z m 4.5625,9.4688 c 1.53474,-0.3786 -15.03125,12.5312 -15.03125,12.5312 0,0 8.768644,-9.1307 14.46875,-12.2812 0.273505,-0.1512 0.460184,-0.2248 0.5625,-0.25 z m 5.59375,5.25 c 1.53474,-0.3786 -15.03125,12.5312 -15.03125,12.5312 0,0 8.768644,-9.1307 14.46875,-12.2812 0.273505,-0.1512 0.460184,-0.2248 0.5625,-0.25 z"
             id="path4112"
             inkscape:connector-curvature="0" />
          <path
             style="fill:#ffd42a;fill-opacity:1;fill-rule:evenodd;stroke:#beccef;stroke-width:0;stroke-linejoin:miter;stroke-miterlimit:4;stroke-opacity:1;stroke-dasharray:none"
             d="m 50,970.64343 c -17.173669,0 -31.09375,13.92008 -31.09375,31.09377 0,0.1788 -0.003,0.3531 0,0.5312 3.029747,-2.8442 7.094533,-6.38093 10.25,-8.12497 3.031515,-1.67553 -4.945772,4.73117 -10.21875,8.90627 0.691302,16.5617 14.330837,29.7812 31.0625,29.7812 17.173669,0 31.09375,-13.9201 31.09375,-31.0937 0,-1.7411 -0.131226,-3.4619 -0.40625,-5.12502 -0.718346,6.92912 -1.829854,16.25112 -2.625,15.15622 -0.238985,-0.329 -0.458641,-0.6537 -0.65625,-1 -0.07408,0.1543 -0.138207,0.3183 -0.21875,0.4688 -0.233165,0.4357 -0.532642,-0.8349 -0.8125,-2.9375 -0.530693,-1.7693 -0.673616,-3.666 -0.5625,-5.5313 -0.584675,-6.30271 -1.0625,-13.78122 -1.0625,-13.78122 0.353926,-0.77864 1.815073,1.90176 2.90625,5.84375 0.541258,-1.35051 1.131915,-2.53007 1.6875,-3.4375 -4.262649,-12.08736 -15.797065,-20.75 -29.34375,-20.75 z m 4.6875,18.75 c 0.03747,-0.02 0.08075,-0.009 0.125,0 0.460508,0.0965 1.404821,1.83759 2.25,4.40625 1.14457,-2.56761 2.406772,-4.30982 3.03125,-4.40625 0.120101,-0.0185 0.214417,0.0167 0.28125,0.125 0,0 -0.795317,9.04587 -1.6875,15.62497 -0.07809,1.4776 -0.272982,2.9189 -0.6875,4.2813 -0.338452,1.7277 -0.653223,2.7352 -0.9375,2.3437 -0.120953,0.2261 -0.267968,-0.028 -0.40625,-0.5937 -2.261201,-3.5836 -2.23665,-8.1201 -1.34375,-12.125 -0.398548,-4.92057 -0.71875,-9.53127 -0.71875,-9.53127 0.02462,-0.0542 0.05628,-0.10497 0.09375,-0.125 z"
             id="path4114"
             inkscape:connector-curvature="0" />
          <path
             style="fill:#ffcc00;fill-opacity:1;fill-rule:evenodd;stroke:#beccef;stroke-width:0;stroke-linejoin:miter;stroke-miterlimit:4;stroke-opacity:1;stroke-dasharray:none"
             d="m 50,977.45593 c -13.419326,0 -24.3125,10.86192 -24.3125,24.28127 0,13.4193 10.893174,24.3125 24.3125,24.3125 13.419326,0 24.3125,-10.8932 24.3125,-24.3125 0,-13.41935 -10.893174,-24.28127 -24.3125,-24.28127 z m 14.6875,11.25 c 0.428752,-0.26667 1.588616,1.87764 2.5625,5.0625 1.140122,-2.54673 2.378607,-4.27905 3,-4.375 0.120101,-0.0185 0.214417,0.0167 0.28125,0.125 0,0 -2.079671,23.94747 -3.3125,22.24997 -2.571518,-3.5408 -2.688133,-8.1597 -1.84375,-12.2812 -0.449445,-5.37637 -0.78125,-10.65627 -0.78125,-10.65627 0.02462,-0.0542 0.05881,-0.10327 0.09375,-0.125 z m -4.59375,0.6875 c 0.120101,-0.0185 0.214417,0.0167 0.28125,0.125 0,0 -2.079671,23.94747 -3.3125,22.24997 -5.937007,-8.1748 1.229731,-22.0968 3.03125,-22.37497 z"
             id="path4116"
             inkscape:connector-curvature="0" />
        </g>
        <path
           sodipodi:nodetypes="sssss"
           inkscape:connector-curvature="0"
           id="path4118"
           d="m 34.189725,980.20306 c -5.280362,4.29304 -8.852814,9.20286 -9.723816,8.13154 -0.871002,-1.07132 1.289277,-7.71809 6.569638,-12.01112 5.280361,-4.29304 11.681241,-5.66733 12.552243,-4.59601 0.871002,1.07132 -4.117704,4.18255 -9.398065,8.47559 z"
           style="fill:url(#linearGradient4220);fill-opacity:1;fill-rule:evenodd;stroke:#beccef;stroke-width:0;stroke-linejoin:miter;stroke-miterlimit:4;stroke-opacity:1" />
        <path
           transform="matrix(1.9778604,-0.02363271,0.04819114,0.96993337,-16.302684,978.00414)"
           d="m 35,25 c 0,2.659624 -1.119288,4.815675 -2.5,4.815675 -1.380712,0 -2.5,-2.156051 -2.5,-4.815675 0,-2.659624 1.119288,-4.815675 2.5,-4.815675 1.380712,0 2.5,2.156051 2.5,4.815675 z"
           sodipodi:ry="4.8156753"
           sodipodi:rx="2.5"
           sodipodi:cy="25"
           sodipodi:cx="32.5"
           id="path4120"
           style="fill:url(#linearGradient4222);fill-opacity:1;fill-rule:evenodd;stroke:#beccef;stroke-width:0;stroke-linejoin:miter;stroke-miterlimit:4;stroke-opacity:1;stroke-dasharray:none"
           sodipodi:type="arc" />
      </g>
    </g>
    <g
       id="g4515"
       inkscape:export-filename="/Users/anivamainali/Desktop/Projects/WS/runtime-lbd2.product/Assorted/textures/redCandy.png"
       inkscape:export-xdpi="89.870003"
       inkscape:export-ydpi="89.870003">
      <path
         style="fill:#ff5555;fill-opacity:1;fill-rule:evenodd;stroke:#beccef;stroke-width:0;stroke-linejoin:miter;stroke-miterlimit:4;stroke-opacity:1;stroke-dasharray:none"
         d="m -91.92666,1275.7696 c -13.60405,0 -24.64718,10.9977 -24.64718,24.5848 0,13.587 11.04313,24.6164 24.64718,24.6164 13.604051,0 24.647176,-11.0294 24.647176,-24.6164 0,-13.5871 -11.043125,-24.5848 -24.647176,-24.5848 z m 14.889682,11.3906 c 0.434654,-0.27 1.610485,1.9011 2.597775,5.1258 1.155816,-2.5786 2.41135,-4.3326 3.041296,-4.4297 0.121755,-0.019 0.217369,0.017 0.285122,0.1266 0,0 -2.108299,24.2468 -3.358099,22.528 -2.606916,-3.585 -2.725136,-8.2617 -1.86913,-12.4347 -0.455632,-5.4435 -0.792004,-10.7894 -0.792004,-10.7894 0.02496,-0.055 0.05962,-0.1046 0.09504,-0.1266 z m -4.656985,0.6961 c 0.121754,-0.019 0.217368,0.017 0.285121,0.1266 0,0 -2.108299,24.2468 -3.358098,22.528 -6.018734,-8.2769 1.246659,-22.373 3.072977,-22.6546 z"
         id="path4236"
         inkscape:connector-curvature="0" />
      <path
         sodipodi:type="arc"
         style="fill:#aa0000;fill-opacity:1;fill-rule:evenodd;stroke:#beccef;stroke-width:0;stroke-linejoin:miter;stroke-miterlimit:4;stroke-opacity:1;stroke-dasharray:none"
         id="path4230"
         sodipodi:cx="50"
         sodipodi:cy="45"
         sodipodi:rx="40"
         sodipodi:ry="40"
         d="m 90,45 a 40,40 0 1 1 -80,0 40,40 0 1 1 80,0 z"
         transform="matrix(1.2515625,0,0,1.25,-154.50478,1244.1121)" />
      <path
         inkscape:connector-curvature="0"
         id="path4513"
         d="m -91.92666,1257.6395 c -23.6224,0 -42.76824,19.1219 -42.76824,42.7149 0,23.5928 19.14584,42.7148 42.76824,42.7148 23.6224,0 42.76824,-19.122 42.76824,-42.7148 0,-23.593 -19.14584,-42.7149 -42.76824,-42.7149 z"
         style="fill:#d40000;fill-opacity:1;fill-rule:evenodd;stroke:#beccef;stroke-width:0;stroke-linejoin:miter;stroke-miterlimit:4;stroke-opacity:1;stroke-dasharray:none" />
      <path
         style="fill:url(#linearGradient4484);fill-opacity:1;fill-rule:evenodd;stroke:#beccef;stroke-width:0;stroke-linejoin:miter;stroke-miterlimit:4;stroke-opacity:1"
         d="m -112.35823,1275.7409 c -6.8238,4.7701 -11.44047,10.2254 -12.56606,9.0351 -1.1256,-1.1904 1.66613,-8.5757 8.48992,-13.3457 6.8238,-4.7701 15.09564,-6.297 16.22123,-5.1067 1.125597,1.1904 -5.32129,4.6473 -12.14509,9.4173 z"
         id="path4238"
         inkscape:connector-curvature="0"
         sodipodi:nodetypes="sssss" />
    </g>
  </g>
</svg>
