<?xml version="1.0" encoding="UTF-8" standalone="no"?>
<!-- Created with Inkscape (http://www.inkscape.org/) -->

<svg
   xmlns:dc="http://purl.org/dc/elements/1.1/"
   xmlns:cc="http://creativecommons.org/ns#"
   xmlns:rdf="http://www.w3.org/1999/02/22-rdf-syntax-ns#"
   xmlns:svg="http://www.w3.org/2000/svg"
   xmlns="http://www.w3.org/2000/svg"
   xmlns:sodipodi="http://sodipodi.sourceforge.net/DTD/sodipodi-0.dtd"
   xmlns:inkscape="http://www.inkscape.org/namespaces/inkscape"
   width="100"
   height="100"
   id="svg2"
   version="1.1"
   inkscape:version="0.48.2 r9819"
   sodipodi:docname="Coin.svg">
  <defs
     id="defs4" />
  <sodipodi:namedview
     id="base"
     pagecolor="#ffffff"
     bordercolor="#666666"
     borderopacity="1.0"
     inkscape:pageopacity="0.0"
     inkscape:pageshadow="2"
     inkscape:zoom="0.71417785"
     inkscape:cx="740.82697"
     inkscape:cy="90.607319"
     inkscape:document-units="px"
     inkscape:current-layer="layer1"
     showgrid="false"
     inkscape:window-width="1440"
     inkscape:window-height="786"
     inkscape:window-x="0"
     inkscape:window-y="0"
     inkscape:window-maximized="1"
     showguides="true"
     inkscape:guide-bbox="true">
    <inkscape:grid
       type="xygrid"
       id="grid2985"
       empspacing="5"
       visible="true"
       enabled="true"
       snapvisiblegridlinesonly="true" />
  </sodipodi:namedview>
  <metadata
     id="metadata7">
    <rdf:RDF>
      <cc:Work
         rdf:about="">
        <dc:format>image/svg+xml</dc:format>
        <dc:type
           rdf:resource="http://purl.org/dc/dcmitype/StillImage" />
        <dc:title></dc:title>
      </cc:Work>
    </rdf:RDF>
  </metadata>
  <g
     inkscape:label="Layer 1"
     inkscape:groupmode="layer"
     id="layer1"
     transform="translate(0,-952.36218)">
    <g
       id="g3389"
       transform="matrix(1.001755,0,0,1,-0.01421102,0)"
       inkscape:export-filename="/Users/anivamainali/Desktop/Projects/WS/runtime-lbd2.product/Assorted/textures/CoinSketch.png"
       inkscape:export-xdpi="89.870003"
       inkscape:export-ydpi="89.870003">
      <path
         id="path3343"
         d="m 54.96875,952.23718 c -9.47077,0 -18.96141,2.12075 -25.28125,6.34375 -28.6136454,19.1196 -28.83055439,67.43287 -0.40625,86.59377 13.936844,9.395 37.438157,9.395 51.375,0 28.67271,-19.3285 28.42621,-67.30717 -0.4375,-86.59377 -6.31984,-4.223 -15.77923,-6.34375 -25.25,-6.34375 z m 22.9375,24.21875 c 0.360772,0.002 0.960264,0.2779 1.78125,0.78125 2.405671,1.475 8.718262,17.125 6.90625,17.125 -0.542227,0 -2.848601,-3.69195 -5.125,-8.21875 -3.576061,-7.1112 -4.644816,-9.6919 -3.5625,-9.6875 z M 32.0625,986.54968 c 0.323373,0 0.348646,0.85375 0.25,2.59375 -0.12207,2.1531 -1.185267,6.8489 -2.34375,10.4375 l -2.09375,6.53127 -0.21875,-6.53127 c -0.12207,-3.5886 0.909865,-8.2844 2.3125,-10.4375 1.133441,-1.74 1.770377,-2.59375 2.09375,-2.59375 z M 39.5,1027.0497 c 0.101091,-0.036 0.629322,0.32 1.625,1.0937 2.655138,2.0636 9.808789,4.5447 15.90625,5.5313 l 11.09375,1.8125 -9.71875,0.3125 c -6.805145,0.2296 -11.568528,-1.4197 -15.90625,-5.5313 -2.129521,-2.0185 -3.168486,-3.1591 -3,-3.2187 z"
         style="fill:#ff7f2a"
         inkscape:connector-curvature="0" />
      <path
         inkscape:connector-curvature="0"
         id="path3341"
         d="m 82.776419,1041.3212 c 12.016171,-11.3338 16.443704,-21.5285 16.459004,-37.8978 0.02631,-28.06823 -17.081823,-46.80203 -42.739841,-46.80203 -16.597013,0 -26.538671,4.7742 -36.254224,17.4106 -6.575167,8.5518 -7.370735,11.7212 -7.370735,29.36373 0,16.6702 0.987195,21.1503 6.283864,28.5175 10.493053,14.5951 20.21276,19.083 39.052035,18.0318 13.882927,-0.7749 17.650044,-2.0971 24.569897,-8.6238 z"
         style="fill:#ffffff" />
      <path
         id="path3333"
         d="m 168.21875,952.61218 c -11.46608,0 -14.6776,1.1464 -20.375,7.1875 -8.80956,9.3406 -15.33848,22.3312 -15,29.875 0.22052,4.9147 0.6141,4.56775 2.1875,-1.84375 2.89085,-11.7801 9.96047,-23.96555 16.53125,-28.53125 7.70216,-5.3515 28.1502,-5.2455 35.96875,0.1875 3.37243,2.3431 8.32571,9.0894 11.03125,15 2.70554,5.9103 4.93705,9.20925 4.96875,7.34375 0.10044,-5.8958 -7.44032,-18.12615 -14.6875,-23.78125 -5.04041,-3.9333 -10.7941,-5.4375 -20.625,-5.4375 z M 205,991.73718 c -0.33069,0.23804 -0.5625,4.05423 -0.5625,10.46872 0,9.3302 0.47891,13.1338 1.0625,8.4688 0.58358,-4.6652 0.58358,-12.30367 0,-16.96877 -0.18237,-1.45784 -0.34969,-2.07695 -0.5,-1.96875 z m -9.6875,15.81252 c -0.61998,0.089 -2.2909,3.6765 -4.53125,10.25 -1.70107,4.9914 -1.97763,7.934 -0.59375,6.5312 1.38387,-1.4026 3.37684,-6.0688 4.40625,-10.375 1.05626,-4.4186 1.20096,-6.4752 0.71875,-6.4062 z m -61,3.4687 c -0.22654,0.024 -0.54384,0.7851 -0.9375,2.2813 -1.93878,7.369 3.92393,21.2947 12.71875,30.2187 7.09887,7.2032 9.90839,8.2813 21.9375,8.2813 10.01348,0 15.74545,-1.5149 20.8125,-5.4688 7.24718,-5.6553 14.78793,-17.8854 14.6875,-23.7812 -0.0318,-1.8655 -2.26321,1.4644 -4.96875,7.375 -2.70554,5.9103 -7.65882,12.6566 -11.03125,15 -7.82984,5.4395 -28.27798,5.5219 -36,0.1562 -6.8798,-4.7805 -16.18662,-21.7904 -16.625,-30.375 -0.12795,-2.5055 -0.30248,-3.7187 -0.59375,-3.6875 z m 19.78125,8.4063 c -1.06066,0.032 0.052,3.2313 3.75,8.4687 2.318,3.2833 4.82165,5.3599 5.5625,4.625 0.74084,-0.7349 -1.1599,-4.4861 -4.21875,-8.3437 -2.62782,-3.3142 -4.36803,-4.7716 -5.09375,-4.75 z m 19.15625,14.4375 c -1.09319,0.052 -2.16512,0.2205 -3.125,0.4687 -2.5597,0.6618 -1.12209,1.2283 3.21875,1.2813 4.34084,0.053 6.4374,-0.4727 4.65625,-1.1875 -1.11322,-0.4465 -2.92802,-0.6486 -4.75,-0.5625 z"
         style="fill:#ff7f2a"
         inkscape:connector-curvature="0" />
      <path
         id="path3331"
         d="m 288.6875,952.98718 c -0.97354,0.0235 -2.02621,0.0826 -3.15625,0.15625 -16.66602,1.0862 -22.0669,10.5165 -23.53125,41.0625 -1.1836,24.69007 1.9605,40.30367 10.21875,50.71877 6.64696,8.3828 23.21602,9.6764 29.0625,2.2812 3.23967,-4.098 3.15365,-4.2033 -0.8125,-1.125 -2.4312,1.887 -8.88747,3.0766 -14.34375,2.625 -8.15166,-0.6747 -10.88329,-2.463 -15.3125,-9.9687 -4.54842,-7.7079 -5.375,-13.619 -5.375,-37.8438 0,-37.27478 3.79132,-45.68747 20.59375,-45.68747 6.18473,0 12.878,1.48695 14.90625,3.28125 3.15094,2.7874 3.19142,2.5723 0.125,-1.4375 -2.37809,-3.10966 -5.56019,-4.22682 -12.375,-4.0625 z m 4.53125,15.75 c -3.13593,0.19571 -6.43113,1.9833 -8.03125,5.25 -2.84926,5.8169 -2.79055,5.8468 1.21875,0.875 3.5948,-4.4579 4.88341,-4.6876 9.625,-1.75 4.52673,2.8036 5.29325,2.7956 4.34375,-0.0625 -1.03068,-3.10245 -4.02032,-4.50821 -7.15625,-4.3125 z"
         style="fill:#ff7f2a"
         inkscape:connector-curvature="0" />
      <path
         id="path3329"
         d="m 401.40625,952.92468 c -8.40864,0.10277 -11.27902,3.49837 -10.75,12.28125 0.14747,2.4489 1.06916,1.51325 2.09375,-2.15625 1.35456,-4.8517 4.14198,-6.925 10.90625,-8.125 l 9.09375,-1.625 -9.59375,-0.34375 c -0.61035,-0.0219 -1.18942,-0.0381 -1.75,-0.0312 z M 389.25,983.58093 c -0.29878,0.16982 -0.49656,6.45707 -0.5,17.31247 -0.006,15.7896 0.40763,22.5773 0.9375,15.0938 0.52929,-7.4836 0.55492,-20.38132 0.0312,-28.68752 -0.16364,-2.59566 -0.33294,-3.79594 -0.46875,-3.71875 z m 2.25,51.12497 c -0.41355,0.092 -0.6875,1.5641 -0.6875,4.0313 0,3.5886 0.58268,5.0443 1.3125,3.25 0.72981,-1.7942 0.72981,-4.7058 0,-6.5 -0.22807,-0.5607 -0.43702,-0.8229 -0.625,-0.7813 z m 7.5,13.75 c -3.03978,-0.06 -4.84303,0.3986 -4.3125,1.25 1.2731,2.0436 16.75,3.0265 16.75,1.0625 0,-0.5608 -4.06843,-1.4878 -9.03125,-2.0625 -1.2407,-0.1437 -2.39299,-0.2299 -3.40625,-0.25 z"
         style="fill:#ff7f2a"
         inkscape:connector-curvature="0" />
      <path
         id="path3327"
         d="m 511.40625,952.61218 0,47.84372 c 0,26.3161 0.78535,48.6368 1.75,49.5938 0.96461,0.957 4.53002,1.75 7.90625,1.75 l 6.125,0 0,-49.5938 0,-49.59372 -7.875,0 -7.90625,0 z"
         style="fill:#ff7f2a"
         inkscape:connector-curvature="0" />
      <path
         id="path3323"
         d="m 632.65625,952.54968 c -2.9811,0.0597 -5.5892,0.71312 -6.46875,2.125 -0.70737,1.1343 2.78718,1.60595 7.75,1.03125 7.28562,-0.8437 9,-0.14885 9,3.59375 0,2.5496 0.75407,3.8952 1.65625,3 0.90226,-0.8949 0.95059,-3.44125 0.0937,-5.65625 -1.01192,-2.61619 -7.0627,-4.19328 -12.0312,-4.09375 z m 14.15625,15.3125 c -0.37497,0.12819 -0.625,2.17093 -0.625,5.625 0,5.0239 0.55703,7.0745 1.21875,4.5625 0.66171,-2.512 0.66171,-6.613 0,-9.125 -0.20679,-0.78497 -0.42331,-1.12077 -0.59375,-1.0625 z m 2.84375,23.15625 c -0.31766,0.0682 -0.52403,4.60522 -0.53125,12.49997 -0.01,11.4834 0.43574,16.5014 1,11.1563 0.56631,-5.345 0.58698,-14.73672 0.0312,-20.87502 -0.17368,-1.91828 -0.35561,-2.81223 -0.5,-2.78125 z m -2.84375,36.87497 c -0.37497,0.1282 -0.625,2.1711 -0.625,5.625 0,5.0241 0.55703,7.0745 1.21875,4.5625 0.66171,-2.5121 0.66171,-6.613 0,-9.125 -0.20679,-0.785 -0.42331,-1.1207 -0.59375,-1.0625 z m -1.53125,16.1875 c -0.21758,-0.046 -0.79849,0.6743 -1.84375,2.1563 -1.5833,2.2445 -5.57826,3.1677 -10.59375,2.4375 -4.42474,-0.6444 -7.3766,-0.1317 -6.59375,1.125 2.29487,3.6836 17.49656,1.0617 18.65625,-3.2188 0.43652,-1.6113 0.59258,-2.4538 0.375,-2.5 z"
         style="fill:#ff7f2a"
         inkscape:connector-curvature="0" />
      <path
         id="path3321"
         d="m 743.78125,952.92468 c -5.19905,0.16012 -6.91553,1.55775 -8.96875,5.4375 -3.09002,5.8391 -3.04738,5.8758 2,1.4375 7.81751,-6.8744 20.47547,-5.89825 26.8125,2.09375 11.72259,14.7843 13.68421,56.25647 3.625,76.65627 -3.92407,7.9581 -6.07311,9.4512 -14.71875,10.1562 -6.89818,0.5621 -11.92372,-0.7078 -15.78125,-3.9375 l -5.65625,-4.7187 5,5.875 c 3.77061,4.4181 7.81499,5.875 16.375,5.875 10.70683,0 11.73482,-0.6557 17.28125,-11.0938 4.94441,-9.3052 5.90245,-15.2931 5.96875,-37.1875 0.0699,-23.10508 -0.67698,-27.44662 -6.53125,-37.84372 -6.20953,-11.0283 -7.36139,-11.8218 -18.90625,-12.5625 -2.64631,-0.16978 -4.76698,-0.24087 -6.5,-0.1875 z m 0.9375,15.375 c -2.32218,-0.0616 -4.56147,0.68681 -5.59375,2.34375 -0.81087,1.3021 0.76739,1.7713 3.5,1.0625 2.73259,-0.7089 5.74659,0.002 6.71875,1.5625 2.59233,4.1613 4.16081,3.44215 2.40625,-1.09375 -0.9311,-2.40716 -4.04559,-3.79584 -7.03125,-3.875 z m 7.625,60.65622 c -0.42583,0.042 -1.30247,0.6831 -2.75,1.875 -2.18512,1.798 -5.82975,2.5492 -8.09375,1.6875 -2.36752,-0.9016 -3.4245,-0.4526 -2.5,1.0313 2.5622,4.1129 11.09202,2.9714 12.90625,-1.7188 0.77628,-2.0068 0.98499,-2.9288 0.4375,-2.875 z"
         style="fill:#ff7f2a"
         inkscape:connector-curvature="0" />
      <path
         id="path3319"
         d="m 866.875,952.26843 c -7.16029,0.15804 -14.26838,1.8262 -18.625,4.96875 -8.68765,6.2665 -18.58432,25.66265 -18.21875,35.71875 0.25011,6.8806 0.58479,6.48305 2.46875,-2.96875 2.81196,-14.1082 8.86959,-25.581 16.21875,-30.6875 7.70217,-5.3515 28.15019,-5.2455 35.96875,0.1875 15.7473,10.9419 21.36852,48.51182 10.5625,70.65622 -6.336,12.9844 -16.05309,19.0313 -30.59375,19.0313 -12.8971,0 -21.0784,-5.7992 -27.25,-19.2813 -2.70556,-5.9105 -4.93695,-9.2092 -4.96875,-7.3437 -0.10043,5.8958 7.47157,18.126 14.71875,23.7812 9.70331,7.572 29.28286,7.4613 39.125,-0.2187 23.26749,-18.1566 22.9571,-74.44022 -0.5,-89.68752 -4.53274,-2.9463 -11.74596,-4.31429 -18.90625,-4.15625 z m -4.25,17.3125 c -14.20341,0 -20.50632,9.07879 -21.28125,30.62497 -0.32335,8.9907 -0.10565,12.2427 0.5,7.2188 2.43552,-20.20373 3.95664,-25.43822 9.0625,-30.87502 7.10309,-7.5637 15.95882,-7.1648 23.75,1.0625 5.46646,5.7725 6.375,9.29584 6.375,24.59372 0,15.2977 -0.90854,18.79 -6.375,24.5625 -9.65712,10.1976 -18.59193,9.0167 -27.3125,-3.625 -2.44829,-3.5491 -4.4375,-5.1549 -4.4375,-3.5937 0,1.5612 2.43858,5.9052 5.4375,9.6875 11.07338,13.9654 31.69672,4.8261 35.59375,-15.7813 2.42297,-12.8127 -0.36429,-29.26267 -6.28125,-37.12497 -3.90126,-5.1837 -7.3866,-6.75 -15.03125,-6.75 z m -31.65625,37.28127 c -0.39451,-0.1089 -0.68183,1.5081 -0.71875,4.4687 -0.0536,4.3063 0.49822,6.3918 1.21875,4.625 0.72076,-1.7669 0.76077,-5.3043 0.0937,-7.8437 -0.20844,-0.7936 -0.41443,-1.2005 -0.59375,-1.25 z"
         style="fill:#ff7f2a"
         inkscape:connector-curvature="0" />
      <path
         id="path3317"
         transform="translate(0,952.36218)"
         d="m 981.65625,0.25 c -16.50505,0 -28.39808,6.45905 -38,20.59375 -15.75652,23.1949 -8.92496,56.80785 14.78125,72.65625 18.95412,12.6714 49.5655,5.7886 63.4063,-14.25 5.5567,-8.0451 6.5312,-12.4326 6.5312,-29.4375 0,-17.69993 -0.8643,-21.2332 -7.4688,-30.6875 C 1011.5796,5.7735 1000.0685,0.25 981.65625,0.25 z m -2.3125,21.3125 c 24.28755,-0.415614 38.96985,35.844888 16.84375,56.1875 -7.16813,6.5902 -18.79711,7.90445 -28.53125,3.21875 -19.13081,-9.2089 -18.62381,-48.0556 0.75,-56.8125 3.78129,-1.709162 7.46785,-2.534377 10.9375,-2.59375 z"
         style="fill:#ff7f2a"
         inkscape:connector-curvature="0" />
      <path
         id="path3309"
         d="m 1098.0938,952.61218 c -24.2853,0 -43.4997,14.8445 -49.8438,38.5 -5.523,20.59392 5.7283,44.91922 25.625,55.34372 27.5586,14.4389 67.186,-1.8624 72.6875,-29.9062 l 1.5313,-7.8125 -3.0313,7.8125 c -8.0102,20.7556 -24.6166,32.625 -45.6563,32.625 -42.9703,0 -65.0221,-48.5218 -36.0312,-79.28127 25.5991,-27.1612 69.9054,-15.7201 82.3125,21.25 2.1891,6.523 2.2555,6.36415 1.0313,-1.78125 -3.0481,-20.2802 -24.8298,-36.75 -48.625,-36.75 z m 0.9062,15.6875 c -13.241,0.0504 -21.7572,4.56025 -29.125,15.40625 -10.2844,15.1396 -6.5676,34.99127 8.7812,46.96877 8.4402,6.586 26.6136,7.3092 37.9376,1.5 15.2059,-7.8007 21.1307,-31.7771 11.75,-47.53127 -6.1839,-10.3849 -16.9461,-16.39075 -29.3438,-16.34375 z"
         style="fill:#ff7f2a"
         inkscape:connector-curvature="0" />
    </g>
  </g>
</svg>
