<svg xmlns="http://www.w3.org/2000/svg" xmlns:xlink="http://www.w3.org/1999/xlink" width="1600" height="1200"><defs><linearGradient id="b"><stop offset="0"/><stop offset="1" stop-opacity="0"/></linearGradient><linearGradient id="a"><stop offset="0"/><stop offset="1" stop-opacity="0"/></linearGradient><pattern patternTransform="scale(10)" height="1" width="2" patternUnits="userSpaceOnUse"><rect height="2" width="1" y="-.5" fill="#fff"/></pattern><linearGradient xlink:href="#a" x1="4772.846" y1="1087.224" x2="5472.324" y2="1087.224" gradientUnits="userSpaceOnUse"/><linearGradient xlink:href="#b" x1="4345.323" y1="1951.663" x2="5305.811" y2="1951.663" gradientUnits="userSpaceOnUse"/><linearGradient xlink:href="#a" gradientUnits="userSpaceOnUse" x1="4772.846" y1="1087.224" x2="5472.324" y2="1087.224"/><linearGradient xlink:href="#b" gradientUnits="userSpaceOnUse" x1="4345.323" y1="1951.663" x2="5305.811" y2="1951.663"/><linearGradient xlink:href="#b" gradientUnits="userSpaceOnUse" x1="4345.323" y1="1951.663" x2="5305.811" y2="1951.663" gradientTransform="translate(297.018 -50)"/><linearGradient xlink:href="#a" gradientUnits="userSpaceOnUse" x1="4772.846" y1="1087.224" x2="5472.324" y2="1087.224" gradientTransform="matrix(.746 0 0 .746 1302.686 212.12)"/><linearGradient xlink:href="#a" gradientUnits="userSpaceOnUse" gradientTransform="matrix(.746 0 0 .746 1302.686 212.12)" x1="4772.846" y1="1087.224" x2="5472.324" y2="1087.224"/><linearGradient xlink:href="#b" gradientUnits="userSpaceOnUse" gradientTransform="translate(297.018 -50)" x1="4345.323" y1="1951.663" x2="5305.811" y2="1951.663"/><linearGradient xlink:href="#b" gradientUnits="userSpaceOnUse" gradientTransform="translate(297.018 -50)" x1="4345.323" y1="1951.663" x2="5305.811" y2="1951.663"/><linearGradient xlink:href="#a" gradientUnits="userSpaceOnUse" gradientTransform="matrix(.746 0 0 .746 1302.686 212.12)" x1="4772.846" y1="1087.224" x2="5472.324" y2="1087.224"/><linearGradient xlink:href="#a" gradientUnits="userSpaceOnUse" gradientTransform="matrix(.746 0 0 .746 1302.686 212.12)" x1="4772.846" y1="1087.224" x2="5472.324" y2="1087.224"/><linearGradient xlink:href="#b" gradientUnits="userSpaceOnUse" gradientTransform="translate(297.018 -50)" x1="4345.323" y1="1951.663" x2="5305.811" y2="1951.663"/><linearGradient xlink:href="#a" gradientUnits="userSpaceOnUse" gradientTransform="matrix(.746 0 0 .746 1302.686 212.12)" x1="4772.846" y1="1087.224" x2="5472.324" y2="1087.224"/><linearGradient xlink:href="#b" gradientUnits="userSpaceOnUse" gradientTransform="translate(297.018 -50)" x1="4345.323" y1="1951.663" x2="5305.811" y2="1951.663"/></defs><g><path d="M2933.94 1428.401l-179.05-179.065 56.459-.035 56.459-.035 123.272 123.18 123.272 123.179v51.795c0 48.187-.328 51.675-4.715 50.075-4.233-1.544-4.191-1.122.418 4.126 2.823 3.215 4.638 5.846 4.034 5.846-.604 0-81.671-80.579-180.149-179.065zm1.563-5.332c-94.224-94.2-172.248-171.273-173.387-171.273-1.139 0 75.475 77.552 170.252 172.338 94.777 94.786 172.801 171.859 173.387 171.273.586-.586-76.028-78.138-170.252-172.338zm119.931 81.815c3.719-1.99 5.16-5.129 4.638-10.106-.416-3.97.229-8.814 1.434-10.764 5.077-8.216-1.931-6.108-11.829 3.557-10.033 9.797-10.417 10.735-6.269 15.318 5.19 5.735 5.074 5.716 12.027 1.995zm-7.096-7.891c.916-1.482 2.806-2.695 4.201-2.695 1.395 0 2.535 1.212 2.535 2.695 0 1.482-1.89 2.695-4.201 2.695-2.31 0-3.451-1.212-2.535-2.695zm-4.309-9.146c3.335-3.55 4.895-7.172 3.47-8.054-1.425-.881-4.09.204-5.922 2.41-1.831 2.207-4.582 4.012-6.112 4.012-1.53 0-.581-2.433 2.11-5.405 6.365-7.034 2.994-10.405-4.04-4.04-6.183 5.595-6.801 9.667-2.172 14.296 4.473 4.473 5.745 4.149 12.666-3.219zm50.837-7.02c-1.851-2.964-4.474-5.389-5.829-5.389-1.355 0-.269 2.425 2.413 5.389 2.682 2.964 5.306 5.389 5.829 5.389.524 0-.562-2.425-2.413-5.389zm-61.555-8.291c8.086-8.086 10.482-13.265 6.135-13.265-1.186 0-3.59 1.435-5.344 3.188-4.591 4.591-7.687.176-4.008-5.715 5.835-9.344-.26-8.378-10.552 1.671-7.96 7.772-10.274 8.942-10.274 5.191 0-2.663 2.425-5.475 5.389-6.25 6.048-1.581 7.478-11.559 1.657-11.559-3.983 0-12.435 11.18-12.435 16.449 0 1.741 2.122 4.723 4.715 6.625 3.91 2.869 5.532 2.723 9.494-.852 3.245-2.927 5.66-3.43 7.524-1.566 1.864 1.864 1.411 3.852-1.411 6.194-2.286 1.897-4.156 4.513-4.156 5.814 0 4.549 5.043 2.296 13.265-5.926zm-16.188-34.147c.126-1.852-.984-3.368-2.466-3.368-1.482 0-2.694 1.819-2.694 4.042s-1.42 4.042-3.156 4.042c-4.62 0-13.011 8.29-13.011 12.855 0 4.796 20.984-12.492 21.328-17.571zm45.409 10.104c-1.851-2.964-4.474-5.389-5.829-5.389-1.355 0-.27 2.425 2.413 5.389 2.682 2.964 5.306 5.389 5.829 5.389.524 0-.562-2.425-2.413-5.389zm-64.042-1.347c3.441-4.146 2.175-5.021-6.063-4.183-5.404.55-6.265-5.315-1.482-10.098 4.224-4.224 12.159-4.146 13.687.135.662 1.852 2.235 2.401 3.497 1.218 2.906-2.724-2.209-11.071-7.414-12.098-2.163-.427-7.186 1.783-11.163 4.911-8.312 6.538-9.566 17.14-2.514 21.247 6.346 3.696 7.543 3.578 11.451-1.131zm-19.407-33.54c-.597-5.123-2.313-6.826-6.73-6.677-3.261.11-5.372-.702-4.691-1.804 2.09-3.381-6.799-10.389-11.089-8.742-2.221.852-5.371 4.039-6.999 7.082-2.38 4.447-2.023 6.218 1.819 9.027 2.629 1.922 5.844 2.837 7.144 2.034 1.3-.804 2.191-.462 1.978.76-1.037 5.969.736 6.66 5.658 2.206 6.774-6.131 10.517-3.117 4.452 3.585-5.89 6.508-2.328 9.891 4.197 3.986 3.035-2.746 4.741-7.335 4.26-11.457zm-24.791-5.109c-.932-1.509-.382-3.554 1.222-4.546 4.143-2.56 6.816.947 3.357 4.405-1.935 1.935-3.442 1.982-4.58.141zm62.435-5.81c-1.851-2.964-4.474-5.389-5.829-5.389-1.355 0-.269 2.425 2.413 5.389 2.682 2.964 5.306 5.389 5.829 5.389.524 0-.562-2.425-2.413-5.389zm-79.069-11.43c-1.736-5.471-1.48-5.678 2.718-2.194 4.018 3.335 4.962 3.332 7.084-.021 1.346-2.128 2.466-4.629 2.489-5.559.088-3.619-7.573-7.751-11.546-6.226-3.075 1.18-3.84.282-2.882-3.381.808-3.091-1.344-7.476-5.659-11.53l-6.963-6.542-7.193 7.193c-8.138 8.138-6.396 13.564 1.935 6.024 6.508-5.89 7.232-2.457.946 4.488-4.043 4.468-4.056 4.927-.134 4.927 2.379 0 5.507-2.112 6.952-4.693 1.444-2.581 3.518-3.801 4.608-2.711 1.09 1.09-.226 4.422-2.925 7.404-5.663 6.258-3.522 10.548 2.691 5.392 3.511-2.914 3.901-2.762 2.471.963-2.091 5.449.372 12.506 4.365 12.506 1.841 0 2.236-2.285 1.043-6.041zm46.735-20.903c-1.851-2.964-4.474-5.389-5.829-5.389-1.355 0-.269 2.425 2.413 5.389 2.682 2.964 5.306 5.389 5.829 5.389.524 0-.562-2.425-2.413-5.389zm-80.209-17.673c0-2.135 1.819-3.883 4.042-3.883s4.042-1.212 4.042-2.695c0-1.482-1.401-2.695-3.112-2.695-1.819 0-1.186-2.128 1.523-5.121 9.209-10.176-.487-7.864-10.645 2.539-9.263 9.486-10.025 12.054-3.259 10.985 1.111-.175 2.021 1.571 2.021 3.882 0 2.31 1.212 3.451 2.695 2.535 1.482-.916 2.694-3.413 2.694-5.548zm-5.85-14.661c3.954 0 4.125-4.472.262-6.859-3.545-2.191-16.405 9.36-14.27 12.816.843 1.363 3.629.581 6.192-1.739 2.563-2.32 6.08-4.217 7.816-4.217zm53.726 0c-1.851-2.964-4.474-5.389-5.829-5.389-1.355 0-.269 2.425 2.413 5.389 2.682 2.964 5.306 5.389 5.829 5.389.524 0-.562-2.425-2.413-5.389zm-66.275-4.459c6-5.43 6.261-9.941.835-14.444-3.349-2.779-5.062-2.519-9.431 1.435-6.118 5.537-6.722 9.618-2.105 14.235 4.172 4.172 4.818 4.098 10.7-1.226zm-5.796-7.731c1.875-2.259 3.963-3.552 4.641-2.874 1.869 1.869-1.928 6.981-5.184 6.981-1.787 0-1.582-1.546.543-4.107zm-13.659-7.858c1.772-2.135 5.162-3.137 7.534-2.227 3.133 1.202 3.867.494 2.683-2.591-2.133-5.559.646-8.167 4.921-4.619 5.802 4.815 6.784-1.802 1.039-7.002-5.24-4.742-5.637-4.629-14.756 4.21-8.898 8.624-12.154 16.109-7.007 16.109 1.301 0 3.814-1.747 5.586-3.881zm39.925-25.758c-1.851-2.964-4.474-5.389-5.829-5.389-1.355 0-.269 2.425 2.413 5.389 2.682 2.964 5.306 5.389 5.829 5.389.524 0-.562-2.425-2.413-5.389zm-32.334-32.334c-1.851-2.964-4.474-5.389-5.829-5.389-1.355 0-.269 2.425 2.413 5.389 2.682 2.964 5.306 5.389 5.829 5.389.524 0-.562-2.425-2.413-5.389z" fill="#ff7f2a"/><rect width="435.406" height="165.344" x="1667.218" y="2225.132" fill="#ececec" fill-rule="evenodd" stroke="#000" stroke-width=".1"/><path d="M-1.212 627.975v-146.612h13.784c7.581 0 13.784 1.048 13.784 2.329 0 2.452 28.851 30.904 32.793 32.34 1.36.495 2.294-35.432 2.294-88.28v-89.116l7.351 1.47c7.023 1.405 7.386 1.039 8.145-8.208.643-7.834 1.869-9.831 6.433-10.479 3.543-.503 5.639-2.536 5.639-5.47 0-2.568 2.256-5.385 5.012-6.26 4.767-1.513 5.012-3.792 5.012-46.533 0-28.291.929-44.942 2.506-44.942 1.578 0 2.506 16.708 2.506 45.111 0 43.441.186 45.111 5.012 45.111 3.676 0 5.012 1.671 5.012 6.265 0 6.16.336 6.265 20.02 6.265h20.02l1.603 10.025c1.57 9.821 1.813 10.025 11.969 10.025 9.162 0 12.326 1.769 27.248 15.237l16.882 15.237v270.269h18.912l8.656-40.099c4.761-22.054 9.594-40.099 10.741-40.099 1.147 0 1.358-1.177.469-2.616-.889-1.439-.543-3.976.769-5.639 5.464-6.923 6.455-23.273 7.855-129.585l1.469-111.525 10.651-.771 10.651-.771v-27.482l20.676.728 20.676.728.764 11.904.764 11.904h19.326l4.988-21.929c2.744-12.061 7.573-33.771 10.733-48.244 3.159-14.473 6.472-26.879 7.361-27.568 5.187-4.021 7.441-29.793 7.441-85.067v-60.292h-8.772c-6.126 0-8.772-1.134-8.772-3.759 0-2.626 2.645-3.759 8.772-3.759h8.772v-17.778c0-15.67.594-17.933 5.012-19.089 3.55-.929 5.012-3.419 5.012-8.537v-7.226h70.298l1.476 7.382c1.006 5.031 3.181 7.625 6.829 8.145 4.774.681 5.433 2.592 6.094 17.68.56 12.79 1.63 16.917 4.386 16.917 2.005 0 3.645 1.692 3.645 3.759 0 2.068-1.692 3.759-3.759 3.759-3.305 0-3.759 20.98-3.759 173.784 0 95.581.74 189.218 1.645 208.082l1.645 34.298 5.523-5.188c4.835-4.542 8.141-5.097 26.55-4.455 20.774.725 21.036.815 21.808 7.505.735 6.369 1.629 6.816 15.037 7.519l14.256.747.674 57.016.674 57.016h62.56v-47.924l-11.904 1.699c-13.762 1.965-12.433-2.095 1.88-5.741l8.772-2.235.654-106.223c.5-81.155 1.387-106.689 3.759-108.195 1.708-1.085 6.207-1.989 9.997-2.01 5.918-.033 6.892-1.061 6.892-7.273 0-5.94 1.233-7.441 6.892-8.392 3.791-.637 20.188-4.751 36.439-9.142 16.251-4.392 30.63-7.315 31.954-6.497 1.324.818 2.407 5.368 2.407 10.111s1.128 8.624 2.506 8.624c1.626 0 2.506-32.58 2.506-92.729 0-60.148.881-92.729 2.506-92.729 1.626 0 2.506 32.541 2.506 92.609v92.609l15.664.746c14.965.713 15.699 1.05 16.449 7.56l.785 6.814 29.289.705 29.289.705.685 43.163.685 43.163 35.654.695 35.654.695.681 48.244.681 48.244h16.236c14.23 0 16.236-.583 16.236-4.72 0-5.773 6.493-7.731 25.783-7.777l14.505-.034-.293-48.656-.293-48.656 28.393-26.7 28.393-26.701 1.253-61.857 1.253-61.857 6.892-.793 6.892-.793v-76.272c0-49.177.89-76.272 2.506-76.272 1.616 0 2.506 27.15 2.506 76.439v76.439h7.519c6.877 0 7.519-.726 7.519-8.503 0-9.535 2.942-11.525 17.122-11.584 11.512-.049 14.722-2.072 15.832-9.986.735-5.239 2.42-6.393 10.278-7.043 7.177-.594 9.398.146 9.398 3.133 0 2.151 1.128 3.911 2.506 3.911s2.506 2.688 2.506 5.973c0 3.865 1.769 6.436 5.012 7.284 3.955 1.034 5.012 3.419 5.012 11.302 0 6.569 1.288 10.485 3.759 11.434 3.293 1.264 3.759 23.813 3.759 181.966v180.524h37.196l1.049-19.423c.577-10.683.948-74.954.825-142.825-.241-132.534-.894-125.963 12.511-125.963 4.722 0 6.061-1.325 6.061-5.997 0-6.745 4.113-9.04 16.203-9.04 6.167 0 8.608-1.277 9.585-5.012.955-3.65 3.418-5.012 9.064-5.012 7.19 0 7.753-.637 7.753-8.772 0-6.126 1.134-8.772 3.759-8.772 2.626 0 3.759 2.646 3.759 8.772v8.772h20.284c18.177 0 20.42.521 21.595 5.012.721 2.757 2.871 5.012 4.778 5.012 2.786 0 3.467-6.844 3.467-34.818 0-38.867-.503-37.83 18.375-37.899 7.668-.028 9.446-.684 6.687-2.468-2.067-1.336-8.056-2.447-13.309-2.468-9.497-.038-9.545-.091-8.772-9.437.77-9.308.893-9.406 12.682-10.162 11.334-.727 11.904-1.117 11.904-8.145 0-6.203 1-7.381 6.266-7.381h6.266v-62.655c0-40.099.902-62.655 2.506-62.655 1.604 0 2.506 22.556 2.506 62.655 0 58.914.272 62.655 4.561 62.655 2.508 0 7.136 2.963 10.285 6.583 4.618 5.311 5.069 7.034 2.332 8.916-2.128 1.463 14.593 2.009 44.851 1.466l48.244-.867-.038 6.362c-.061 9.977-3.469 13.073-15.942 14.479-14.516 1.636-15.048 5.128-.937 6.149l10.651.771 1.253 99.762 1.253 99.762 15.037 14.305c8.271 7.868 26.803 25.304 41.183 38.748 17.854 16.692 25.331 25.258 23.577 27.012-1.754 1.754-3.586 1.343-5.777-1.297-5.812-7.004-7.607-4.073-7.607 12.425v16.29h35.086v-47.618h57.642v290.718h-1603.958v-146.612zm100.247-310.767c0-2.068-1.128-3.759-2.506-3.759s-2.506 1.692-2.506 3.759c0 2.068 1.128 3.759 2.506 3.759s2.506-1.692 2.506-3.759z" fill="#0b2817"/></g></svg>