<?xml version="1.0" encoding="UTF-8" standalone="no"?>
<!-- Created with Inkscape (http://www.inkscape.org/) -->

<svg
   xmlns:dc="http://purl.org/dc/elements/1.1/"
   xmlns:cc="http://creativecommons.org/ns#"
   xmlns:rdf="http://www.w3.org/1999/02/22-rdf-syntax-ns#"
   xmlns:svg="http://www.w3.org/2000/svg"
   xmlns="http://www.w3.org/2000/svg"
   xmlns:xlink="http://www.w3.org/1999/xlink"
   xmlns:sodipodi="http://sodipodi.sourceforge.net/DTD/sodipodi-0.dtd"
   xmlns:inkscape="http://www.inkscape.org/namespaces/inkscape"
   width="1600px"
   height="1200px"
   id="svg3854"
   version="1.1"
   inkscape:version="0.48.2 r9819"
   sodipodi:docname="BgCity.svg">
  <defs
     id="defs3856">
    <linearGradient
       inkscape:collect="always"
       id="linearGradient4959">
      <stop
         style="stop-color:#000000;stop-opacity:1;"
         offset="0"
         id="stop4961" />
      <stop
         style="stop-color:#000000;stop-opacity:0;"
         offset="1"
         id="stop4963" />
    </linearGradient>
    <linearGradient
       inkscape:collect="always"
       id="linearGradient4951">
      <stop
         style="stop-color:#000000;stop-opacity:1;"
         offset="0"
         id="stop4953" />
      <stop
         style="stop-color:#000000;stop-opacity:0;"
         offset="1"
         id="stop4955" />
    </linearGradient>
    <pattern
       inkscape:collect="always"
       xlink:href="#pattern6314"
       id="pattern6324"
       patternTransform="matrix(2.4783084,0,0,2.4783084,11.026305,741.05132)" />
    <pattern
       inkscape:collect="always"
       xlink:href="#pattern6308"
       id="pattern6314"
       patternTransform="matrix(2.4783084,0,0,2.4783084,53.452712,760.24421)" />
    <pattern
       inkscape:collect="always"
       xlink:href="#pattern6305"
       id="pattern6308"
       patternTransform="matrix(2.4783084,0,0,2.4783084,30.219203,760.24421)" />
    <pattern
       inkscape:collect="always"
       xlink:href="#pattern6277"
       id="pattern6305"
       patternTransform="matrix(10,0,0,10,-2.5253772,61.114229)" />
    <pattern
       inkscape:collect="always"
       xlink:href="#Strips1_1white"
       id="pattern6277"
       patternTransform="matrix(10,0,0,10,-3.2829916,41.163716)" />
    <pattern
       inkscape:stockid="Stripes 1:1 white"
       id="Strips1_1white"
       patternTransform="translate(0,0) scale(10,10)"
       height="1"
       width="2"
       patternUnits="userSpaceOnUse"
       inkscape:collect="always">
      <rect
         id="rect4756"
         height="2"
         width="1"
         y="-0.5"
         x="0"
         style="fill:white;stroke:none" />
    </pattern>
    <pattern
       inkscape:collect="always"
       xlink:href="#pattern6324"
       id="pattern6343"
       patternTransform="matrix(2.4783084,0,0,2.4783084,59.513627,741.05132)" />
    <pattern
       inkscape:collect="always"
       xlink:href="#pattern6314"
       id="pattern3036"
       patternTransform="matrix(2.4783084,0,0,2.4783084,11.026305,741.05132)" />
    <pattern
       inkscape:collect="always"
       xlink:href="#pattern6308"
       id="pattern3038"
       patternTransform="matrix(2.4783084,0,0,2.4783084,53.452712,760.24421)" />
    <pattern
       inkscape:collect="always"
       xlink:href="#pattern6305"
       id="pattern3040"
       patternTransform="matrix(2.4783084,0,0,2.4783084,30.219203,760.24421)" />
    <pattern
       inkscape:collect="always"
       xlink:href="#pattern6277"
       id="pattern3042"
       patternTransform="matrix(10,0,0,10,-2.5253772,61.114229)" />
    <pattern
       inkscape:collect="always"
       xlink:href="#Strips1_1white"
       id="pattern3044"
       patternTransform="matrix(10,0,0,10,-3.2829916,41.163716)" />
    <pattern
       inkscape:collect="always"
       xlink:href="#pattern6314"
       id="pattern3050"
       patternTransform="matrix(2.4783084,0,0,2.4783084,11.026305,741.05132)" />
    <pattern
       inkscape:collect="always"
       xlink:href="#pattern6308"
       id="pattern3052"
       patternTransform="matrix(2.4783084,0,0,2.4783084,53.452712,760.24421)" />
    <pattern
       inkscape:collect="always"
       xlink:href="#pattern6305"
       id="pattern3054"
       patternTransform="matrix(2.4783084,0,0,2.4783084,30.219203,760.24421)" />
    <pattern
       inkscape:collect="always"
       xlink:href="#pattern6277"
       id="pattern3056"
       patternTransform="matrix(10,0,0,10,-2.5253772,61.114229)" />
    <pattern
       inkscape:collect="always"
       xlink:href="#Strips1_1white"
       id="pattern3058"
       patternTransform="matrix(10,0,0,10,-3.2829916,41.163716)" />
    <pattern
       inkscape:collect="always"
       xlink:href="#pattern6324"
       id="pattern3064"
       patternTransform="matrix(2.4783084,0,0,2.4783084,59.513627,741.05132)" />
    <pattern
       inkscape:collect="always"
       xlink:href="#pattern6314"
       id="pattern3066"
       patternTransform="matrix(2.4783084,0,0,2.4783084,11.026305,741.05132)" />
    <pattern
       inkscape:collect="always"
       xlink:href="#pattern6308"
       id="pattern3068"
       patternTransform="matrix(2.4783084,0,0,2.4783084,53.452712,760.24421)" />
    <pattern
       inkscape:collect="always"
       xlink:href="#pattern6305"
       id="pattern3070"
       patternTransform="matrix(2.4783084,0,0,2.4783084,30.219203,760.24421)" />
    <pattern
       inkscape:collect="always"
       xlink:href="#pattern6277"
       id="pattern3072"
       patternTransform="matrix(10,0,0,10,-2.5253772,61.114229)" />
    <pattern
       inkscape:collect="always"
       xlink:href="#Strips1_1white"
       id="pattern3074"
       patternTransform="matrix(10,0,0,10,-3.2829916,41.163716)" />
    <linearGradient
       inkscape:collect="always"
       xlink:href="#linearGradient4951"
       id="linearGradient4957"
       x1="4772.8456"
       y1="1087.2238"
       x2="5472.3239"
       y2="1087.2238"
       gradientUnits="userSpaceOnUse" />
    <linearGradient
       inkscape:collect="always"
       xlink:href="#linearGradient4959"
       id="linearGradient4965"
       x1="4345.3232"
       y1="1951.6626"
       x2="5305.8115"
       y2="1951.6626"
       gradientUnits="userSpaceOnUse" />
    <linearGradient
       inkscape:collect="always"
       xlink:href="#linearGradient4951"
       id="linearGradient4977"
       gradientUnits="userSpaceOnUse"
       x1="4772.8456"
       y1="1087.2238"
       x2="5472.3239"
       y2="1087.2238" />
    <linearGradient
       inkscape:collect="always"
       xlink:href="#linearGradient4959"
       id="linearGradient4979"
       gradientUnits="userSpaceOnUse"
       x1="4345.3232"
       y1="1951.6626"
       x2="5305.8115"
       y2="1951.6626" />
    <linearGradient
       inkscape:collect="always"
       xlink:href="#linearGradient4959"
       id="linearGradient4986"
       gradientUnits="userSpaceOnUse"
       x1="4345.3232"
       y1="1951.6626"
       x2="5305.8115"
       y2="1951.6626"
       gradientTransform="translate(297.01752,-50)" />
    <linearGradient
       inkscape:collect="always"
       xlink:href="#linearGradient4951"
       id="linearGradient4990"
       gradientUnits="userSpaceOnUse"
       x1="4772.8456"
       y1="1087.2238"
       x2="5472.3239"
       y2="1087.2238"
       gradientTransform="matrix(0.74569765,0,0,0.74569765,1302.6856,212.12047)" />
    <linearGradient
       inkscape:collect="always"
       xlink:href="#linearGradient4951"
       id="linearGradient5059"
       gradientUnits="userSpaceOnUse"
       gradientTransform="matrix(0.74569765,0,0,0.74569765,1302.6856,212.12047)"
       x1="4772.8456"
       y1="1087.2238"
       x2="5472.3239"
       y2="1087.2238" />
    <linearGradient
       inkscape:collect="always"
       xlink:href="#linearGradient4959"
       id="linearGradient5061"
       gradientUnits="userSpaceOnUse"
       gradientTransform="translate(297.01752,-50)"
       x1="4345.3232"
       y1="1951.6626"
       x2="5305.8115"
       y2="1951.6626" />
    <linearGradient
       inkscape:collect="always"
       xlink:href="#linearGradient4959"
       id="linearGradient5072"
       gradientUnits="userSpaceOnUse"
       gradientTransform="translate(297.01752,-50)"
       x1="4345.3232"
       y1="1951.6626"
       x2="5305.8115"
       y2="1951.6626" />
    <linearGradient
       inkscape:collect="always"
       xlink:href="#linearGradient4951"
       id="linearGradient5076"
       gradientUnits="userSpaceOnUse"
       gradientTransform="matrix(0.74569765,0,0,0.74569765,1302.6856,212.12047)"
       x1="4772.8456"
       y1="1087.2238"
       x2="5472.3239"
       y2="1087.2238" />
    <linearGradient
       inkscape:collect="always"
       xlink:href="#linearGradient4951"
       id="linearGradient5207"
       gradientUnits="userSpaceOnUse"
       gradientTransform="matrix(0.74569765,0,0,0.74569765,1302.6856,212.12047)"
       x1="4772.8456"
       y1="1087.2238"
       x2="5472.3239"
       y2="1087.2238" />
    <linearGradient
       inkscape:collect="always"
       xlink:href="#linearGradient4959"
       id="linearGradient5209"
       gradientUnits="userSpaceOnUse"
       gradientTransform="translate(297.01752,-50)"
       x1="4345.3232"
       y1="1951.6626"
       x2="5305.8115"
       y2="1951.6626" />
    <linearGradient
       inkscape:collect="always"
       xlink:href="#linearGradient4951"
       id="linearGradient3842"
       gradientUnits="userSpaceOnUse"
       gradientTransform="matrix(0.74569765,0,0,0.74569765,1302.6856,212.12047)"
       x1="4772.8456"
       y1="1087.2238"
       x2="5472.3239"
       y2="1087.2238" />
    <linearGradient
       inkscape:collect="always"
       xlink:href="#linearGradient4959"
       id="linearGradient3844"
       gradientUnits="userSpaceOnUse"
       gradientTransform="translate(297.01752,-50)"
       x1="4345.3232"
       y1="1951.6626"
       x2="5305.8115"
       y2="1951.6626" />
  </defs>
  <sodipodi:namedview
     id="base"
     pagecolor="#ffffff"
     bordercolor="#666666"
     borderopacity="1.0"
     inkscape:pageopacity="0.0"
     inkscape:pageshadow="2"
     inkscape:zoom="0.36288"
     inkscape:cx="895.26085"
     inkscape:cy="866.683"
     inkscape:current-layer="layer1"
     inkscape:document-units="px"
     showgrid="false"
     inkscape:snap-page="false"
     inkscape:window-width="1440"
     inkscape:window-height="786"
     inkscape:window-x="0"
     inkscape:window-y="0"
     inkscape:window-maximized="1" />
  <metadata
     id="metadata3859">
    <rdf:RDF>
      <cc:Work
         rdf:about="">
        <dc:format>image/svg+xml</dc:format>
        <dc:type
           rdf:resource="http://purl.org/dc/dcmitype/StillImage" />
        <dc:title />
      </cc:Work>
    </rdf:RDF>
  </metadata>
  <g
     id="layer1"
     inkscape:label="Layer 1"
     inkscape:groupmode="layer">
    <flowRoot
       xml:space="preserve"
       id="flowRoot4493"
       style="fill:black;stroke:none;stroke-opacity:1;stroke-width:1px;stroke-linejoin:miter;stroke-linecap:butt;fill-opacity:1;font-family:Futura;font-style:normal;font-weight:500;font-size:40px;line-height:125%;letter-spacing:0px;word-spacing:0px;-inkscape-font-specification:Futura Medium;font-stretch:normal;font-variant:normal"><flowRegion
         id="flowRegion4495"><rect
           id="rect4497"
           width="431.33514"
           height="51.854496"
           x="153.20647"
           y="301.9744" /></flowRegion><flowPara
         id="flowPara4499" /></flowRoot>    <path
       style="fill:#ff7f2a"
       d="m 2933.9401,1428.4008 -179.0501,-179.0653 56.4592,-0.035 56.4592,-0.035 123.2721,123.1795 123.2721,123.1794 0,51.795 c 0,48.1874 -0.3284,51.6753 -4.7153,50.0755 -4.2332,-1.5438 -4.1905,-1.1218 0.4176,4.1262 2.8231,3.2153 4.6385,5.8459 4.0341,5.8459 -0.6043,0 -81.6713,-80.5794 -180.1489,-179.0653 z m 1.5626,-5.3321 c -94.2241,-94.2002 -172.2483,-171.2731 -173.3871,-171.2731 -1.1387,0 75.4746,77.5521 170.2518,172.338 94.7772,94.7859 172.8014,171.8587 173.3871,171.273 0.5857,-0.5857 -76.0276,-78.1378 -170.2518,-172.3379 z m 119.9315,81.8147 c 3.7192,-1.9904 5.1595,-5.1291 4.6375,-10.1058 -0.4165,-3.9704 0.229,-8.8144 1.4342,-10.7645 5.0774,-8.2155 -1.9312,-6.1078 -11.829,3.5572 -10.0334,9.7973 -10.4171,10.7348 -6.2692,15.3181 5.1903,5.7352 5.074,5.7159 12.0265,1.995 z m -7.0961,-7.8907 c 0.9159,-1.482 2.8062,-2.6945 4.2007,-2.6945 1.3945,0 2.5354,1.2125 2.5354,2.6945 0,1.482 -1.8903,2.6945 -4.2007,2.6945 -2.3104,0 -3.4514,-1.2125 -2.5354,-2.6945 z m -4.3088,-9.1464 c 3.3349,-3.5498 4.8954,-7.1724 3.4695,-8.0538 -1.4255,-0.881 -4.0902,0.2036 -5.9216,2.4103 -1.8313,2.2066 -4.5816,4.012 -6.1118,4.012 -1.5302,0 -0.5808,-2.4325 2.1097,-5.4055 6.3654,-7.0336 2.9935,-10.4055 -4.0401,-4.0401 -6.1825,5.595 -6.8011,9.6667 -2.1721,14.2957 4.4726,4.4726 5.7446,4.1494 12.6664,-3.2186 z m 50.8367,-7.0204 c -1.851,-2.964 -4.4742,-5.389 -5.8294,-5.389 -1.3551,0 -0.2694,2.425 2.413,5.389 2.6823,2.9639 5.3055,5.3889 5.8294,5.3889 0.5239,0 -0.562,-2.425 -2.413,-5.3889 z m -61.5548,-8.2907 c 8.0865,-8.0865 10.4816,-13.2651 6.1351,-13.2651 -1.1856,0 -3.5904,1.4348 -5.344,3.1884 -4.5908,4.5907 -7.6874,0.1758 -4.0085,-5.7149 5.8353,-9.3439 -0.2598,-8.3784 -10.5516,1.6713 -7.9598,7.7725 -10.274,8.9419 -10.274,5.1915 0,-2.6625 2.425,-5.475 5.3889,-6.2501 6.0475,-1.5814 7.4779,-11.5586 1.6572,-11.5586 -3.9832,0 -12.4351,11.1797 -12.4351,16.4486 0,1.7412 2.1219,4.7226 4.7154,6.6253 3.9097,2.8685 5.5318,2.7229 9.4943,-0.8518 3.2446,-2.9271 5.6603,-3.4299 7.524,-1.5662 1.8637,1.8637 1.4107,3.8523 -1.4109,6.1941 -2.2858,1.897 -4.1559,4.5131 -4.1559,5.8136 0,4.5491 5.0426,2.2963 13.2651,-5.9261 z m -16.1877,-34.1473 c 0.1255,-1.8524 -0.9844,-3.3681 -2.4664,-3.3681 -1.4819,0 -2.6944,1.8188 -2.6944,4.0417 0,2.223 -1.4202,4.0417 -3.156,4.0417 -4.6204,0 -13.0109,8.2902 -13.0109,12.8553 0,4.7956 20.9838,-12.4916 21.3277,-17.5706 z m 45.4088,10.1043 c -1.8509,-2.9639 -4.4742,-5.389 -5.8293,-5.389 -1.3552,0 -0.2695,2.4251 2.4129,5.389 2.6824,2.9639 5.3056,5.3889 5.8294,5.3889 0.5239,0 -0.562,-2.425 -2.413,-5.3889 z m -64.042,-1.3473 c 3.4413,-4.1465 2.1745,-5.0205 -6.0626,-4.1826 -5.4044,0.5498 -6.265,-5.3149 -1.4819,-10.0981 4.2238,-4.2238 12.1585,-4.1457 13.6873,0.1348 0.6616,1.8524 2.2353,2.4005 3.4973,1.218 2.9064,-2.7236 -2.2093,-11.0713 -7.4144,-12.0984 -2.163,-0.4269 -7.1863,1.783 -11.1627,4.9109 -8.3118,6.5381 -9.5665,17.1395 -2.5145,21.2469 6.3457,3.696 7.5432,3.5777 11.4515,-1.1315 z m -19.4074,-33.5403 c -0.5968,-5.1227 -2.3134,-6.8259 -6.7297,-6.6772 -3.2608,0.1097 -5.3715,-0.7019 -4.6906,-1.8036 2.0896,-3.3811 -6.7993,-10.3887 -11.0895,-8.7424 -2.2212,0.8524 -5.3709,4.0393 -6.9993,7.0821 -2.3798,4.4466 -2.0228,6.2181 1.819,9.0273 2.6289,1.9223 5.8438,2.8375 7.1441,2.0339 1.3004,-0.8037 2.1907,-0.4617 1.9785,0.7599 -1.0369,5.9687 0.7363,6.6601 5.6577,2.2062 6.7744,-6.1307 10.517,-3.1167 4.4519,3.5852 -5.8901,6.5084 -2.3277,9.8913 4.1975,3.986 3.0346,-2.7462 4.7407,-7.3345 4.2604,-11.4574 z m -24.7912,-5.1086 c -0.9325,-1.5086 -0.3824,-3.5545 1.2223,-4.5463 4.1428,-2.5603 6.8156,0.9468 3.3573,4.4051 -1.9351,1.9351 -3.4422,1.9816 -4.5796,0.1412 z m 62.4346,-5.8099 c -1.851,-2.9639 -4.4742,-5.3889 -5.8294,-5.3889 -1.3552,0 -0.2694,2.425 2.413,5.3889 2.6823,2.964 5.3055,5.389 5.8294,5.389 0.5238,0 -0.562,-2.425 -2.413,-5.389 z m -79.0687,-11.4303 c -1.7365,-5.4711 -1.4798,-5.6782 2.7182,-2.1942 4.0179,3.3346 4.962,3.3318 7.0836,-0.021 1.3463,-2.1276 2.4664,-4.6293 2.4891,-5.5594 0.088,-3.6195 -7.5726,-7.7507 -11.5457,-6.2261 -3.0748,1.1799 -3.8403,0.282 -2.8823,-3.3812 0.8082,-3.0907 -1.3441,-7.4757 -5.6592,-11.5295 l -6.9634,-6.5418 -7.1933,7.1933 c -8.1383,8.1383 -6.3957,13.5636 1.935,6.0244 6.5082,-5.8898 7.2318,-2.4573 0.9461,4.4882 -4.0435,4.4679 -4.056,4.9274 -0.1339,4.9274 2.379,0 5.5073,-2.1118 6.9517,-4.6929 1.4445,-2.5811 3.5182,-3.801 4.6082,-2.711 1.09,1.09 -0.2262,4.4218 -2.9249,7.4039 -5.663,6.2575 -3.5217,10.5478 2.691,5.3918 3.5112,-2.9141 3.9009,-2.7622 2.4713,0.9632 -2.0911,5.4495 0.3721,12.5063 4.3653,12.5063 1.841,0 2.2355,-2.2847 1.0432,-6.0414 z m 46.735,-20.9033 c -1.851,-2.964 -4.4742,-5.389 -5.8294,-5.389 -1.3551,0 -0.2693,2.425 2.413,5.389 2.6823,2.9639 5.3056,5.3889 5.8294,5.3889 0.5239,0 -0.562,-2.425 -2.413,-5.3889 z m -80.2089,-17.6731 c 0,-2.1355 1.8188,-3.8827 4.0418,-3.8827 2.2229,0 4.0417,-1.2125 4.0417,-2.6945 0,-1.482 -1.4005,-2.6945 -3.1121,-2.6945 -1.819,0 -1.1863,-2.1279 1.5227,-5.1214 9.2092,-10.176 -0.4874,-7.8636 -10.6447,2.5386 -9.2628,9.4859 -10.0246,12.0536 -3.2592,10.9853 1.1115,-0.1755 2.0209,1.5713 2.0209,3.8817 0,2.3104 1.2125,3.4513 2.6945,2.5354 1.4819,-0.9159 2.6944,-3.4125 2.6944,-5.5479 z m -5.8504,-14.6606 c 3.9541,0 4.1249,-4.4721 0.262,-6.8595 -3.5445,-2.1906 -16.4054,9.3598 -14.2696,12.8156 0.8425,1.3631 3.6287,0.5806 6.1917,-1.7389 2.563,-2.3195 6.0802,-4.2172 7.8159,-4.2172 z m 53.7256,0 c -1.851,-2.9639 -4.4742,-5.389 -5.8293,-5.389 -1.3552,0 -0.2694,2.4251 2.4129,5.389 2.6824,2.9639 5.3056,5.3889 5.8294,5.3889 0.5239,0 -0.562,-2.425 -2.413,-5.3889 z m -66.275,-4.4593 c 6,-5.4299 6.2608,-9.9411 0.8352,-14.444 -3.3489,-2.7793 -5.0619,-2.5187 -9.4306,1.4349 -6.1182,5.5369 -6.7218,9.6183 -2.1051,14.235 4.1718,4.1717 4.8179,4.0977 10.7005,-1.2259 z m -5.7964,-7.731 c 1.8746,-2.2587 3.9633,-3.5519 4.6415,-2.8737 1.8686,1.8686 -1.928,6.9806 -5.1845,6.9806 -1.7866,0 -1.5822,-1.5461 0.543,-4.1069 z m -13.6593,-7.8581 c 1.7718,-2.1349 5.162,-3.1369 7.5339,-2.2267 3.1333,1.2024 3.867,0.4939 2.6831,-2.5912 -2.1332,-5.5591 0.6457,-8.1671 4.9213,-4.6187 5.802,4.8152 6.7838,-1.8023 1.0387,-7.0015 -5.2398,-4.7419 -5.6367,-4.6287 -14.756,4.2102 -8.898,8.6242 -12.1537,16.1094 -7.007,16.1094 1.3006,0 3.8142,-1.7467 5.586,-3.8815 z m 39.9247,-25.7577 c -1.851,-2.9639 -4.4742,-5.3889 -5.8294,-5.3889 -1.3552,0 -0.2693,2.425 2.413,5.3889 2.6823,2.9639 5.3055,5.389 5.8294,5.389 0.5238,0 -0.562,-2.4251 -2.413,-5.389 z m -32.3337,-32.3337 c -1.851,-2.9639 -4.4742,-5.3889 -5.8294,-5.3889 -1.3551,0 -0.2693,2.425 2.413,5.3889 2.6823,2.964 5.3056,5.389 5.8294,5.389 0.5239,0 -0.562,-2.425 -2.413,-5.389 z"
       id="path5193"
       inkscape:connector-curvature="0" />
    <rect
       style="fill:#ececec;fill-opacity:1;fill-rule:evenodd;stroke:#000000;stroke-width:0.1;stroke-linejoin:miter;stroke-miterlimit:4;stroke-opacity:1;stroke-dasharray:none"
       id="rect3846"
       width="435.40564"
       height="165.34392"
       x="1667.2179"
       y="2225.1321" />
    <path
       style="fill:#000000"
       d="m -1.226626,525.05009 0,-96.46672 11.712991,0.5591 c 14.379929,0.68644 15.146472,0.87226 17.181837,4.16558 1.869071,3.02423 25.749803,26.70568 29.224034,28.98012 1.264953,0.82811 2.512141,1.29351 2.771532,1.0341 1.192142,-1.19213 1.883105,-39.15141 1.918767,-105.41074 l 0.03884,-72.16687 1.860632,0.44093 c 5.978639,1.41681 10.235158,1.85211 11.498822,1.17575 0.957071,-0.51221 1.574933,-2.27121 1.935507,-5.51028 0.891811,-8.01115 2.177084,-11.22858 4.96525,-12.42951 5.825866,-2.50932 6.584218,-3.15577 7.490263,-6.38506 0.669637,-2.38667 1.886663,-3.94956 4.518771,-5.80292 2.148922,-1.51313 3.895782,-3.5236 4.329706,-4.98308 0.400077,-1.3456 1.058931,-20.30862 1.464119,-42.14004 0.670703,-36.13759 1.376653,-47.74815 2.689973,-44.24168 1.13353,3.02647 1.63679,14.41201 2.15656,48.78989 0.40356,26.69196 0.83601,37.30043 1.57449,38.62421 0.61356,1.09986 2.17309,2.04172 3.92478,2.37034 3.41495,0.64065 4.51576,2.31899 4.51576,6.88494 0,5.11007 0.93442,5.35283 22.03863,5.72548 l 18.31738,0.32344 0.956,6.53817 c 1.78902,12.23519 2.6001,13.10448 12.28666,13.16807 9.68892,0.0637 11.81383,1.33891 31.78365,19.07561 l 13.02442,11.56792 0,135.57803 0,135.57794 9.50989,0 c 5.23044,0 9.5099,-0.16862 9.5099,-0.37461 0,-0.20607 2.20599,-10.53258 4.90219,-22.94779 6.81549,-31.3834 11.27898,-49.5511 13.36529,-54.4009 0.99029,-2.30197 1.56793,-4.92546 1.3055,-5.92896 -0.27602,-1.05552 0.34903,-3.53859 1.51116,-6.00323 4.10683,-8.70957 5.02775,-18.67942 6.19359,-67.05104 0.81926,-33.99209 2.48781,-144.03977 2.4909,-164.28527 l 0.002,-9.64608 6.40884,-0.50787 c 3.52486,-0.27934 8.3625,-0.71 10.75031,-0.95701 l 4.34148,-0.44913 0,-13.65207 0,-13.65208 20.05347,0.57705 c 11.02941,0.31737 20.3421,0.84079 20.69486,1.16314 0.47794,0.43676 1.94604,15.3112 2.22881,22.58192 0.0285,0.73306 19.87086,0.85225 19.87086,0.11935 0,-0.27547 3.36888,-15.62568 7.48641,-34.11158 8.26222,-37.09371 13.75945,-60.11919 14.83139,-62.12213 0.38481,-0.71903 6.96361,-3.87142 14.61956,-7.00531 45.26102,-18.52724 68.02211,-30.85818 80.90264,-43.82946 3.18375,-3.20617 6.19202,-6.55891 6.68504,-7.45053 0.64883,-1.173395 1.0546,34.79774 1.46919,130.24422 0.52211,120.19746 1.12288,161.97079 2.69044,187.07353 l 0.55571,8.89903 3.39624,-2.94295 c 6.96387,-6.0344 8.52308,-6.37402 27.68235,-6.02968 20.60129,0.37022 21.4363,0.63112 22.89578,7.15384 0.54175,2.42113 1.35475,4.77181 1.80665,5.22374 1.04906,1.04907 9.16911,2.24897 19.3114,2.85371 l 7.93279,0.47302 0.54342,18.67247 c 0.29888,10.26994 0.54466,30.05532 0.54617,43.96755 0.002,13.91224 0.24585,31.15599 0.54294,38.31942 l 0.54019,13.02442 31.29453,0 31.29454,0 0,-24.04721 0,-24.04714 -2.27411,0.46425 c -6.28089,1.28243 -16.91958,2.13286 -18.1396,1.45005 -1.17146,-0.65552 -1.08698,-0.91783 0.66561,-2.06612 1.10406,-0.72342 5.59715,-2.32431 9.98465,-3.55745 l 7.97727,-2.24219 0.45335,-7.50214 c 0.24934,-4.12622 0.64379,-44.34266 0.87657,-89.36995 0.39836,-77.05876 1.29247,-112.2739 2.96212,-116.6654 0.81846,-2.15271 5.03855,-3.64352 10.33456,-3.65085 5.20852,-0.007 6.69171,-1.54923 7.23312,-7.51995 0.25465,-2.80839 0.95902,-5.5868 1.56526,-6.17426 1.34115,-1.29961 62.86701,-16.75637 69.50876,-17.46226 4.44501,-0.47241 4.77648,-0.3832 5.47354,1.47312 0.40809,1.0868 1.00154,4.78499 1.31875,8.21819 0.57909,6.26734 1.51453,9.11128 2.63002,7.9958 1.40721,-1.4072 2.01731,-22.9809 2.78805,-98.58663 0.44975,-44.11764 1.11687,-81.702407 1.4825,-83.521691 0.61357,-3.052933 0.71126,-3.148503 1.26805,-1.240421 0.95603,3.276258 2.16163,75.842322 2.19297,131.996652 l 0.0287,51.36928 3.10106,0.51256 c 1.70557,0.28192 5.51987,0.52817 8.47621,0.54721 7.66128,0.0494 17.54125,1.45698 18.7452,2.67066 0.56423,0.5688 1.32199,3.453 1.68391,6.40933 l 0.65805,5.37516 29.35663,0.82697 29.35663,0.82695 0.50808,23.15453 c 0.27944,12.73499 0.55853,32.17859 0.62021,43.208 0.0617,11.02941 0.20516,20.06331 0.31887,20.07539 0.1137,0.0124 16.16068,0.36774 35.66002,0.79048 19.49934,0.42265 35.58305,0.89814 35.74158,1.05667 0.15844,0.15853 0.49782,18.87425 0.75401,41.59058 0.25619,22.71632 0.67545,44.40798 0.93172,48.20367 l 0.46582,6.90121 14.67823,-0.28563 c 16.14326,-0.31416 16.88594,-0.53454 17.77515,-5.27477 0.98167,-5.23243 7.92803,-7.0016 27.49063,-7.0016 l 12.66577,0 0,-49.143 0,-49.14292 20.88043,-19.64645 c 11.48422,-10.80564 24.22952,-22.83384 28.32292,-26.7295 l 7.4426,-7.08297 1.2404,-62.02108 1.2404,-62.02106 6.8223,-0.70299 6.8223,-0.70298 0.018,-51.3947 c 0.018,-51.180931 1.0395,-97.305692 2.2211,-100.277096 1.5697,-3.947425 2.0134,10.368846 2.4437,78.859236 l 0.4585,72.97811 5.9056,-0.0127 c 3.2481,-0.007 6.3976,-0.32466 6.9991,-0.70598 1.3189,-0.83624 2.581,-5.90187 2.608,-10.46788 0.04,-6.71865 2.7385,-8.12594 17.3411,-9.04282 12.0723,-0.75802 13.0041,-1.41425 15.8965,-11.19466 0.9221,-3.11803 1.5697,-3.88126 3.9948,-4.70828 3.0924,-1.05458 11.4124,-1.40903 13.577,-0.57841 0.7194,0.27607 1.308,1.20978 1.308,2.0749 0,0.86512 1.0762,2.69896 2.3913,4.07519 1.5935,1.66743 2.5813,3.76878 2.9606,6.29842 0.5898,3.93308 3.4142,7.72323 5.7553,7.72323 2.266,0 3.6953,3.60275 4.2675,10.75689 0.5887,7.36032 1.165,9.19413 3.7995,12.09181 1.311,1.44188 1.7468,3.76786 2.4017,12.81768 0.4502,6.22238 1.0181,85.26287 1.2988,180.78712 l 0.4988,169.73095 18.41,0 18.41,0 0.5331,-3.51452 c 0.2931,-1.93299 0.8567,-62.68262 1.2524,-134.99917 0.7009,-128.12496 1.0005,-141.11129 3.3879,-146.87509 1.1537,-2.78505 3.9656,-4.04282 9.0382,-4.04282 4.9707,0 6.6358,-1.45576 6.6358,-5.80159 0,-2.1578 0.626,-3.93038 1.9188,-5.43342 1.7337,-2.0154 2.7118,-2.30522 10.1301,-3.00122 9.8246,-0.92175 11.8848,-1.79783 13.8129,-5.87346 1.6847,-3.56143 4.0066,-4.69874 9.5927,-4.69874 5.8005,0 6.6979,-1.0212 7.2779,-8.28163 0.5647,-7.06936 1.342,-9.08426 3.5045,-9.08426 2.5764,0 3.36,1.94648 3.9115,9.71519 l 0.5307,7.47742 18.9738,0.29338 18.9737,0.29338 1.789,2.16107 c 0.984,1.18859 2.423,3.32832 3.1977,4.75494 0.8467,1.55894 2.0617,2.59388 3.0453,2.59388 3.0446,0 3.5092,-4.09179 4.1723,-36.74453 0.641,-31.5627 0.9433,-33.36714 5.8798,-35.08799 1.4812,-0.51636 5.9563,-0.93885 9.9446,-0.93885 7.441,0 9.8676,-0.43352 9.8676,-1.76284 0,-1.39423 -4.4713,-2.48815 -12.9579,-3.17014 -4.6253,-0.3717 -8.8627,-0.95584 -9.4165,-1.2981 -1.1917,-0.73646 -0.5282,-12.6499 0.8476,-15.22055 1.0911,-2.03875 2.133,-2.33856 11.4781,-3.30264 10.2002,-1.05231 11.7026,-2.04996 11.7026,-7.77116 0,-6.14057 1.1616,-7.38055 7.3314,-7.82684 l 5.0728,-0.36693 0.031,-33.598719 c 0.036,-38.492643 1.195,-87.4064413 2.1284,-89.7995609 1.6328,-4.18581757 2.1508,6.7558959 2.8172,59.5086319 0.3907,30.927836 0.967,57.621938 1.2808,59.320238 0.6581,3.56351 1.2774,4.1827 5.5636,5.56369 3.6377,1.17206 11.0792,8.23988 11.8315,11.23752 0.2825,1.12561 0.082,2.5665 -0.4452,3.20198 -1.6789,2.02299 9.5513,2.40841 52.2517,1.79332 l 40.3137,-0.58072 0,5.50259 c 0,6.43091 -1.6907,10.67663 -4.9157,12.3443 -1.2164,0.62906 -6.2829,1.92907 -11.2589,2.88891 -10.4208,2.01011 -12.8882,3.45037 -8.4313,4.9213 1.5693,0.51794 6.3522,1.21065 10.6286,1.53934 l 7.7752,0.59764 0.601,44.65516 c 0.3305,24.56034 0.8988,69.58764 1.2627,100.06066 l 0.6618,55.40547 8.2472,7.91422 c 4.5359,4.3528 18.1084,17.16701 30.1612,28.4761 34.1034,31.99898 43.3086,41.73264 41.7903,44.18934 -1.0208,1.65174 -3.4299,0.87094 -6.2316,-2.01966 -5.5876,-5.76498 -6.6275,-3.61144 -7.2279,14.96833 l -0.4649,14.38831 17.9045,0 17.9045,0 0,-23.98148 0,-23.98147 28.9432,0 28.9431,0 0,95.09895 0,95.09895 -805.44676,0 -805.4467652,0 0,-96.46672 z M 98.361463,267.11076 c 1.669157,-1.66916 1.657427,-4.01308 -0.02853,-5.69904 -1.025349,-1.02535 -1.590774,-1.10997 -2.480842,-0.37129 -1.41399,1.17352 -1.510957,5.02699 -0.16047,6.37748 1.234997,1.23499 1.113766,1.24894 2.669858,-0.30715 z"
       id="path3098"
       inkscape:connector-curvature="0" />
  </g>
</svg>
