<?xml version="1.0" encoding="UTF-8" standalone="no"?>
<!-- Created with Inkscape (http://www.inkscape.org/) -->

<svg
   xmlns:dc="http://purl.org/dc/elements/1.1/"
   xmlns:cc="http://creativecommons.org/ns#"
   xmlns:rdf="http://www.w3.org/1999/02/22-rdf-syntax-ns#"
   xmlns:svg="http://www.w3.org/2000/svg"
   xmlns="http://www.w3.org/2000/svg"
   xmlns:xlink="http://www.w3.org/1999/xlink"
   xmlns:sodipodi="http://sodipodi.sourceforge.net/DTD/sodipodi-0.dtd"
   xmlns:inkscape="http://www.inkscape.org/namespaces/inkscape"
   width="1600px"
   height="1200px"
   id="svg3854"
   version="1.1"
   inkscape:version="0.48.2 r9819"
   sodipodi:docname="BgCity.svg">
  <defs
     id="defs3856">
    <linearGradient
       inkscape:collect="always"
       id="linearGradient4959">
      <stop
         style="stop-color:#000000;stop-opacity:1;"
         offset="0"
         id="stop4961" />
      <stop
         style="stop-color:#000000;stop-opacity:0;"
         offset="1"
         id="stop4963" />
    </linearGradient>
    <linearGradient
       inkscape:collect="always"
       id="linearGradient4951">
      <stop
         style="stop-color:#000000;stop-opacity:1;"
         offset="0"
         id="stop4953" />
      <stop
         style="stop-color:#000000;stop-opacity:0;"
         offset="1"
         id="stop4955" />
    </linearGradient>
    <pattern
       inkscape:collect="always"
       xlink:href="#pattern6314"
       id="pattern6324"
       patternTransform="matrix(2.4783084,0,0,2.4783084,11.026305,741.05132)" />
    <pattern
       inkscape:collect="always"
       xlink:href="#pattern6308"
       id="pattern6314"
       patternTransform="matrix(2.4783084,0,0,2.4783084,53.452712,760.24421)" />
    <pattern
       inkscape:collect="always"
       xlink:href="#pattern6305"
       id="pattern6308"
       patternTransform="matrix(2.4783084,0,0,2.4783084,30.219203,760.24421)" />
    <pattern
       inkscape:collect="always"
       xlink:href="#pattern6277"
       id="pattern6305"
       patternTransform="matrix(10,0,0,10,-2.5253772,61.114229)" />
    <pattern
       inkscape:collect="always"
       xlink:href="#Strips1_1white"
       id="pattern6277"
       patternTransform="matrix(10,0,0,10,-3.2829916,41.163716)" />
    <pattern
       inkscape:stockid="Stripes 1:1 white"
       id="Strips1_1white"
       patternTransform="translate(0,0) scale(10,10)"
       height="1"
       width="2"
       patternUnits="userSpaceOnUse"
       inkscape:collect="always">
      <rect
         id="rect4756"
         height="2"
         width="1"
         y="-0.5"
         x="0"
         style="fill:white;stroke:none" />
    </pattern>
    <pattern
       inkscape:collect="always"
       xlink:href="#pattern6324"
       id="pattern6343"
       patternTransform="matrix(2.4783084,0,0,2.4783084,59.513627,741.05132)" />
    <pattern
       inkscape:collect="always"
       xlink:href="#pattern6314"
       id="pattern3036"
       patternTransform="matrix(2.4783084,0,0,2.4783084,11.026305,741.05132)" />
    <pattern
       inkscape:collect="always"
       xlink:href="#pattern6308"
       id="pattern3038"
       patternTransform="matrix(2.4783084,0,0,2.4783084,53.452712,760.24421)" />
    <pattern
       inkscape:collect="always"
       xlink:href="#pattern6305"
       id="pattern3040"
       patternTransform="matrix(2.4783084,0,0,2.4783084,30.219203,760.24421)" />
    <pattern
       inkscape:collect="always"
       xlink:href="#pattern6277"
       id="pattern3042"
       patternTransform="matrix(10,0,0,10,-2.5253772,61.114229)" />
    <pattern
       inkscape:collect="always"
       xlink:href="#Strips1_1white"
       id="pattern3044"
       patternTransform="matrix(10,0,0,10,-3.2829916,41.163716)" />
    <pattern
       inkscape:collect="always"
       xlink:href="#pattern6314"
       id="pattern3050"
       patternTransform="matrix(2.4783084,0,0,2.4783084,11.026305,741.05132)" />
    <pattern
       inkscape:collect="always"
       xlink:href="#pattern6308"
       id="pattern3052"
       patternTransform="matrix(2.4783084,0,0,2.4783084,53.452712,760.24421)" />
    <pattern
       inkscape:collect="always"
       xlink:href="#pattern6305"
       id="pattern3054"
       patternTransform="matrix(2.4783084,0,0,2.4783084,30.219203,760.24421)" />
    <pattern
       inkscape:collect="always"
       xlink:href="#pattern6277"
       id="pattern3056"
       patternTransform="matrix(10,0,0,10,-2.5253772,61.114229)" />
    <pattern
       inkscape:collect="always"
       xlink:href="#Strips1_1white"
       id="pattern3058"
       patternTransform="matrix(10,0,0,10,-3.2829916,41.163716)" />
    <pattern
       inkscape:collect="always"
       xlink:href="#pattern6324"
       id="pattern3064"
       patternTransform="matrix(2.4783084,0,0,2.4783084,59.513627,741.05132)" />
    <pattern
       inkscape:collect="always"
       xlink:href="#pattern6314"
       id="pattern3066"
       patternTransform="matrix(2.4783084,0,0,2.4783084,11.026305,741.05132)" />
    <pattern
       inkscape:collect="always"
       xlink:href="#pattern6308"
       id="pattern3068"
       patternTransform="matrix(2.4783084,0,0,2.4783084,53.452712,760.24421)" />
    <pattern
       inkscape:collect="always"
       xlink:href="#pattern6305"
       id="pattern3070"
       patternTransform="matrix(2.4783084,0,0,2.4783084,30.219203,760.24421)" />
    <pattern
       inkscape:collect="always"
       xlink:href="#pattern6277"
       id="pattern3072"
       patternTransform="matrix(10,0,0,10,-2.5253772,61.114229)" />
    <pattern
       inkscape:collect="always"
       xlink:href="#Strips1_1white"
       id="pattern3074"
       patternTransform="matrix(10,0,0,10,-3.2829916,41.163716)" />
    <linearGradient
       inkscape:collect="always"
       xlink:href="#linearGradient4951"
       id="linearGradient4957"
       x1="4772.8456"
       y1="1087.2238"
       x2="5472.3239"
       y2="1087.2238"
       gradientUnits="userSpaceOnUse" />
    <linearGradient
       inkscape:collect="always"
       xlink:href="#linearGradient4959"
       id="linearGradient4965"
       x1="4345.3232"
       y1="1951.6626"
       x2="5305.8115"
       y2="1951.6626"
       gradientUnits="userSpaceOnUse" />
    <linearGradient
       inkscape:collect="always"
       xlink:href="#linearGradient4951"
       id="linearGradient4977"
       gradientUnits="userSpaceOnUse"
       x1="4772.8456"
       y1="1087.2238"
       x2="5472.3239"
       y2="1087.2238" />
    <linearGradient
       inkscape:collect="always"
       xlink:href="#linearGradient4959"
       id="linearGradient4979"
       gradientUnits="userSpaceOnUse"
       x1="4345.3232"
       y1="1951.6626"
       x2="5305.8115"
       y2="1951.6626" />
    <linearGradient
       inkscape:collect="always"
       xlink:href="#linearGradient4959"
       id="linearGradient4986"
       gradientUnits="userSpaceOnUse"
       x1="4345.3232"
       y1="1951.6626"
       x2="5305.8115"
       y2="1951.6626"
       gradientTransform="translate(297.01752,-50)" />
    <linearGradient
       inkscape:collect="always"
       xlink:href="#linearGradient4951"
       id="linearGradient4990"
       gradientUnits="userSpaceOnUse"
       x1="4772.8456"
       y1="1087.2238"
       x2="5472.3239"
       y2="1087.2238"
       gradientTransform="matrix(0.74569765,0,0,0.74569765,1302.6856,212.12047)" />
    <linearGradient
       inkscape:collect="always"
       xlink:href="#linearGradient4951"
       id="linearGradient5059"
       gradientUnits="userSpaceOnUse"
       gradientTransform="matrix(0.74569765,0,0,0.74569765,1302.6856,212.12047)"
       x1="4772.8456"
       y1="1087.2238"
       x2="5472.3239"
       y2="1087.2238" />
    <linearGradient
       inkscape:collect="always"
       xlink:href="#linearGradient4959"
       id="linearGradient5061"
       gradientUnits="userSpaceOnUse"
       gradientTransform="translate(297.01752,-50)"
       x1="4345.3232"
       y1="1951.6626"
       x2="5305.8115"
       y2="1951.6626" />
    <linearGradient
       inkscape:collect="always"
       xlink:href="#linearGradient4959"
       id="linearGradient5072"
       gradientUnits="userSpaceOnUse"
       gradientTransform="translate(297.01752,-50)"
       x1="4345.3232"
       y1="1951.6626"
       x2="5305.8115"
       y2="1951.6626" />
    <linearGradient
       inkscape:collect="always"
       xlink:href="#linearGradient4951"
       id="linearGradient5076"
       gradientUnits="userSpaceOnUse"
       gradientTransform="matrix(0.74569765,0,0,0.74569765,1302.6856,212.12047)"
       x1="4772.8456"
       y1="1087.2238"
       x2="5472.3239"
       y2="1087.2238" />
    <linearGradient
       inkscape:collect="always"
       xlink:href="#linearGradient4951"
       id="linearGradient5207"
       gradientUnits="userSpaceOnUse"
       gradientTransform="matrix(0.74569765,0,0,0.74569765,1302.6856,212.12047)"
       x1="4772.8456"
       y1="1087.2238"
       x2="5472.3239"
       y2="1087.2238" />
    <linearGradient
       inkscape:collect="always"
       xlink:href="#linearGradient4959"
       id="linearGradient5209"
       gradientUnits="userSpaceOnUse"
       gradientTransform="translate(297.01752,-50)"
       x1="4345.3232"
       y1="1951.6626"
       x2="5305.8115"
       y2="1951.6626" />
    <linearGradient
       inkscape:collect="always"
       xlink:href="#linearGradient4951"
       id="linearGradient3842"
       gradientUnits="userSpaceOnUse"
       gradientTransform="matrix(0.74569765,0,0,0.74569765,1302.6856,212.12047)"
       x1="4772.8456"
       y1="1087.2238"
       x2="5472.3239"
       y2="1087.2238" />
    <linearGradient
       inkscape:collect="always"
       xlink:href="#linearGradient4959"
       id="linearGradient3844"
       gradientUnits="userSpaceOnUse"
       gradientTransform="translate(297.01752,-50)"
       x1="4345.3232"
       y1="1951.6626"
       x2="5305.8115"
       y2="1951.6626" />
  </defs>
  <sodipodi:namedview
     id="base"
     pagecolor="#ffffff"
     bordercolor="#666666"
     borderopacity="1.0"
     inkscape:pageopacity="0.0"
     inkscape:pageshadow="2"
     inkscape:zoom="0.36288"
     inkscape:cx="895.26085"
     inkscape:cy="535.99517"
     inkscape:current-layer="layer1"
     inkscape:document-units="px"
     showgrid="false"
     inkscape:snap-page="false"
     inkscape:window-width="1440"
     inkscape:window-height="785"
     inkscape:window-x="0"
     inkscape:window-y="0"
     inkscape:window-maximized="1" />
  <metadata
     id="metadata3859">
    <rdf:RDF>
      <cc:Work
         rdf:about="">
        <dc:format>image/svg+xml</dc:format>
        <dc:type
           rdf:resource="http://purl.org/dc/dcmitype/StillImage" />
        <dc:title />
      </cc:Work>
    </rdf:RDF>
  </metadata>
  <g
     id="layer1"
     inkscape:label="Layer 1"
     inkscape:groupmode="layer">
    <flowRoot
       xml:space="preserve"
       id="flowRoot4493"
       style="fill:black;stroke:none;stroke-opacity:1;stroke-width:1px;stroke-linejoin:miter;stroke-linecap:butt;fill-opacity:1;font-family:Futura;font-style:normal;font-weight:500;font-size:40px;line-height:125%;letter-spacing:0px;word-spacing:0px;-inkscape-font-specification:Futura Medium;font-stretch:normal;font-variant:normal"><flowRegion
         id="flowRegion4495"><rect
           id="rect4497"
           width="431.33514"
           height="51.854496"
           x="153.20647"
           y="301.9744" /></flowRegion><flowPara
         id="flowPara4499" /></flowRoot>    <path
       style="fill:#ff7f2a"
       d="m 2933.9401,1428.4008 -179.0501,-179.0653 56.4592,-0.035 56.4592,-0.035 123.2721,123.1795 123.2721,123.1794 0,51.795 c 0,48.1874 -0.3284,51.6753 -4.7153,50.0755 -4.2332,-1.5438 -4.1905,-1.1218 0.4176,4.1262 2.8231,3.2153 4.6385,5.8459 4.0341,5.8459 -0.6043,0 -81.6713,-80.5794 -180.1489,-179.0653 z m 1.5626,-5.3321 c -94.2241,-94.2002 -172.2483,-171.2731 -173.3871,-171.2731 -1.1387,0 75.4746,77.5521 170.2518,172.338 94.7772,94.7859 172.8014,171.8587 173.3871,171.273 0.5857,-0.5857 -76.0276,-78.1378 -170.2518,-172.3379 z m 119.9315,81.8147 c 3.7192,-1.9904 5.1595,-5.1291 4.6375,-10.1058 -0.4165,-3.9704 0.229,-8.8144 1.4342,-10.7645 5.0774,-8.2155 -1.9312,-6.1078 -11.829,3.5572 -10.0334,9.7973 -10.4171,10.7348 -6.2692,15.3181 5.1903,5.7352 5.074,5.7159 12.0265,1.995 z m -7.0961,-7.8907 c 0.9159,-1.482 2.8062,-2.6945 4.2007,-2.6945 1.3945,0 2.5354,1.2125 2.5354,2.6945 0,1.482 -1.8903,2.6945 -4.2007,2.6945 -2.3104,0 -3.4514,-1.2125 -2.5354,-2.6945 z m -4.3088,-9.1464 c 3.3349,-3.5498 4.8954,-7.1724 3.4695,-8.0538 -1.4255,-0.881 -4.0902,0.2036 -5.9216,2.4103 -1.8313,2.2066 -4.5816,4.012 -6.1118,4.012 -1.5302,0 -0.5808,-2.4325 2.1097,-5.4055 6.3654,-7.0336 2.9935,-10.4055 -4.0401,-4.0401 -6.1825,5.595 -6.8011,9.6667 -2.1721,14.2957 4.4726,4.4726 5.7446,4.1494 12.6664,-3.2186 z m 50.8367,-7.0204 c -1.851,-2.964 -4.4742,-5.389 -5.8294,-5.389 -1.3551,0 -0.2694,2.425 2.413,5.389 2.6823,2.9639 5.3055,5.3889 5.8294,5.3889 0.5239,0 -0.562,-2.425 -2.413,-5.3889 z m -61.5548,-8.2907 c 8.0865,-8.0865 10.4816,-13.2651 6.1351,-13.2651 -1.1856,0 -3.5904,1.4348 -5.344,3.1884 -4.5908,4.5907 -7.6874,0.1758 -4.0085,-5.7149 5.8353,-9.3439 -0.2598,-8.3784 -10.5516,1.6713 -7.9598,7.7725 -10.274,8.9419 -10.274,5.1915 0,-2.6625 2.425,-5.475 5.3889,-6.2501 6.0475,-1.5814 7.4779,-11.5586 1.6572,-11.5586 -3.9832,0 -12.4351,11.1797 -12.4351,16.4486 0,1.7412 2.1219,4.7226 4.7154,6.6253 3.9097,2.8685 5.5318,2.7229 9.4943,-0.8518 3.2446,-2.9271 5.6603,-3.4299 7.524,-1.5662 1.8637,1.8637 1.4107,3.8523 -1.4109,6.1941 -2.2858,1.897 -4.1559,4.5131 -4.1559,5.8136 0,4.5491 5.0426,2.2963 13.2651,-5.9261 z m -16.1877,-34.1473 c 0.1255,-1.8524 -0.9844,-3.3681 -2.4664,-3.3681 -1.4819,0 -2.6944,1.8188 -2.6944,4.0417 0,2.223 -1.4202,4.0417 -3.156,4.0417 -4.6204,0 -13.0109,8.2902 -13.0109,12.8553 0,4.7956 20.9838,-12.4916 21.3277,-17.5706 z m 45.4088,10.1043 c -1.8509,-2.9639 -4.4742,-5.389 -5.8293,-5.389 -1.3552,0 -0.2695,2.4251 2.4129,5.389 2.6824,2.9639 5.3056,5.3889 5.8294,5.3889 0.5239,0 -0.562,-2.425 -2.413,-5.3889 z m -64.042,-1.3473 c 3.4413,-4.1465 2.1745,-5.0205 -6.0626,-4.1826 -5.4044,0.5498 -6.265,-5.3149 -1.4819,-10.0981 4.2238,-4.2238 12.1585,-4.1457 13.6873,0.1348 0.6616,1.8524 2.2353,2.4005 3.4973,1.218 2.9064,-2.7236 -2.2093,-11.0713 -7.4144,-12.0984 -2.163,-0.4269 -7.1863,1.783 -11.1627,4.9109 -8.3118,6.5381 -9.5665,17.1395 -2.5145,21.2469 6.3457,3.696 7.5432,3.5777 11.4515,-1.1315 z m -19.4074,-33.5403 c -0.5968,-5.1227 -2.3134,-6.8259 -6.7297,-6.6772 -3.2608,0.1097 -5.3715,-0.7019 -4.6906,-1.8036 2.0896,-3.3811 -6.7993,-10.3887 -11.0895,-8.7424 -2.2212,0.8524 -5.3709,4.0393 -6.9993,7.0821 -2.3798,4.4466 -2.0228,6.2181 1.819,9.0273 2.6289,1.9223 5.8438,2.8375 7.1441,2.0339 1.3004,-0.8037 2.1907,-0.4617 1.9785,0.7599 -1.0369,5.9687 0.7363,6.6601 5.6577,2.2062 6.7744,-6.1307 10.517,-3.1167 4.4519,3.5852 -5.8901,6.5084 -2.3277,9.8913 4.1975,3.986 3.0346,-2.7462 4.7407,-7.3345 4.2604,-11.4574 z m -24.7912,-5.1086 c -0.9325,-1.5086 -0.3824,-3.5545 1.2223,-4.5463 4.1428,-2.5603 6.8156,0.9468 3.3573,4.4051 -1.9351,1.9351 -3.4422,1.9816 -4.5796,0.1412 z m 62.4346,-5.8099 c -1.851,-2.9639 -4.4742,-5.3889 -5.8294,-5.3889 -1.3552,0 -0.2694,2.425 2.413,5.3889 2.6823,2.964 5.3055,5.389 5.8294,5.389 0.5238,0 -0.562,-2.425 -2.413,-5.389 z m -79.0687,-11.4303 c -1.7365,-5.4711 -1.4798,-5.6782 2.7182,-2.1942 4.0179,3.3346 4.962,3.3318 7.0836,-0.021 1.3463,-2.1276 2.4664,-4.6293 2.4891,-5.5594 0.088,-3.6195 -7.5726,-7.7507 -11.5457,-6.2261 -3.0748,1.1799 -3.8403,0.282 -2.8823,-3.3812 0.8082,-3.0907 -1.3441,-7.4757 -5.6592,-11.5295 l -6.9634,-6.5418 -7.1933,7.1933 c -8.1383,8.1383 -6.3957,13.5636 1.935,6.0244 6.5082,-5.8898 7.2318,-2.4573 0.9461,4.4882 -4.0435,4.4679 -4.056,4.9274 -0.1339,4.9274 2.379,0 5.5073,-2.1118 6.9517,-4.6929 1.4445,-2.5811 3.5182,-3.801 4.6082,-2.711 1.09,1.09 -0.2262,4.4218 -2.9249,7.4039 -5.663,6.2575 -3.5217,10.5478 2.691,5.3918 3.5112,-2.9141 3.9009,-2.7622 2.4713,0.9632 -2.0911,5.4495 0.3721,12.5063 4.3653,12.5063 1.841,0 2.2355,-2.2847 1.0432,-6.0414 z m 46.735,-20.9033 c -1.851,-2.964 -4.4742,-5.389 -5.8294,-5.389 -1.3551,0 -0.2693,2.425 2.413,5.389 2.6823,2.9639 5.3056,5.3889 5.8294,5.3889 0.5239,0 -0.562,-2.425 -2.413,-5.3889 z m -80.2089,-17.6731 c 0,-2.1355 1.8188,-3.8827 4.0418,-3.8827 2.2229,0 4.0417,-1.2125 4.0417,-2.6945 0,-1.482 -1.4005,-2.6945 -3.1121,-2.6945 -1.819,0 -1.1863,-2.1279 1.5227,-5.1214 9.2092,-10.176 -0.4874,-7.8636 -10.6447,2.5386 -9.2628,9.4859 -10.0246,12.0536 -3.2592,10.9853 1.1115,-0.1755 2.0209,1.5713 2.0209,3.8817 0,2.3104 1.2125,3.4513 2.6945,2.5354 1.4819,-0.9159 2.6944,-3.4125 2.6944,-5.5479 z m -5.8504,-14.6606 c 3.9541,0 4.1249,-4.4721 0.262,-6.8595 -3.5445,-2.1906 -16.4054,9.3598 -14.2696,12.8156 0.8425,1.3631 3.6287,0.5806 6.1917,-1.7389 2.563,-2.3195 6.0802,-4.2172 7.8159,-4.2172 z m 53.7256,0 c -1.851,-2.9639 -4.4742,-5.389 -5.8293,-5.389 -1.3552,0 -0.2694,2.4251 2.4129,5.389 2.6824,2.9639 5.3056,5.3889 5.8294,5.3889 0.5239,0 -0.562,-2.425 -2.413,-5.3889 z m -66.275,-4.4593 c 6,-5.4299 6.2608,-9.9411 0.8352,-14.444 -3.3489,-2.7793 -5.0619,-2.5187 -9.4306,1.4349 -6.1182,5.5369 -6.7218,9.6183 -2.1051,14.235 4.1718,4.1717 4.8179,4.0977 10.7005,-1.2259 z m -5.7964,-7.731 c 1.8746,-2.2587 3.9633,-3.5519 4.6415,-2.8737 1.8686,1.8686 -1.928,6.9806 -5.1845,6.9806 -1.7866,0 -1.5822,-1.5461 0.543,-4.1069 z m -13.6593,-7.8581 c 1.7718,-2.1349 5.162,-3.1369 7.5339,-2.2267 3.1333,1.2024 3.867,0.4939 2.6831,-2.5912 -2.1332,-5.5591 0.6457,-8.1671 4.9213,-4.6187 5.802,4.8152 6.7838,-1.8023 1.0387,-7.0015 -5.2398,-4.7419 -5.6367,-4.6287 -14.756,4.2102 -8.898,8.6242 -12.1537,16.1094 -7.007,16.1094 1.3006,0 3.8142,-1.7467 5.586,-3.8815 z m 39.9247,-25.7577 c -1.851,-2.9639 -4.4742,-5.3889 -5.8294,-5.3889 -1.3552,0 -0.2693,2.425 2.413,5.3889 2.6823,2.9639 5.3055,5.389 5.8294,5.389 0.5238,0 -0.562,-2.4251 -2.413,-5.389 z m -32.3337,-32.3337 c -1.851,-2.9639 -4.4742,-5.3889 -5.8294,-5.3889 -1.3551,0 -0.2693,2.425 2.413,5.3889 2.6823,2.964 5.3056,5.389 5.8294,5.389 0.5239,0 -0.562,-2.425 -2.413,-5.389 z"
       id="path5193"
       inkscape:connector-curvature="0" />
    <rect
       style="fill:#ececec;fill-opacity:1;fill-rule:evenodd;stroke:#000000;stroke-width:0.1;stroke-linejoin:miter;stroke-miterlimit:4;stroke-opacity:1;stroke-dasharray:none"
       id="rect3846"
       width="435.40564"
       height="165.34392"
       x="1667.2179"
       y="2225.1321" />
    <path
       style="fill:#0b2817;fill-opacity:1"
       d="m -1.2124175,627.97532 0,-146.61174 13.7839755,0 c 7.581254,0 13.784079,1.04791 13.784079,2.32872 0,2.45193 28.850619,30.90443 32.792731,32.34013 1.360267,0.49542 2.293838,-35.43174 2.293838,-88.28041 l 0,-89.11575 7.350621,1.47017 c 7.023196,1.40464 7.385913,1.03913 8.145091,-8.20773 0.643088,-7.83376 1.869,-9.83051 6.433355,-10.47876 3.543381,-0.50326 5.638988,-2.53603 5.638988,-5.47006 0,-2.56802 2.255554,-5.38504 5.012308,-6.26 4.766924,-1.51299 5.012415,-3.79197 5.012415,-46.53336 0,-28.29081 0.928515,-44.94237 2.506206,-44.94237 1.5779,0 2.50611,16.7079 2.50611,45.11129 0,43.44052 0.18574,45.11129 5.0124,45.11129 3.67577,0 5.01241,1.67087 5.01241,6.26546 0,6.16031 0.33609,6.26546 20.01982,6.26546 l 20.01982,0 1.60308,10.02482 c 1.57047,9.82133 1.81338,10.02472 11.96874,10.02472 9.16235,0 12.32568,1.76891 27.24775,15.2366 l 16.88198,15.2366 0,135.1344 0,135.1346 9.45603,0 9.45604,0 8.65599,-40.09898 c 4.76072,-22.05445 9.59431,-40.09898 10.74128,-40.09898 1.14697,0 1.35789,-1.17721 0.46869,-2.6159 -0.8892,-1.4389 -0.5433,-3.97637 0.76878,-5.63899 5.46366,-6.9232 6.45471,-23.27303 7.85491,-129.58528 l 1.46883,-111.52517 10.65129,-0.77074 10.6513,-0.77063 0,-13.74125 0,-13.74126 20.67601,0.72791 20.67602,0.72791 0.76392,11.90435 0.76383,11.90435 9.66293,0 9.66293,0 4.98837,-21.92907 c 2.74364,-12.06099 7.5733,-33.77088 10.73261,-48.24407 3.1593,-14.47319 6.47164,-26.87884 7.36083,-27.56806 5.18691,-4.02053 7.44143,-29.79316 7.44143,-85.06693 l 0,-60.29175 -8.77166,0 c -6.12626,0 -8.77167,-1.133762 -8.77167,-3.759256 0,-2.625598 2.64541,-3.759257 8.77167,-3.759257 l 8.77166,0 0,-17.777993 c 0,-15.670209 0.59428,-17.933296 5.01231,-19.088625 3.5504,-0.928515 5.01241,-3.418519 5.01241,-8.537011 l 0,-7.2262755 35.14921,0 35.14931,0 1.47625,7.3816815 c 1.00632,5.031192 3.18087,7.624801 6.8294,8.145091 4.77446,0.680856 5.43313,2.591545 6.09407,17.680167 0.56032,12.790451 1.63011,16.916759 4.38583,16.916759 2.00459,0 3.64471,1.691614 3.64471,3.759257 0,2.067643 -1.69161,3.759257 -3.75925,3.759257 -3.30542,0 -3.75926,20.98012 -3.75926,173.783635 0,95.58099 0.74019,189.21786 1.64497,208.08204 l 1.64487,34.2985 5.52259,-5.18815 c 4.83492,-4.54217 8.14055,-5.09682 26.54966,-4.45456 20.77415,0.72471 21.03646,0.81501 21.80844,7.5051 0.73492,6.36917 1.62866,6.81599 15.03713,7.51862 l 14.25576,0.747 0.67353,57.01563 0.67364,57.01574 31.28025,0 31.28026,0 0,-23.96234 0,-23.96225 -11.90435,1.69946 c -13.7622,1.96476 -12.4331,-2.09458 1.87963,-5.74084 l 8.77167,-2.23461 0.65413,-106.2232 c 0.49975,-81.15475 1.38689,-106.68859 3.75925,-108.19529 1.70782,-1.08464 6.20654,-1.98942 9.99717,-2.01047 5.91791,-0.033 6.89194,-1.06081 6.89194,-7.27251 0,-5.9402 1.23272,-7.44122 6.89204,-8.39213 3.79062,-0.6369 20.18823,-4.75103 36.4392,-9.14243 16.25097,-4.39151 30.63025,-7.31523 31.95389,-6.49713 1.32363,0.8181 2.40662,5.36811 2.40662,10.11109 0,4.74308 1.12778,8.62379 2.50621,8.62379 1.62567,0 2.5062,-32.58046 2.5062,-92.72888 0,-60.14842 0.88053,-92.72878 2.50621,-92.72878 1.62557,0 2.5061,32.54053 2.5061,92.60918 l 0,92.60929 15.66371,0.74617 c 14.9652,0.71285 15.69869,1.04997 16.44909,7.5599 l 0.7855,6.81392 29.28877,0.70469 29.28866,0.7047 0.6855,43.16324 0.6854,43.16324 35.65422,0.695 35.65433,0.69499 0.68065,48.24407 0.68065,48.24407 16.23611,0 c 14.23007,0 16.236,-0.58324 16.236,-4.72007 0,-5.77283 6.49279,-7.73119 25.78254,-7.7767 l 14.50466,-0.034 -0.29265,-48.65601 -0.29265,-48.65611 28.39307,-26.70043 28.39322,-26.70052 1.253,-61.85706 1.2532,-61.85706 6.8919,-0.79303 6.8921,-0.79302 0,-76.27215 c 0,-49.17733 0.8902,-76.272154 2.5061,-76.272154 1.616,0 2.5062,27.150334 2.5062,76.438594 l 0,76.4386 7.5185,0 c 6.8766,0 7.5186,-0.72595 7.5186,-8.50347 0,-9.53456 2.9421,-11.52512 17.1217,-11.58435 11.5125,-0.0485 14.7221,-2.07249 15.8325,-9.98633 0.7352,-5.23851 2.4198,-6.39301 10.2776,-7.04332 7.1769,-0.59397 9.398,0.14632 9.398,3.13268 0,2.15092 1.1279,3.91064 2.5062,3.91064 1.3784,0 2.5062,2.68792 2.5062,5.97312 0,3.86544 1.7687,6.43573 5.0124,7.28396 3.955,1.03428 5.0123,3.41852 5.0123,11.30202 0,6.56915 1.2875,10.48526 3.7594,11.43379 3.2934,1.26379 3.7592,23.81272 3.7592,181.9665 l 0,180.52399 18.5984,0 18.5984,0 1.049,-19.42296 c 0.5772,-10.68256 0.9481,-74.95409 0.8246,-142.82534 -0.241,-132.53439 -0.8938,-125.96297 12.5113,-125.96297 4.7216,0 6.0606,-1.32507 6.0606,-5.99737 0,-6.7452 4.1126,-9.03976 16.2028,-9.03976 6.1666,0 8.6083,-1.27678 9.5852,-5.0123 0.9545,-3.64978 3.4184,-5.01242 9.064,-5.01242 7.1899,0 7.753,-0.6372 7.753,-8.77166 0,-6.12616 1.1339,-8.77167 3.7594,-8.77167 2.6255,0 3.7593,2.64551 3.7593,8.77167 l 0,8.77166 20.284,0 c 18.1765,0 20.4204,0.52081 21.595,5.01242 0.7209,2.75675 2.8709,5.0123 4.7776,5.0123 2.7856,0 3.4671,-6.84416 3.4671,-34.81847 0,-38.86678 -0.5027,-37.82991 18.3748,-37.89926 7.6679,-0.0279 9.4464,-0.68446 6.687,-2.46782 -2.0675,-1.33612 -8.0564,-2.44666 -13.3088,-2.46781 -9.4967,-0.0382 -9.5452,-0.0908 -8.7716,-9.43653 0.7704,-9.30765 0.8926,-9.40557 12.6822,-10.16207 11.3342,-0.72729 11.9043,-1.11735 11.9043,-8.14509 0,-6.20252 1.0005,-7.38127 6.2655,-7.38127 l 6.2655,0 0,-62.65462 c 0,-40.098878 0.9022,-62.654626 2.5062,-62.654626 1.604,0 2.5061,22.555748 2.5061,62.654626 0,58.91414 0.2724,62.65462 4.5605,62.65462 2.5082,0 7.1364,2.96262 10.2846,6.5835 4.6182,5.31125 5.0687,7.03424 2.3316,8.91603 -2.1279,1.46294 14.593,2.00924 44.8514,1.46552 l 48.2442,-0.86701 -0.038,6.36153 c -0.061,9.97694 -3.4693,13.07309 -15.9418,14.47897 -14.5162,1.6362 -15.0481,5.12809 -0.9366,6.14906 l 10.6512,0.77064 1.2532,99.76219 1.2531,99.7623 15.037,14.30488 c 8.2705,7.86761 26.8028,25.30435 41.183,38.74821 17.8542,16.6917 25.3313,25.25801 23.5773,27.01206 -1.7541,1.75404 -3.586,1.34272 -5.7768,-1.29691 -5.8124,-7.00359 -7.6066,-4.07285 -7.6066,12.42474 l 0,16.29018 17.5432,0 17.5434,0 0,-23.80879 0,-23.8087 28.8211,0 28.8211,0 0,145.35869 0,145.3587 -801.97903,0 -801.9791811,0 0,-146.61175 z M 99.034984,317.20841 c 0,-2.06754 -1.127777,-3.75926 -2.506209,-3.75926 -1.378429,0 -2.506206,1.69172 -2.506206,3.75926 0,2.06764 1.127777,3.75925 2.506206,3.75925 1.378432,0 2.506209,-1.69161 2.506209,-3.75925 z"
       id="path3850"
       inkscape:connector-curvature="0"
       inkscape:export-filename="/Users/anivamainali/Sites/spritesloot/client/app/public/images/launchPage.png"
       inkscape:export-xdpi="89.75"
       inkscape:export-ydpi="89.75" />
  </g>
</svg>
